<?xml version="1.0" encoding="utf-8"?>
<!-- Generator: Adobe Illustrator 25.2.1, SVG Export Plug-In . SVG Version: 6.00 Build 0)  -->
<svg version="1.1" id="Layer_1" xmlns="http://www.w3.org/2000/svg" xmlns:xlink="http://www.w3.org/1999/xlink" x="0px" y="0px"
	 viewBox="0 0 405 340" style="enable-background:new 0 0 405 340;" xml:space="preserve">
<style type="text/css">
	.st0{fill:#E9F540;stroke:#000000;stroke-width:3;stroke-miterlimit:10;}
	.st1{fill:#ABF900;}
	.st2{fill:#FFFFFF;}
	.st3{fill:#B200FC;}
	.st4{fill:#E9F540;}
	.st5{fill:#1D3357;}
	.st6{fill:#E9F540;stroke:#1C3357;stroke-width:3;stroke-miterlimit:10;}
	.st7{fill:#FFFFFF;stroke:#000000;stroke-width:3;stroke-miterlimit:10;}
	.st8{enable-background:new    ;}
	.st9{clip-path:url(#SVGID_2_);enable-background:new    ;}
	.st10{fill:none;stroke:#000000;stroke-miterlimit:10;}
	.st11{clip-path:url(#SVGID_2_);fill:none;stroke:#000000;stroke-miterlimit:10;}
	.st12{clip-path:url(#SVGID_4_);enable-background:new    ;}
	.st13{clip-path:url(#SVGID_4_);fill:none;stroke:#000000;stroke-miterlimit:10;}
	.st14{fill:#231F20;}
	.st15{opacity:0.23;}
	.st16{fill:none;stroke:#000000;stroke-width:3;stroke-miterlimit:10;}
	.st17{fill:#FFFFFF;stroke:#000000;stroke-miterlimit:10;}
	.st18{stroke:#000000;stroke-miterlimit:10;}
	.st19{fill:#E9F540;stroke:#E9F540;stroke-miterlimit:10;}
	.st20{fill:none;stroke:#E9F540;stroke-miterlimit:10;}
	.st21{fill:none;stroke:#1C3357;stroke-miterlimit:10;}
	.st22{fill:#1C3357;}
	.st23{fill:#B200FC;stroke:#000000;stroke-width:2.8346;stroke-miterlimit:10;}
	.st24{fill:#ABF900;stroke:#000000;stroke-width:2.8346;stroke-miterlimit:10;}
	.st25{fill:#FFFFFF;stroke:#000000;stroke-width:2.8346;stroke-miterlimit:10;}
</style>
<g>
	<g>
		<path class="st0" d="M404.39,165.46c-0.45-4.73-0.95-9.61-2.42-14.14c-2.47-7.61-5.86-14.58-9.86-21.34
			c-14.63-24.7-11.39-57.3-29.74-80.15c-19.11-23.79-52.41-25.56-79.63-30.78c-30.05-5.76-59.69-14.12-90.15-17.43
			c-31.22-3.39-60.68,1.11-90.57,10.46c-28.65,8.96-58.86,25.88-82.09,45.58C5.83,69.63-4.59,90.19,3.12,107.32
			c5.03,11.18,16.18,17.63,25.89,24.73c16.67,12.19,30.71,28.24,40.8,46.64c-0.61-1.11-19.44,21.8-20.81,24.01
			c-8.08,13.07-15.29,26.9-19.1,42.01c-4.99,19.77-3.51,42.2,8.1,58.7s34.68,24.76,52.13,15.32c11.42-6.18,20.11-19.04,32.97-19.87
			c5.59-0.36,11.03,1.72,16.25,3.83c22.7,9.2,45.33,18.07,66.81,30.14c4.89,2.75,9.87,5.67,15.38,6.46c6.94,1,14.28-1.71,19.06-7.03
			c6.53-7.28,7.78-18.13,7.08-28.05c-3.07-43.21-6.31-86.39-2.85-129.76c2.06-25.73,35.71,20.88,40.82,27.57
			c11.77,15.39,22.01,32.53,34.59,47.21c2.04,2.38,4.63,4.35,7.06,6.18c0.5,0.37,1.01,0.71,1.55,1.01c2.23,1.24,4.78,2.47,7.21,3.21
			c2.35,0.71,4.96,0.88,7.36,1.15c0.54,0.06,1.06,0.11,1.62,0.1c2.36-0.04,5.02-0.55,7.32-1.02c0.6-0.12,1.17-0.27,1.76-0.49
			c5.99-2.19,10.68-5.27,15.31-9.93c3.19-3.21,5.83-7.2,8.24-11.09c3.25-5.25,5.81-11.05,8.55-16.62
			c2.94-5.98,5.86-11.98,8.69-18.02c2.15-4.58,4.03-9.28,5.83-14.04c1.12-2.98,2.05-6.06,2.54-9.23
			C404.06,175.53,404.87,170.46,404.39,165.46z"/>
	</g>
</g>
<g>
	<path d="M69.21,56.92c-1.28,0-2.42-0.28-3.42-0.83c-1-0.55-1.79-1.36-2.37-2.44c-0.58-1.07-0.87-2.38-0.87-3.93v-4.18
		c0-2.33,0.64-4.11,1.91-5.34c1.28-1.23,3-1.85,5.18-1.85c2.14,0,3.79,0.58,4.95,1.75s1.73,2.73,1.73,4.68v0.13H73.6v-0.2
		c0-0.73-0.14-1.39-0.43-1.98c-0.29-0.59-0.72-1.05-1.3-1.39s-1.32-0.51-2.22-0.51c-1.36,0-2.42,0.41-3.19,1.24
		c-0.77,0.83-1.15,1.97-1.15,3.43v4.29c0,1.45,0.38,2.59,1.15,3.43c0.77,0.84,1.84,1.26,3.21,1.26c1.36,0,2.36-0.37,2.98-1.12
		s0.94-1.72,0.94-2.91v-0.33h-4.8v-2.37h7.53v8.83h-2.55v-1.81h-0.41c-0.15,0.32-0.38,0.66-0.68,1c-0.3,0.34-0.72,0.62-1.28,0.84
		C70.86,56.81,70.13,56.92,69.21,56.92z"/>
	<path d="M78.55,56.56l5.1-17.86h4.85l5.08,17.86h-2.83l-1.17-4.21h-6.99l-1.17,4.21H78.55z M83.27,49.8h5.61l-2.6-9.39h-0.41
		L83.27,49.8z"/>
	<path d="M96,56.56V38.7h5.18l3.9,16.02h0.41l3.9-16.02h5.18v17.86h-2.68V40.64h-0.41l-3.88,15.92h-4.64l-3.88-15.92h-0.41v15.92H96
		z"/>
	<path d="M118.29,56.56V38.7h11.25v2.5h-8.5v5.13h7.78v2.5h-7.78v5.23h8.62v2.5H118.29z"/>
	<path d="M138.4,56.56v-2.45h2.4V41.15h-2.4V38.7h7.14c2.38,0,4.21,0.6,5.47,1.81c1.27,1.21,1.9,3.03,1.9,5.46v3.34
		c0,2.43-0.63,4.25-1.9,5.45c-1.27,1.2-3.09,1.8-5.47,1.8H138.4z M143.57,54.06h1.99c1.55,0,2.7-0.39,3.44-1.17
		c0.75-0.78,1.12-1.95,1.12-3.5v-3.52c0-1.56-0.37-2.73-1.12-3.5c-0.75-0.77-1.9-1.15-3.44-1.15h-1.99V54.06z"/>
	<path d="M156.02,56.56V38.7h11.25v2.5h-8.5v5.13h7.78v2.5h-7.78v5.23h8.62v2.5H156.02z"/>
	<path d="M176.36,56.92c-1.34,0-2.54-0.24-3.57-0.71c-1.04-0.48-1.85-1.18-2.44-2.1c-0.59-0.93-0.88-2.05-0.88-3.38v-0.64h2.73v0.64
		c0,1.26,0.38,2.2,1.14,2.83s1.76,0.94,3.02,0.94c1.28,0,2.24-0.27,2.88-0.8c0.65-0.54,0.97-1.23,0.97-2.08
		c0-0.56-0.15-1.02-0.46-1.38c-0.31-0.36-0.74-0.64-1.3-0.85c-0.56-0.21-1.23-0.41-2.02-0.6l-0.94-0.23
		c-1.14-0.27-2.13-0.61-2.97-1.01c-0.84-0.4-1.49-0.93-1.95-1.59c-0.46-0.66-0.69-1.51-0.69-2.55c0-1.05,0.26-1.96,0.78-2.7
		c0.52-0.75,1.24-1.33,2.16-1.73c0.92-0.41,2-0.61,3.24-0.61s2.35,0.21,3.33,0.64c0.98,0.43,1.75,1.05,2.31,1.89
		c0.56,0.83,0.84,1.88,0.84,3.14v0.92h-2.73v-0.92c0-0.77-0.16-1.39-0.47-1.86s-0.75-0.82-1.31-1.05c-0.56-0.22-1.22-0.33-1.96-0.33
		c-1.09,0-1.93,0.23-2.54,0.68c-0.6,0.45-0.91,1.08-0.91,1.88c0,0.54,0.13,0.99,0.4,1.34c0.26,0.35,0.65,0.63,1.16,0.85
		c0.51,0.22,1.15,0.42,1.91,0.59l0.94,0.23c1.16,0.26,2.18,0.58,3.06,0.98c0.88,0.4,1.58,0.94,2.09,1.62
		c0.51,0.68,0.77,1.56,0.77,2.63c0,1.07-0.27,2.01-0.8,2.81c-0.54,0.8-1.3,1.42-2.28,1.88C178.86,56.69,177.7,56.92,176.36,56.92z"
		/>
	<path d="M185.82,56.56V38.7h2.75v17.86H185.82z"/>
	<path d="M198.5,56.92c-1.28,0-2.42-0.28-3.42-0.83c-1-0.55-1.79-1.36-2.37-2.44c-0.58-1.07-0.87-2.38-0.87-3.93v-4.18
		c0-2.33,0.64-4.11,1.91-5.34c1.28-1.23,3-1.85,5.18-1.85c2.14,0,3.79,0.58,4.95,1.75c1.16,1.17,1.74,2.73,1.74,4.68v0.13h-2.73
		v-0.2c0-0.73-0.15-1.39-0.43-1.98c-0.29-0.59-0.72-1.05-1.3-1.39s-1.32-0.51-2.22-0.51c-1.36,0-2.42,0.41-3.19,1.24
		c-0.77,0.83-1.15,1.97-1.15,3.43v4.29c0,1.45,0.38,2.59,1.15,3.43c0.77,0.84,1.84,1.26,3.21,1.26c1.36,0,2.36-0.37,2.99-1.12
		c0.63-0.75,0.94-1.72,0.94-2.91v-0.33h-4.8v-2.37h7.53v8.83h-2.55v-1.81h-0.41c-0.15,0.32-0.38,0.66-0.68,1
		c-0.3,0.34-0.72,0.62-1.28,0.84C200.15,56.81,199.42,56.92,198.5,56.92z"/>
	<path d="M209.16,56.56V38.7h5.31l4.85,16.02h0.41V38.7h2.73v17.86h-5.31l-4.85-16.05h-0.41v16.05H209.16z"/>
</g>
<g>
	<g>
		<circle cx="344.27" cy="81.53" r="9.48"/>
	</g>
	<g>
		<rect x="343.62" y="80.32" width="1.31" height="68.53"/>
		<path d="M343.11,149.35V79.82h2.31v69.53H343.11z M344.11,80.82v67.53h0.31V80.82H344.11z"/>
	</g>
	<g>
		<polygon points="369.07,191.06 369.07,162.42 344.27,148.1 319.46,162.42 319.46,191.06 344.27,205.39 		"/>
	</g>
	<g>
		<polygon points="369.07,220 344.27,205.68 319.46,220 319.46,234.32 369.07,234.32 		"/>
	</g>
</g>
<g>
	<circle class="st2" cx="318.5" cy="47.63" r="14"/>
	<path d="M318.5,63.13c-8.55,0-15.5-6.95-15.5-15.5s6.95-15.5,15.5-15.5s15.5,6.95,15.5,15.5S327.05,63.13,318.5,63.13z
		 M318.5,35.13c-6.89,0-12.5,5.61-12.5,12.5s5.61,12.5,12.5,12.5s12.5-5.61,12.5-12.5S325.39,35.13,318.5,35.13z"/>
</g>
</svg>
