<svg id="Layer_1" data-name="Layer 1" xmlns="http://www.w3.org/2000/svg" viewBox="0 0 333 253"><defs><style>.cls-1{fill:#fff;}.cls-1,.cls-2{stroke:#000;stroke-miterlimit:10;stroke-width:2.83px;}.cls-2{fill:#f70093;}.cls-3{fill:none;}.cls-4{fill:#b200fc;}</style></defs><path class="cls-1" d="M321.91,30.2a25,25,0,0,0-10.59-7.83c-6.82-2.86-14.23-3.44-21.54-3.38-76.43.71-152.23,0-228.47-6l.48.06L61.28,13h-.13l.35,0-3-.25,2.69.21-5.5-.63-.42-.07C48.07,10.64,40.62,9,33.47,10.71A24.82,24.82,0,0,0,17.06,23.84a25.43,25.43,0,0,0,.78,23.05,4.41,4.41,0,0,0,.35.53c1.16,1.5,2.33,3,3.5,4.52a4.4,4.4,0,0,0,.4.46,24.82,24.82,0,0,0,10.45,6.09,5.05,5.05,0,0,0,.56.12A825.64,825.64,0,0,0,123,67.7c-5.41-.26-12.56,3.35-17.8,4.81-6.44,1.79-12.92,3.37-19.33,5.25q-5.28,1.55-10.51,3.29A170.53,170.53,0,0,0,48.75,92.2c-7.34,3.92-14.29,8.51-17.85,16.36a24.1,24.1,0,0,0-.18,19.91c2.6,5.57,9.68,9.18,7.94,15.7-1.35,5.06-6.37,8.78-9.14,13-4.72,7.28-9.36,14.62-14.18,21.84-5,7.7-10.16,15.93-10.4,25.1a25.22,25.22,0,0,0,11.48,21.58,24.62,24.62,0,0,0,24.37.84c7.4-4,12.08-11.55,16.42-18.75,7.3-12.09,13.94-25.83,22.41-37.61,1.65-2.3,3.37-4.52,5.17-6.64a4,4,0,0,1,6.58.77,48,48,0,0,0,5.57,9.54c2.6,3.25,5.35,6.38,8.26,9.36a127,127,0,0,0,14,12.48c4.71,3.61,8.8,7.59,14.87,8.33a39.81,39.81,0,0,0,19.16-2.84A75,75,0,0,0,170.69,192c4.86-3.6,11.2-9.19,12.44-15.4.43-2.17.52-4.54,1.9-6.38,3.13-4.15,17.71.48,22.33,1,8.67,1,17.36,1.73,26.06,2.2a290.3,290.3,0,0,0,53.38-1.63c5.71-.75,11.54-1.71,16.56-4.54,13.15-7.43,16.17-26.9,6.12-38-3.94-4.36-9.08-7.43-14.19-10.34a447,447,0,0,0-45.84-22.75c-5.83-2.49-15.72-6.31-4.8-9.9,7.64-2.52,15.72-3.46,23.41-5.82,8.79-2.7,17.59-5.4,26.5-7.71,8.14-2.12,16.4-4.85,22.75-10.37a25.72,25.72,0,0,0,7.53-11.49C327.05,44,326.39,36.25,321.91,30.2Z"/><circle class="cls-2" cx="278.82" cy="42.08" r="14"/><path d="M278.82,57.58a15.5,15.5,0,1,1,15.5-15.5A15.52,15.52,0,0,1,278.82,57.58Zm0-28a12.5,12.5,0,1,0,12.5,12.5A12.51,12.51,0,0,0,278.82,29.58Z"/><path d="M70.62,51l5.1-17.86h4.85L85.64,51H82.81L81.64,46.8h-7L73.47,51Zm4.72-6.76H81l-2.6-9.39h-.41Z"/><path d="M88.07,51V33.15h7.5a7,7,0,0,1,2.92.57,4.38,4.38,0,0,1,2.66,4.2v.28a4.22,4.22,0,0,1-.8,2.69,4.44,4.44,0,0,1-1.95,1.42v.4a2.15,2.15,0,0,1,2.14,2.38V51H97.76V45.47a1.62,1.62,0,0,0-.36-1.1,1.45,1.45,0,0,0-1.14-.4H90.82v7Zm2.75-9.55h4.44a3.28,3.28,0,0,0,2.3-.75,2.65,2.65,0,0,0,.81-2.05v-.21a2.66,2.66,0,0,0-.8-2.05,3.28,3.28,0,0,0-2.31-.75H90.82Z"/><path d="M108.17,51V35.65h-5.49v-2.5h13.73v2.5h-5.49V51Z"/><path d="M118.91,51V33.15h2.75V51Z"/><path d="M131.46,51.36a8.58,8.58,0,0,1-3.57-.71,5.58,5.58,0,0,1-2.44-2.11,6.23,6.23,0,0,1-.88-3.38v-.63h2.73v.63A3.48,3.48,0,0,0,128.44,48a4.55,4.55,0,0,0,3,.94,4.44,4.44,0,0,0,2.88-.8,2.57,2.57,0,0,0,1-2.08,2,2,0,0,0-.46-1.38,3.15,3.15,0,0,0-1.3-.86,17.79,17.79,0,0,0-2-.6l-.95-.22a15.59,15.59,0,0,1-3-1,4.79,4.79,0,0,1-2-1.6,4.36,4.36,0,0,1-.69-2.55,4.62,4.62,0,0,1,.78-2.7,5.1,5.1,0,0,1,2.15-1.74,7.9,7.9,0,0,1,3.24-.61,8.14,8.14,0,0,1,3.33.64,5.13,5.13,0,0,1,2.31,1.89,5.49,5.49,0,0,1,.85,3.13v.92H134.9v-.92a3.29,3.29,0,0,0-.47-1.86,2.72,2.72,0,0,0-1.31-1,5.18,5.18,0,0,0-2-.34,4.16,4.16,0,0,0-2.53.68,2.2,2.2,0,0,0-.91,1.88,2.09,2.09,0,0,0,.4,1.33,2.78,2.78,0,0,0,1.16.86,10.9,10.9,0,0,0,1.91.59l.94.23a15.39,15.39,0,0,1,3.07,1,5.28,5.28,0,0,1,2.09,1.62A4.25,4.25,0,0,1,138,46a5,5,0,0,1-.8,2.8A5.39,5.39,0,0,1,135,50.69,8.41,8.41,0,0,1,131.46,51.36Z"/><path d="M144.52,51V35.65H139v-2.5h13.72v2.5h-5.48V51Z"/><path d="M155.26,51V33.15H158V51Z"/><path d="M168.38,51.36a6.54,6.54,0,0,1-7.1-7.19V40a7.09,7.09,0,0,1,1.92-5.35,7.14,7.14,0,0,1,5.18-1.85,6.14,6.14,0,0,1,6.71,6.66v.15h-2.73v-.23a4.39,4.39,0,0,0-1-3,3.72,3.72,0,0,0-3-1.14,4.14,4.14,0,0,0-3.19,1.23A4.84,4.84,0,0,0,164,39.93v4.29a4.83,4.83,0,0,0,1.15,3.42,4.12,4.12,0,0,0,3.19,1.25,3.7,3.7,0,0,0,3-1.16,4.4,4.4,0,0,0,1-2.95v-.43h2.73v.35a6.7,6.7,0,0,1-1.75,4.88A6.63,6.63,0,0,1,168.38,51.36Z"/><path d="M186.08,51l-2.63-17.86h2.76l2.14,16h.41l2.76-16h4.82l2.75,16h.41l2.12-16h2.75L201.75,51h-4.83l-2.8-16.23h-.41L190.93,51Z"/><path d="M213.64,51.36a7.26,7.26,0,0,1-5.24-1.85,7,7,0,0,1-1.93-5.34V40a7.05,7.05,0,0,1,1.93-5.35,8.35,8.35,0,0,1,10.48,0,7,7,0,0,1,2,5.35v4.18a7,7,0,0,1-2,5.34A7.28,7.28,0,0,1,213.64,51.36Zm0-2.47a4.2,4.2,0,0,0,3.26-1.24,4.74,4.74,0,0,0,1.15-3.38V39.88a4.76,4.76,0,0,0-1.15-3.38,4.91,4.91,0,0,0-6.5,0,4.69,4.69,0,0,0-1.18,3.38v4.39a4.67,4.67,0,0,0,1.18,3.38A4.23,4.23,0,0,0,213.64,48.89Z"/><path d="M224.09,51V33.15h7.51a7.08,7.08,0,0,1,2.92.57,4.38,4.38,0,0,1,2.66,4.2v.28a4.22,4.22,0,0,1-.8,2.69,4.44,4.44,0,0,1-1.95,1.42v.4a2.28,2.28,0,0,1,1.55.66,2.34,2.34,0,0,1,.59,1.72V51h-2.78V45.47a1.62,1.62,0,0,0-.36-1.1,1.46,1.46,0,0,0-1.15-.4h-5.43v7Zm2.76-9.55h4.44a3.26,3.26,0,0,0,2.29-.75,2.62,2.62,0,0,0,.82-2.05v-.21a2.7,2.7,0,0,0-.8-2.05,3.28,3.28,0,0,0-2.31-.75h-4.44Z"/><path d="M240.22,51V33.15H243v7.42h.41L250,33.15h3.6L245.57,42,253.92,51h-3.7l-6.84-7.58H243V51Z"/><path class="cls-3" d="M88.68,175.1c3.15,2.63,7.06,4.08,10.94,5.49-2-7.48-4.22-14.89-6.64-22.15-1-3.15-2.32-6.46-5-8.4a92.75,92.75,0,0,0-8.36,10.16,42.62,42.62,0,0,0,4,8.86A24.71,24.71,0,0,0,88.68,175.1Z"/><path class="cls-4" d="M196.7,161.82v-2.45h2.39v-13H196.7V144h7.14a7.66,7.66,0,0,1,5.47,1.81q1.91,1.81,1.9,5.46v3.35q0,3.64-1.9,5.44a7.66,7.66,0,0,1-5.47,1.8Zm5.18-2.5h2a4.58,4.58,0,0,0,3.44-1.17,4.87,4.87,0,0,0,1.12-3.5v-3.52a4.8,4.8,0,0,0-1.12-3.49,4.61,4.61,0,0,0-3.44-1.15h-2Z"/><path class="cls-4" d="M214.33,161.82V144h7.5a6.89,6.89,0,0,1,2.92.58,4.36,4.36,0,0,1,2.66,4.19V149a4.25,4.25,0,0,1-.8,2.7,4.34,4.34,0,0,1-2,1.41v.41a2.23,2.23,0,0,1,1.55.65,2.36,2.36,0,0,1,.59,1.72v5.92H224v-5.53a1.6,1.6,0,0,0-.36-1.1,1.46,1.46,0,0,0-1.15-.41h-5.43v7Zm2.75-9.54h4.44a3.28,3.28,0,0,0,2.3-.75,2.67,2.67,0,0,0,.81-2.06v-.2a2.68,2.68,0,0,0-.8-2.05,3.23,3.23,0,0,0-2.31-.76h-4.44Z"/><path class="cls-4" d="M229.12,161.82l5.1-17.86h4.85l5.08,17.86h-2.83l-1.18-4.21h-7L232,161.82Zm4.72-6.76h5.61l-2.6-9.39h-.41Z"/><path class="cls-4" d="M252.57,162.18a7,7,0,0,1-3.42-.83,5.82,5.82,0,0,1-2.37-2.44,8.15,8.15,0,0,1-.87-3.93V150.8a6.53,6.53,0,0,1,7.09-7.19,6.7,6.7,0,0,1,4.95,1.74,6.35,6.35,0,0,1,1.73,4.68v.13H257V150a4.43,4.43,0,0,0-.44-2,3.23,3.23,0,0,0-1.3-1.39,4.34,4.34,0,0,0-2.22-.51,4.13,4.13,0,0,0-3.19,1.24,4.87,4.87,0,0,0-1.15,3.43V155a5,5,0,0,0,1.15,3.43,4.14,4.14,0,0,0,3.22,1.26,3.67,3.67,0,0,0,3-1.12,4.37,4.37,0,0,0,.95-2.91v-.33h-4.8V153h7.52v8.83h-2.55V160h-.41a4,4,0,0,1-.67,1,3.26,3.26,0,0,1-1.28.85A6,6,0,0,1,252.57,162.18Z"/><path class="cls-4" d="M269.74,161.82V144h5.17l3.91,16h.41l3.9-16h5.18v17.86h-2.68V145.9h-.41l-3.88,15.92H276.7l-3.88-15.92h-.41v15.92Z"/><path class="cls-4" d="M292,161.82V144h11.25v2.5h-8.49v5.13h7.78v2.5h-7.78v5.23h8.62v2.5Z"/></svg>