<svg id="Layer_1" data-name="Layer 1" xmlns="http://www.w3.org/2000/svg" viewBox="0 0 459 340"><defs><style>.cls-1{fill:#e9f540;stroke:#000;stroke-miterlimit:10;stroke-width:3px;}.cls-2{fill:#fff;}.cls-3{fill:#f70093;}</style></defs><path class="cls-1" d="M454.27,162a45.67,45.67,0,0,1-4.34,12c-4.45,8.19-12.74,14.85-22.05,15-3.16.05-6.62-.56-9.23,1.21-1.92,1.29-2.88,3.56-3.77,5.69a336.71,336.71,0,0,1-16.71,34.53c-8.21,14.75-20,30.41-36.84,31.46-20.17,1.25-34.37-18.52-45.83-35.16a386.23,386.23,0,0,0-44.41-53.44c-3.88-3.9-10.34-7.79-14.24-3.91-1.84,1.82-2.1,4.64-2.25,7.22a738.07,738.07,0,0,0,2.57,116.21c.87,8.62,1.89,17.4.12,25.87s-6.91,16.78-15,19.92c-10.68,4.17-22.39-1.59-32.56-6.88a533,533,0,0,0-64.37-28.25c-5.11-1.85-10.39-3.65-15.82-3.48-14.68.46-25,14.45-38.42,20.35C75,327.47,54.92,321.52,43,308.51S26.68,276.8,28.44,259.25,37.56,225.13,46.66,210A25.12,25.12,0,0,1,36,187.13c.73-7,4.44-13.7,3.69-20.7-.48-4.42-2.71-8.43-5-12.27a338.22,338.22,0,0,0-22.43-33.37C7.7,114.77,2.69,108.42.76,101S.94,86.18,4.3,79.45c6.86-13.7,19.06-24.07,31.45-32.64a255.71,255.71,0,0,1,158-44.6,330.9,330.9,0,0,1,57.16,8.71c4.32,1,8.7,2.09,13.13,1.88,4.08-.2,8-1.48,12-2.6C313.76-.51,354,4,393,8.6c6.47.76,13.31,1.68,18.38,5.78,7.73,6.25,8.66,17.52,8.57,27.46a371.49,371.49,0,0,1-3.57,48.29l22.39-7.68c3.3-1.13,7.33-2.14,10,.16,1.54,1.34,2.1,3.47,2.55,5.46a212.84,212.84,0,0,1,4.89,59A94.44,94.44,0,0,1,454.27,162Z"/><path d="M69.21,56.92a7,7,0,0,1-3.42-.83,5.93,5.93,0,0,1-2.37-2.44,8.15,8.15,0,0,1-.87-3.93V45.54a6.53,6.53,0,0,1,7.09-7.2,6.68,6.68,0,0,1,5,1.75,6.36,6.36,0,0,1,1.74,4.68v.13H73.6v-.2a4.43,4.43,0,0,0-.44-2,3.23,3.23,0,0,0-1.3-1.39,4.34,4.34,0,0,0-2.22-.51,4.13,4.13,0,0,0-3.19,1.24,4.87,4.87,0,0,0-1.15,3.43v4.28a4.92,4.92,0,0,0,1.15,3.43,4.12,4.12,0,0,0,3.22,1.27,3.7,3.7,0,0,0,3-1.12,4.37,4.37,0,0,0,.95-2.91v-.33H68.8V47.73h7.53v8.83H73.77V54.75h-.4a4.62,4.62,0,0,1-.68,1,3.4,3.4,0,0,1-1.27.85A6.13,6.13,0,0,1,69.21,56.92Z"/><path d="M78.55,56.56l5.1-17.86H88.5l5.07,17.86H90.74l-1.17-4.21h-7L81.4,56.56Zm4.72-6.76h5.61l-2.61-9.39h-.4Z"/><path d="M96,56.56V38.7h5.17l3.91,16h.41l3.9-16h5.18V56.56h-2.68V40.64h-.41L107.6,56.56H103L99.08,40.64h-.41V56.56Z"/><path d="M118.29,56.56V38.7h11.25v2.5h-8.49v5.13h7.78v2.5h-7.78v5.23h8.62v2.5Z"/><path d="M138.4,56.56V54.11h2.39v-13H138.4V38.7h7.14A7.66,7.66,0,0,1,151,40.51q1.91,1.82,1.9,5.46v3.34c0,2.44-.63,4.25-1.9,5.45a7.66,7.66,0,0,1-5.47,1.8Zm5.17-2.5h2A4.59,4.59,0,0,0,149,52.89a4.89,4.89,0,0,0,1.12-3.5V45.87A4.8,4.8,0,0,0,149,42.38a4.62,4.62,0,0,0-3.45-1.15h-2Z"/><path d="M156,56.56V38.7h11.25v2.5h-8.49v5.13h7.78v2.5h-7.78v5.23h8.62v2.5Z"/><path d="M176.36,56.92a8.44,8.44,0,0,1-3.58-.72,5.53,5.53,0,0,1-2.43-2.1,6.19,6.19,0,0,1-.88-3.38v-.64h2.73v.64a3.49,3.49,0,0,0,1.13,2.83,4.59,4.59,0,0,0,3,.94,4.42,4.42,0,0,0,2.88-.8,2.57,2.57,0,0,0,1-2.08,2,2,0,0,0-.46-1.38,3.2,3.2,0,0,0-1.3-.85,17.4,17.4,0,0,0-2-.6l-.94-.23a14.92,14.92,0,0,1-3-1,4.79,4.79,0,0,1-2-1.59,4.41,4.41,0,0,1-.69-2.55,4.7,4.7,0,0,1,.77-2.71A5,5,0,0,1,172.81,39a7.9,7.9,0,0,1,3.24-.62,8.38,8.38,0,0,1,3.33.64,5.27,5.27,0,0,1,2.31,1.89,5.5,5.5,0,0,1,.84,3.14v.92H179.8V44a3.33,3.33,0,0,0-.47-1.86,2.73,2.73,0,0,0-1.31-1,5.42,5.42,0,0,0-2-.33,4.19,4.19,0,0,0-2.54.67,2.22,2.22,0,0,0-.9,1.88,2.19,2.19,0,0,0,.39,1.34,2.83,2.83,0,0,0,1.16.85,10.77,10.77,0,0,0,1.92.59l.94.23a15.08,15.08,0,0,1,3.06,1,5.21,5.21,0,0,1,2.09,1.62,4.28,4.28,0,0,1,.77,2.63,5,5,0,0,1-.8,2.81,5.34,5.34,0,0,1-2.29,1.87A8.36,8.36,0,0,1,176.36,56.92Z"/><path d="M185.82,56.56V38.7h2.76V56.56Z"/><path d="M198.5,56.92a7,7,0,0,1-3.42-.83,5.93,5.93,0,0,1-2.37-2.44,8.15,8.15,0,0,1-.87-3.93V45.54a6.54,6.54,0,0,1,7.09-7.2,6.67,6.67,0,0,1,4.95,1.75,6.36,6.36,0,0,1,1.74,4.68v.13h-2.73v-.2a4.43,4.43,0,0,0-.44-2,3.17,3.17,0,0,0-1.3-1.39,4.29,4.29,0,0,0-2.22-.51,4.09,4.09,0,0,0-3.18,1.24,4.82,4.82,0,0,0-1.15,3.43v4.28a4.87,4.87,0,0,0,1.15,3.43A4.08,4.08,0,0,0,199,54.47a3.69,3.69,0,0,0,3-1.12,4.37,4.37,0,0,0,.95-2.91v-.33h-4.8V47.73h7.53v8.83h-2.55V54.75h-.41a4.29,4.29,0,0,1-.68,1,3.32,3.32,0,0,1-1.27.85A6.13,6.13,0,0,1,198.5,56.92Z"/><path d="M209.16,56.56V38.7h5.31l4.85,16h.41v-16h2.73V56.56h-5.31L212.3,40.51h-.41V56.56Z"/><circle cx="298.27" cy="187.53" r="9.48"/><rect x="297.62" y="186.32" width="1.31" height="68.53"/><path d="M297.11,255.35V185.82h2.31v69.53Zm1-68.53v67.53h.31V186.82Z"/><polygon points="323.07 297.06 323.07 268.42 298.27 254.1 273.46 268.42 273.46 297.06 298.27 311.38 323.07 297.06"/><polygon points="323.07 326 298.27 311.68 273.46 326 273.46 340.32 323.07 340.32 323.07 326"/><circle class="cls-2" cx="372.5" cy="33.5" r="14"/><path d="M372.5,49A15.5,15.5,0,1,1,388,33.5,15.51,15.51,0,0,1,372.5,49Zm0-28A12.5,12.5,0,1,0,385,33.5,12.52,12.52,0,0,0,372.5,21Z"/><path class="cls-3" d="M63.7,288.82v-2.45h2.39v-13H63.7V271h7.14a7.66,7.66,0,0,1,5.47,1.81q1.91,1.82,1.9,5.46v3.35q0,3.65-1.9,5.44a7.66,7.66,0,0,1-5.47,1.8Zm5.18-2.5h2a4.58,4.58,0,0,0,3.44-1.17,4.87,4.87,0,0,0,1.12-3.5v-3.52a4.8,4.8,0,0,0-1.12-3.49,4.61,4.61,0,0,0-3.44-1.15h-2Z"/><path class="cls-3" d="M81.33,288.82V271h7.5a6.89,6.89,0,0,1,2.92.58,4.36,4.36,0,0,1,2.66,4.19V276a4.25,4.25,0,0,1-.8,2.7,4.34,4.34,0,0,1-2,1.41v.41a2.23,2.23,0,0,1,1.55.65,2.36,2.36,0,0,1,.59,1.72v5.92H91v-5.53a1.6,1.6,0,0,0-.36-1.1,1.46,1.46,0,0,0-1.15-.41H84.08v7Zm2.75-9.54h4.44a3.28,3.28,0,0,0,2.3-.75,2.67,2.67,0,0,0,.81-2.06v-.2a2.68,2.68,0,0,0-.8-2,3.23,3.23,0,0,0-2.31-.76H84.08Z"/><path class="cls-3" d="M96.12,288.82l5.1-17.86h4.85l5.08,17.86h-2.83l-1.18-4.21h-7L99,288.82Zm4.72-6.76h5.61l-2.6-9.39h-.41Z"/><path class="cls-3" d="M119.57,289.18a7,7,0,0,1-3.42-.83,5.82,5.82,0,0,1-2.37-2.44,8.15,8.15,0,0,1-.87-3.93V277.8a6.53,6.53,0,0,1,7.09-7.19,6.7,6.7,0,0,1,5,1.74,6.35,6.35,0,0,1,1.73,4.68v.13H124V277a4.43,4.43,0,0,0-.44-2,3.23,3.23,0,0,0-1.3-1.39,4.34,4.34,0,0,0-2.22-.51,4.13,4.13,0,0,0-3.19,1.24,4.87,4.87,0,0,0-1.15,3.43V282a5,5,0,0,0,1.15,3.43,4.14,4.14,0,0,0,3.22,1.26,3.67,3.67,0,0,0,3-1.12,4.37,4.37,0,0,0,.95-2.91v-.33h-4.8V280h7.52v8.83h-2.55V287h-.41a4,4,0,0,1-.67,1,3.26,3.26,0,0,1-1.28.85A6,6,0,0,1,119.57,289.18Z"/><path class="cls-3" d="M136.74,288.82V271h5.17l3.91,16h.41l3.9-16h5.18v17.86h-2.68V272.9h-.41l-3.88,15.92H143.7l-3.88-15.92h-.41v15.92Z"/><path class="cls-3" d="M159,288.82V271h11.25v2.5h-8.49v5.13h7.78v2.5h-7.78v5.23h8.62v2.5Z"/></svg>