<svg id="Layer_1" data-name="Layer 1" xmlns="http://www.w3.org/2000/svg" viewBox="0 0 423 340"><defs><style>.cls-1{fill:#f70093;stroke:#000;stroke-width:2.83px;}.cls-1,.cls-4{stroke-miterlimit:10;}.cls-2{fill:#b200fc;}.cls-3,.cls-4{fill:#e9f540;}.cls-4{stroke:#e9f540;}.cls-5{fill:#abf900;}</style></defs><path class="cls-1" d="M414.46,157.76c-.64,11.7,1,22-6.39,31.43-4,5.11-8.24,10.26-14,13.61-7.44,4.36-16.53,5.18-25.15,6.69-4.58.8-9.1,1.83-13.58,3q-4.14,9.1-7.93,18.33-9.57,23.33-17.11,47.27-3.75,12-7,24.05a41.08,41.08,0,0,1-4.76,11.75q-2.46,2.87-4.9,5.74l-.3.27a33.92,33.92,0,0,1-14.19,7.5c-8.09,2.06-17.68,1.33-24.87-2.78-16-9.13-17.85-25.13-12.56-40.62,4.19-12.29,11.54-23.8,13.32-36.55-.44,3.24-28.37,13-32.42,14.89l-34.46,15.82c-21.69,9.95-44,24.32-67.76,29.67-15.2,3.42-34,.11-41.38-12.38a22.19,22.19,0,0,1-2.95-9.54c-13.75-.29-27.34-3.63-38.36-11.2a37.63,37.63,0,0,1-10.6-10.47c-8.59-13.45-3.89-31.05,4.3-44.72a109.16,109.16,0,0,1,11.9-16.2c-7.82-1.6-14.17,2.72-25.56,2.75-10.31,0-19-3.93-24.23-12.17-5.54-8.81-5.06-20-.77-29.33s12.05-17.11,20.56-23.71a144,144,0,0,1,63.36-27.59,313,313,0,0,0,55.57-15c19.67-7.1,39.52-13.81,59.4-20.45l21.26-7q-19.77-.33-39.57-1.1c-38.71-1.54-77.86-5.85-116.53-1.77A204.73,204.73,0,0,0,51,73.2c-8.17,2.26-16.84.65-24.21-2.86s-12-10.09-14.44-17a19.53,19.53,0,0,1-.55-11.31,19.7,19.7,0,0,1,3.73-10.55c4.1-6.34,11.08-10.9,18.76-13,2.61-.72,5.26-1.39,7.89-2A286.19,286.19,0,0,1,82.36,10.6c11-.93,22.06-1.2,33.09-1.09,22.42.2,44.76,1.91,67.13,3q35,1.62,70.12,1.77Q288,14.38,323.18,13c11.59-.45,23.14-1.09,34.71-1.23,17.67-.21,40.14-2,54.5,9.29,10.58,8.28,13.47,23.78,6.35,34.67-.41.63-.85,1.24-1.33,1.84-4.84,6-12.3,9.81-19.52,13.4-8.74,4.35-18.26,8.29-26.49,13.29,13.66-.86,31.91,9.69,31.91,23.38a27.79,27.79,0,0,1-2.71,15.49C414.11,129.88,415.24,143.41,414.46,157.76Z"/><path d="M49.06,47.34V29.48h7.09a6.43,6.43,0,0,1,2.92.65,5,5,0,0,1,2,1.84,5.37,5.37,0,0,1,.72,2.84v.34A5.27,5.27,0,0,1,61.06,38a4.94,4.94,0,0,1-2,1.84,6.29,6.29,0,0,1-2.88.64H51.81v6.86ZM51.81,38h4.06a3.38,3.38,0,0,0,2.32-.77,2.64,2.64,0,0,0,.87-2.09v-.25a2.67,2.67,0,0,0-.87-2.12A3.38,3.38,0,0,0,55.87,32H51.81Z"/><path d="M71.15,47.7a7.28,7.28,0,0,1-5.23-1.85A7.07,7.07,0,0,1,64,40.5V36.32A7.07,7.07,0,0,1,65.92,31a7.27,7.27,0,0,1,5.23-1.84A7.3,7.3,0,0,1,76.39,31a7,7,0,0,1,2,5.35V40.5a7,7,0,0,1-2,5.35A7.3,7.3,0,0,1,71.15,47.7Zm0-2.48A4.27,4.27,0,0,0,74.42,44a4.82,4.82,0,0,0,1.14-3.38V36.22a4.79,4.79,0,0,0-1.14-3.38,4.89,4.89,0,0,0-6.51,0,4.71,4.71,0,0,0-1.17,3.38v4.39A4.74,4.74,0,0,0,67.91,44,4.26,4.26,0,0,0,71.15,45.22Z"/><path d="M87.68,47.7A8.43,8.43,0,0,1,84.11,47a5.5,5.5,0,0,1-2.44-2.1,6.27,6.27,0,0,1-.88-3.38v-.64h2.73v.64a3.46,3.46,0,0,0,1.14,2.83,4.57,4.57,0,0,0,3,.94,4.43,4.43,0,0,0,2.89-.8,2.59,2.59,0,0,0,1-2.08A2.08,2.08,0,0,0,91.08,41a3.17,3.17,0,0,0-1.31-.85,17.79,17.79,0,0,0-2-.6l-1-.23a14.92,14.92,0,0,1-3-1,4.85,4.85,0,0,1-2-1.59,4.41,4.41,0,0,1-.69-2.55A4.63,4.63,0,0,1,82,31.47a5,5,0,0,1,2.16-1.73,7.84,7.84,0,0,1,3.24-.61,8.38,8.38,0,0,1,3.33.63A5.29,5.29,0,0,1,93,31.65a5.43,5.43,0,0,1,.85,3.14v.92H91.13v-.92a3.25,3.25,0,0,0-.48-1.86,2.68,2.68,0,0,0-1.31-1.05,5.37,5.37,0,0,0-2-.33,4.17,4.17,0,0,0-2.54.67,2.22,2.22,0,0,0-.91,1.88,2.13,2.13,0,0,0,.4,1.34,2.76,2.76,0,0,0,1.16.85,10.11,10.11,0,0,0,1.91.59l.95.23a16.19,16.19,0,0,1,3.06,1,5.28,5.28,0,0,1,2.09,1.62,4.27,4.27,0,0,1,.76,2.63,4.9,4.9,0,0,1-.8,2.81A5.37,5.37,0,0,1,91.18,47,8.37,8.37,0,0,1,87.68,47.7Z"/><path d="M100.75,47.34V32H95.26v-2.5H109V32H103.5V47.34Z"/><path d="M111.49,47.34V29.48h11.25V32h-8.5v5.13H122v2.5h-7.78v5.23h8.62v2.5Z"/><path d="M125.75,47.34V29.48h7.5a6.89,6.89,0,0,1,2.92.58,4.36,4.36,0,0,1,2.66,4.19v.28a4.19,4.19,0,0,1-.8,2.7,4.34,4.34,0,0,1-1.95,1.41v.41a2.23,2.23,0,0,1,1.55.65,2.32,2.32,0,0,1,.59,1.72v5.92h-2.78V41.8a1.59,1.59,0,0,0-.36-1.09,1.45,1.45,0,0,0-1.14-.41H128.5v7Zm2.75-9.54h4.44a3.28,3.28,0,0,0,2.3-.75,2.67,2.67,0,0,0,.81-2.06v-.2a2.68,2.68,0,0,0-.8-2.06,3.28,3.28,0,0,0-2.31-.75H128.5Z"/><path d="M147.71,47.34V44.89h2.4v-13h-2.4V29.48h7.14a7.67,7.67,0,0,1,5.48,1.81,7.24,7.24,0,0,1,1.9,5.46V40.1a7.18,7.18,0,0,1-1.9,5.44,7.67,7.67,0,0,1-5.48,1.8Zm5.18-2.5h2a4.55,4.55,0,0,0,3.44-1.17,4.89,4.89,0,0,0,1.13-3.5V36.65a4.8,4.8,0,0,0-1.13-3.49A4.58,4.58,0,0,0,154.88,32h-2Z"/><path d="M165.34,47.34V29.48h11.25V32h-8.5v5.13h7.79v2.5h-7.79v5.23h8.63v2.5Z"/><path d="M185.67,47.7A8.43,8.43,0,0,1,182.1,47a5.5,5.5,0,0,1-2.44-2.1,6.27,6.27,0,0,1-.88-3.38v-.64h2.73v.64a3.46,3.46,0,0,0,1.14,2.83,4.57,4.57,0,0,0,3,.94,4.43,4.43,0,0,0,2.89-.8,2.59,2.59,0,0,0,1-2.08,2.08,2.08,0,0,0-.45-1.38,3.17,3.17,0,0,0-1.31-.85,17.79,17.79,0,0,0-2-.6l-.95-.23a15.15,15.15,0,0,1-3-1,4.85,4.85,0,0,1-2-1.59,4.41,4.41,0,0,1-.69-2.55,4.63,4.63,0,0,1,.78-2.71,5,5,0,0,1,2.16-1.73,7.9,7.9,0,0,1,3.24-.61,8.38,8.38,0,0,1,3.33.63A5.38,5.38,0,0,1,191,31.65a5.5,5.5,0,0,1,.84,3.14v.92h-2.73v-.92a3.25,3.25,0,0,0-.48-1.86,2.68,2.68,0,0,0-1.31-1.05,5.37,5.37,0,0,0-2-.33,4.17,4.17,0,0,0-2.54.67,2.22,2.22,0,0,0-.91,1.88,2.13,2.13,0,0,0,.4,1.34,2.76,2.76,0,0,0,1.16.85,10.11,10.11,0,0,0,1.91.59l1,.23a16.19,16.19,0,0,1,3.06,1,5.28,5.28,0,0,1,2.09,1.62,4.28,4.28,0,0,1,.77,2.63,4.91,4.91,0,0,1-.81,2.81A5.31,5.31,0,0,1,189.17,47,8.37,8.37,0,0,1,185.67,47.7Z"/><path d="M195.14,47.34V29.48h2.75V47.34Z"/><path d="M207.82,47.7a7,7,0,0,1-3.42-.83A5.82,5.82,0,0,1,202,44.43a8.15,8.15,0,0,1-.87-3.93V36.32A7.14,7.14,0,0,1,203.07,31a7.15,7.15,0,0,1,5.18-1.84,6.7,6.7,0,0,1,4.95,1.74,6.35,6.35,0,0,1,1.73,4.68v.13h-2.72v-.2a4.43,4.43,0,0,0-.44-2,3.23,3.23,0,0,0-1.3-1.39,4.34,4.34,0,0,0-2.22-.51,4.13,4.13,0,0,0-3.19,1.24,4.87,4.87,0,0,0-1.15,3.43v4.28A5,5,0,0,0,205.06,44a4.14,4.14,0,0,0,3.22,1.26,3.7,3.7,0,0,0,3-1.12,4.37,4.37,0,0,0,1-2.91v-.33h-4.8V38.51h7.52v8.83h-2.55V45.53H212a4.22,4.22,0,0,1-.67,1,3.26,3.26,0,0,1-1.28.85A6,6,0,0,1,207.82,47.7Z"/><path d="M218.48,47.34V29.48h5.31l4.84,16H229v-16h2.73V47.34h-5.3l-4.85-16.05h-.41V47.34Z"/><circle class="cls-2" cx="384.5" cy="38.41" r="14"/><path d="M384.5,53.91A15.5,15.5,0,1,1,400,38.41,15.51,15.51,0,0,1,384.5,53.91Zm0-28A12.5,12.5,0,1,0,397,38.41,12.52,12.52,0,0,0,384.5,25.91Z"/><circle class="cls-3" cx="143.77" cy="276.69" r="18.39"/><polygon class="cls-4" points="143.78 302.67 58.96 302.67 58.96 272.3 59.72 272.3 59.72 301.67 143.02 301.67 143.02 287.95 143.78 287.95 143.78 302.67"/><path class="cls-3" d="M59,296.79h0a31.56,31.56,0,0,0-31.55-31.56V265A31.56,31.56,0,0,0,59,233.43h0A31.56,31.56,0,0,0,90.51,265v.24A31.56,31.56,0,0,0,59,296.79Z"/><path class="cls-5" d="M296.2,314.89l-2.28-.88.86-2.24-12.1-4.66-.86,2.24-2.28-.88,2.57-6.67a7.61,7.61,0,0,1,3.65-4.45,7.18,7.18,0,0,1,5.78.19l3.12,1.2q3.4,1.32,4.4,3.73a7.68,7.68,0,0,1-.29,5.76Zm-.47-5.73.72-1.86a4.58,4.58,0,0,0,.14-3.63,4.88,4.88,0,0,0-2.86-2.31l-3.28-1.26a4.82,4.82,0,0,0-3.67-.21,4.62,4.62,0,0,0-2.31,2.8l-.71,1.86Z"/><path class="cls-5" d="M302.54,298.44,285.88,292l2.69-7a7.07,7.07,0,0,1,1.59-2.52,4.52,4.52,0,0,1,2.24-1.24,4.58,4.58,0,0,1,2.63.26l.26.1a4.27,4.27,0,0,1,2.23,1.72,4.36,4.36,0,0,1,.62,2.33l.38.15a2.24,2.24,0,0,1,1.16-1.22,2.37,2.37,0,0,1,1.82.07L307,286.8l-1,2.6-5.17-2a1.6,1.6,0,0,0-1.15-.07,1.49,1.49,0,0,0-.8.93l-2,5.07,6.57,2.53Zm-7.91-6,1.59-4.14a3.27,3.27,0,0,0,.13-2.42,2.73,2.73,0,0,0-1.63-1.5l-.19-.07a2.67,2.67,0,0,0-2.2,0,3.26,3.26,0,0,0-1.53,1.89l-1.6,4.14Z"/><path class="cls-5" d="M307.86,284.63,293,273.45l1.74-4.52,18.49,1.68-1,2.65-4.35-.42-2.51,6.52,3.51,2.61Zm-4.61-6.83,2-5.24-9.7-.94-.15.38Z"/><path class="cls-5" d="M316.62,262.89a7,7,0,0,1-2,2.89,6,6,0,0,1-3.13,1.34,8.18,8.18,0,0,1-4-.61l-3.91-1.5a6.53,6.53,0,0,1-4.16-9.21,6.67,6.67,0,0,1,3.41-4,6.32,6.32,0,0,1,5,.07l.12,0-1,2.55-.19-.07a4.3,4.3,0,0,0-2-.31,3.28,3.28,0,0,0-1.77.72,4.27,4.27,0,0,0-1.27,1.88,4.11,4.11,0,0,0,0,3.42,4.86,4.86,0,0,0,2.78,2.31l4,1.54a4.93,4.93,0,0,0,3.62.16,4.11,4.11,0,0,0,2.33-2.54,3.7,3.7,0,0,0,0-3.19,4.34,4.34,0,0,0-2.38-1.93l-.31-.12-1.72,4.48-2.21-.85,2.7-7,8.24,3.18-.92,2.38-1.69-.65-.15.38a4.31,4.31,0,0,1,.69,1,3.28,3.28,0,0,1,.33,1.49A6.3,6.3,0,0,1,316.62,262.89Z"/><path class="cls-5" d="M322.46,246.74l-16.66-6.42,1.86-4.84L324,237.6l.15-.38-13.54-9.4,1.86-4.83,16.66,6.42-1,2.5-14.86-5.73-.14.38,13.46,9.35L325,240.24l-16.25-2.11-.15.38,14.86,5.73Z"/><path class="cls-5" d="M330.48,225.93l-16.66-6.42,4-10.5,2.34.9-3.06,7.93,4.79,1.84,2.79-7.26,2.34.9-2.8,7.26,4.88,1.88,3.1-8,2.33.89Z"/></svg>