<svg id="Layer_1" data-name="Layer 1" xmlns="http://www.w3.org/2000/svg" viewBox="0 0 250 150"><defs><style>.cls-1{fill:#fff;}.cls-2{fill:#e9f540;}</style></defs><path class="cls-1" d="M23.58,17.09C14.77,19.77,8.21,27.9,6.12,36.87S6,55.43,10.26,63.6C15,72.75,23.2,80.71,33.35,82.49,47.1,84.9,61,75.72,74.68,78.33c3,.57,6,1.8,8,4.16,2.77,3.34,2.8,8.21,1.76,12.42a30.46,30.46,0,0,1-13.07,18.22c-7.13,4.55-15.87,5.93-23.22,10.11-4.69,2.66-9.13,7.65-7.75,12.87,1.35,5.07,7.26,7.23,12.41,8.25,20.89,4.15,45.15,6.07,61.51-9.93,9-8.85,17.43-17.35,27.82-24.7,8.77-6.2,18.56-12.69,29.25-11.67,8.95.85,16.74,7.08,21.34,14.81s7.14,17.7,15.17,21.77c6.83,3.47,15.75.88,20.74-4.93s6.4-14.12,5-21.65A35.1,35.1,0,0,0,208.7,81c-19.51-5.2-41.73,7-59.8-2a6.46,6.46,0,0,1-2.72-2.13c-1.86-3,1.11-6.53,3.86-8.67,12.78-9.89,28.5-18.34,44.4-15.51,6.7,1.2,12.89,4.32,19.36,6.41s13.81,3.07,19.91.07c5.21-2.57,8.8-7.78,10.35-13.38s1.28-11.55.29-17.27c-.58-3.4-1.46-6.85-3.48-9.65a18.68,18.68,0,0,0-9.33-6.33c-11.91-4-24.83-.12-37.2,2.1a137.71,137.71,0,0,1-49.13-.08c-6.38-1.16-12.7-2.79-19.17-3.33-13.08-1.1-26.06,2.24-39,4.46A230.46,230.46,0,0,1,49,19.05c-2.41,0-4.91,0-7-1.13a37.9,37.9,0,0,1-4-2.87C33.32,11.92,23.58,17.09,23.58,17.09Z"/><path d="M23.19,15.65a27.35,27.35,0,0,0-15.48,13C3.9,35.5,3.07,43.5,4.41,51.15,6.88,65.32,17.09,80.44,31.85,83.72c7.85,1.74,15.77-.3,23.41-2.14a70.87,70.87,0,0,1,12-2.15c3.79-.24,8,0,11.4,1.79,7.3,3.85,5,13.59,2,19.54C77,107.66,71.1,112.29,64,115.17s-15.45,4.59-21.09,10.14c-2.46,2.42-4.5,5.77-4.26,9.35a10.33,10.33,0,0,0,4.91,7.86,25.37,25.37,0,0,0,9.2,3.36c3.46.68,6.94,1.28,10.44,1.76a98.79,98.79,0,0,0,21.32.88,54.72,54.72,0,0,0,20-5.3c7-3.54,12.25-9.2,17.84-14.61a177.6,177.6,0,0,1,19.54-16.91c6.56-4.74,13.59-9.7,21.59-11.58a23.67,23.67,0,0,1,20.74,5.11,32.48,32.48,0,0,1,7.05,8.23c1.77,2.92,3.16,6.05,4.67,9.1,2.92,5.89,6.62,11.92,13.14,14.23s14.08.08,19.06-4.48c5.46-5,7.73-12.75,7.44-20a34.67,34.67,0,0,0-7-19.32,37.08,37.08,0,0,0-16.08-12.32c-6.95-2.72-14.61-2.82-21.95-2.18-7.63.67-15.19,2.13-22.85,2.42a44.57,44.57,0,0,1-10.94-.75,30.86,30.86,0,0,1-5.33-1.6c-1.42-.58-3.77-1.37-4.25-3s1-3.43,2-4.54a33.87,33.87,0,0,1,4.52-3.67,96.31,96.31,0,0,1,10.47-6.7c7.08-3.88,14.94-6.77,23.09-6.94,8.71-.19,16.35,3.51,24.39,6.31,7.51,2.63,16.34,4.18,23.62.06,6.7-3.78,10.23-11.21,11.11-18.6a45.66,45.66,0,0,0-.61-13.3c-.69-4-1.83-7.93-4.47-11.08-5.2-6.2-14.4-7.87-22.06-7.73-8.82.15-17.4,2.51-26.05,4a135.36,135.36,0,0,1-27.56,1.92,161.72,161.72,0,0,1-27.28-3.56,103.06,103.06,0,0,0-13.31-2,77.29,77.29,0,0,0-13.77.43c-9.18,1-18.19,3.15-27.31,4.6a227.24,227.24,0,0,1-27.91,2.68c-2.37.08-4.74.13-7.11.13a15.17,15.17,0,0,1-5.88-.73c-1.81-.75-3.09-2.31-4.77-3.27a8.41,8.41,0,0,0-3.84-1c-4-.17-8.19,1.42-11.65,3.25-1.71.9-.2,3.49,1.51,2.59a28.72,28.72,0,0,1,3.91-1.67c2.27-.78,5-1.6,7.4-1,1.49.36,2.59,1.51,3.78,2.4a11.49,11.49,0,0,0,5.31,2.22c4.17.61,8.61.21,12.81,0a232.29,232.29,0,0,0,27.23-2.73c9-1.43,17.92-3.57,27-4.55a76.5,76.5,0,0,1,13.28-.37,100.12,100.12,0,0,1,13.22,2.07,162.49,162.49,0,0,0,26.64,3.5,139.61,139.61,0,0,0,26.94-1.65c8.53-1.34,16.93-3.75,25.58-4.2,7.46-.39,17.09.69,22,7.1,2.5,3.26,3.26,7.61,3.78,11.58a37,37,0,0,1-.27,13c-1.62,7.22-6.49,13.63-14,15.16-8.15,1.66-16.26-2-23.71-4.84a55.23,55.23,0,0,0-12.09-3.36,40.11,40.11,0,0,0-11.68.2c-7.84,1.24-15.26,4.58-22,8.67a107.3,107.3,0,0,0-10,6.92c-2.61,2-5.72,5-5.32,8.66.42,3.8,4.65,5.35,7.77,6.45a38,38,0,0,0,10.35,1.94c14.84.87,29.75-5,44.51-1.8,13.11,2.89,23.92,14.3,25.64,27.71.9,7-.71,14.94-6,20-4.63,4.49-12.22,6.52-18.12,3.37s-8.59-9.73-11.34-15.39c-3.1-6.38-6.85-12.14-12.72-16.32A26.3,26.3,0,0,0,163.72,97c-7.81,1.54-14.73,6.07-21.15,10.57a168.44,168.44,0,0,0-19.22,15.94c-3.08,2.92-6.1,5.9-9.13,8.87a45.46,45.46,0,0,1-8.47,6.74c-11.94,7.14-26.49,7.45-39.93,5.85-3.45-.41-6.88-1-10.3-1.61-3.18-.6-6.44-1.2-9.32-2.75-2.69-1.46-4.9-3.92-4.55-7.19.38-3.48,3.31-6.37,6.09-8.2,6.52-4.28,14.52-5.63,21.43-9.14A32.19,32.19,0,0,0,84,100.73c2.76-6.15,4.49-15-1.06-20.17S68.23,75.94,61.29,77.2C53.58,78.59,46,81.43,38.1,81.4a27.22,27.22,0,0,1-18.93-8.18C8.59,62.9,2.79,44.91,9.79,31.13A24.53,24.53,0,0,1,24,18.54C25.82,18,25,15.07,23.19,15.65Z"/><circle class="cls-2" cx="222" cy="35" r="14"/><path d="M222,50.5A15.5,15.5,0,1,1,237.5,35,15.51,15.51,0,0,1,222,50.5Zm0-28A12.5,12.5,0,1,0,234.5,35,12.52,12.52,0,0,0,222,22.5Z"/><path d="M13.79,44.45,18.9,26.59h4.84l5.08,17.86H26l-1.18-4.21h-7l-1.17,4.21Zm4.72-6.76h5.62L21.52,28.3h-.4Z"/><path d="M31.24,44.45V26.59h7.5a7.09,7.09,0,0,1,2.93.57,4.38,4.38,0,0,1,2.66,4.2v.28a4.22,4.22,0,0,1-.8,2.69,4.37,4.37,0,0,1-2,1.42v.41a2.23,2.23,0,0,1,1.55.65,2.36,2.36,0,0,1,.59,1.72v5.92H40.94V38.91a1.62,1.62,0,0,0-.36-1.1,1.46,1.46,0,0,0-1.15-.4H34v7ZM34,34.91h4.44a3.26,3.26,0,0,0,2.29-.76,2.62,2.62,0,0,0,.82-2v-.2a2.7,2.7,0,0,0-.8-2.06,3.28,3.28,0,0,0-2.31-.75H34Z"/><path d="M51.35,44.45V29.09H45.86v-2.5H59.59v2.5H54.1V44.45Z"/><path d="M62.09,44.45V26.59h2.75V44.45Z"/><path d="M74.64,44.8a8.4,8.4,0,0,1-3.57-.71A5.58,5.58,0,0,1,68.63,42a6.23,6.23,0,0,1-.88-3.38V38h2.73v.63a3.48,3.48,0,0,0,1.14,2.84,4.55,4.55,0,0,0,3,.94,4.44,4.44,0,0,0,2.88-.8,2.57,2.57,0,0,0,1-2.08A2,2,0,0,0,78,38.12a3,3,0,0,0-1.3-.85,14.43,14.43,0,0,0-2-.6l-1-.23a15.59,15.59,0,0,1-3-1,4.79,4.79,0,0,1-2-1.6,4.36,4.36,0,0,1-.69-2.55,4.62,4.62,0,0,1,.78-2.7,5.1,5.1,0,0,1,2.15-1.74,8.07,8.07,0,0,1,3.24-.61,8.21,8.21,0,0,1,3.33.64A5.13,5.13,0,0,1,80,28.76a5.5,5.5,0,0,1,.84,3.14v.91H78.08V31.9A3.3,3.3,0,0,0,77.61,30a2.72,2.72,0,0,0-1.31-1,5.38,5.38,0,0,0-2-.34,4.14,4.14,0,0,0-2.53.68,2.43,2.43,0,0,0-.52,3.22,2.89,2.89,0,0,0,1.17.85,10.64,10.64,0,0,0,1.91.59l.94.23a15.08,15.08,0,0,1,3.06,1,5.25,5.25,0,0,1,2.1,1.62,4.27,4.27,0,0,1,.76,2.63,5,5,0,0,1-.8,2.8,5.39,5.39,0,0,1-2.28,1.88A8.41,8.41,0,0,1,74.64,44.8Z"/><path d="M87.7,44.45V29.09H82.22v-2.5H95.94v2.5H90.46V44.45Z"/><path d="M98.44,44.45V26.59h2.76V44.45Z"/><path d="M111.55,44.8a6.54,6.54,0,0,1-7.09-7.19V33.43a7.09,7.09,0,0,1,1.92-5.35,7.13,7.13,0,0,1,5.17-1.85,6.65,6.65,0,0,1,5,1.79,6.67,6.67,0,0,1,1.74,4.87V33h-2.72v-.23a4.39,4.39,0,0,0-1-3,3.73,3.73,0,0,0-3-1.14,4.12,4.12,0,0,0-3.18,1.23,4.84,4.84,0,0,0-1.15,3.43v4.29a4.83,4.83,0,0,0,1.15,3.42,4.1,4.1,0,0,0,3.18,1.25,3.71,3.71,0,0,0,3-1.16,4.38,4.38,0,0,0,1-3v-.43h2.72v.36a6.11,6.11,0,0,1-6.71,6.65Z"/><path d="M129.26,44.45l-2.63-17.86h2.76l2.14,16h.41l2.75-16h4.83l2.75,16h.41l2.12-16h2.75l-2.63,17.86H140.1l-2.8-16.23h-.41l-2.78,16.23Z"/><path d="M156.81,44.8A7.25,7.25,0,0,1,151.58,43a7,7,0,0,1-1.94-5.34V33.43a7.06,7.06,0,0,1,1.94-5.35,8.35,8.35,0,0,1,10.48,0A7,7,0,0,1,164,33.43v4.18A7,7,0,0,1,162.06,43,7.29,7.29,0,0,1,156.81,44.8Zm0-2.47a4.24,4.24,0,0,0,3.27-1.24,4.79,4.79,0,0,0,1.15-3.38V33.32a4.82,4.82,0,0,0-1.15-3.38,4.92,4.92,0,0,0-6.51,0,4.74,4.74,0,0,0-1.17,3.38v4.39a4.71,4.71,0,0,0,1.17,3.38A4.26,4.26,0,0,0,156.81,42.33Z"/><path d="M167.27,44.45V26.59h7.5a7,7,0,0,1,2.92.57,4.37,4.37,0,0,1,2.67,4.2v.28a4.22,4.22,0,0,1-.8,2.69,4.34,4.34,0,0,1-2,1.42v.41a2.24,2.24,0,0,1,1.56.65,2.36,2.36,0,0,1,.59,1.72v5.92H177V38.91a1.62,1.62,0,0,0-.36-1.1,1.46,1.46,0,0,0-1.15-.4H170v7ZM170,34.91h4.44a3.26,3.26,0,0,0,2.29-.76,2.62,2.62,0,0,0,.82-2v-.2a2.7,2.7,0,0,0-.8-2.06,3.28,3.28,0,0,0-2.31-.75H170Z"/><path d="M183.4,44.45V26.59h2.75V34h.41l6.66-7.42h3.59l-8.06,8.8,8.35,9.06h-3.7l-6.84-7.58h-.41v7.58Z"/></svg>