<svg id="Layer_1" data-name="Layer 1" xmlns="http://www.w3.org/2000/svg" viewBox="0 0 250 150"><defs><style>.cls-1{fill:#b200fc;}.cls-2,.cls-3{fill:#e9f540;}.cls-3{stroke:#e9f540;stroke-miterlimit:10;}</style></defs><path class="cls-1" d="M1.74,82c-.65,3.48-.18,8.32,3.32,8.85,1.94.28,3.72-1.1,5-2.57C17.36,80,17.21,67.8,20.84,57.39c.79-2.25,1.84-4.55,3.77-6s4.95-1.58,6.53.22a6.67,6.67,0,0,1,1.3,3c4.63,20.59-13.15,41.8-7.17,62,1.31,4.44,5.87,9.22,9.86,6.86a7.12,7.12,0,0,0,2.7-3.53c4.31-10.28-1.7-22.87,3.11-32.92,3,5,3.15,11.27,2.8,17.14s-1.07,11.89.58,17.54,6.47,10.89,12.36,10.85a6.51,6.51,0,0,0,5.13-2.17c3-3.82-1.06-9.6.56-14.17a6.24,6.24,0,0,1,8.46-3.26c5.53,3,3.26,11.42,5.48,17.29a11.28,11.28,0,0,0,13,6.69c5.71-1.49,10.94-7.54,16.34-5.14a31.7,31.7,0,0,1,3,1.89c4.64,2.75,10.55,1.26,15.88,2.12,3.65.58,7,2.28,10.4,3.77a104.66,104.66,0,0,0,61.25,7.06c7.15-1.35,14.36-3.56,20-8.16,5.18-4.23,8.65-10.18,11.53-16.22,2.6-5.44,4.86-11.32,4.4-17.34-.37-5-2.59-9.72-2.48-14.69.13-6.08,3.64-11.47,6.56-16.8a100.38,100.38,0,0,0,12.23-43.28c.22-4.62.1-9.37-1.63-13.65C243.4,8.38,234.61,3.47,225.84,2.05s-17.71,0-26.54,1c-37.51,4.05-75.54-.63-113.07,3.25C79,7,71.67,8.1,65.05,11.1S52.49,19.26,50,26.08c-1.07,2.92-1.51,6.11-3.11,8.79s-4.71,3.77-7.82,3.49C19,36.51,5.39,62.59,1.74,82Z"/><path d="M.3,81.65a12.89,12.89,0,0,0,.58,7.6A5.19,5.19,0,0,0,7.33,92.1c2.88-1,5-3.88,6.46-6.35a36.17,36.17,0,0,0,3.64-8.57c1.78-6,2.56-12.32,4.49-18.31.84-2.63,2.08-6.29,5.18-6.95,3.43-.73,3.95,2.84,4.31,5.36C33.23,69.81,27.48,82.07,24.5,94,23,99.84,22,106,22.79,112a20.52,20.52,0,0,0,2.72,8.74C27,123,29.21,125.18,32,125.6c7.92,1.19,9-10.58,9-15.89-.07-7.17-1.9-15,1.25-21.84H39.65c6.27,10.69-.39,23.71,3.44,35,1.57,4.61,4.94,8.85,9.64,10.58,4.48,1.64,10.65.25,11.57-5.05.41-2.36-.21-4.72-.6-7-.34-2.09-.57-4.59,1.16-6.16a4.73,4.73,0,0,1,5.48-.72c1.65,1,2.33,2.78,2.71,4.56.92,4.31.34,8.93,2.38,13a12.92,12.92,0,0,0,11.49,6.81c5.12-.09,8.82-3.8,13.4-5.46a6.21,6.21,0,0,1,6.22.81,15.9,15.9,0,0,0,7.74,2.73c2.72.26,5.47.05,8.2.24a26.5,26.5,0,0,1,8.82,2.53,126.52,126.52,0,0,0,17,6.36,106.61,106.61,0,0,0,36,3.7c11.29-.79,23.93-2.77,32.93-10.12,4.34-3.55,7.52-8.31,10.11-13.21,2.79-5.29,5.38-10.94,6.13-16.92a26.71,26.71,0,0,0-.63-9.21,53.35,53.35,0,0,1-1.7-8.65c-.33-6,2.91-11.22,5.71-16.25a102.58,102.58,0,0,0,11.91-34.14c.93-5.93,1.66-12.17,1-18.17a22.76,22.76,0,0,0-6.58-14.3C234.88.62,222.72-.62,211.63.23c-6.65.51-13.24,1.48-19.89,2s-13.35.81-20,1c-26.86.58-53.78-1.13-80.59,1.13-11.75,1-24.34,2.32-33.91,9.82a26.21,26.21,0,0,0-8.94,12.35c-.86,2.62-1.26,5.64-2.88,7.94s-4.14,2.6-6.63,2.42C20.47,35.54,9,54.78,3.66,69.46A79.46,79.46,0,0,0,.3,81.65c-.35,1.86,2.53,2.66,2.88.79a76.82,76.82,0,0,1,9-24.25c4-6.87,9.54-13.78,17.14-16.89a20.85,20.85,0,0,1,5.38-1.42c2.09-.25,4.17.14,6.25,0a9.35,9.35,0,0,0,6.5-3.17c1.76-2.14,2.45-5,3.19-7.56a24.23,24.23,0,0,1,8.27-12.52,37.56,37.56,0,0,1,15-6.88A117.83,117.83,0,0,1,92.33,7.18c6.5-.52,13-.81,19.55-1,13.08-.31,26.16-.06,39.23,0s26.14,0,39.17-.94c6.49-.48,12.93-1.36,19.41-2,6.18-.57,12.56-.81,18.63.72a27.75,27.75,0,0,1,12.76,6.8c4,3.91,5.64,9,5.86,14.44.46,11.75-2.18,23.93-6.29,34.9A119,119,0,0,1,233,76.14c-2.73,4.91-5.28,10.18-4.84,15.94.45,5.94,3.12,11.41,2.29,17.47-.79,5.8-3.5,11.37-6.29,16.46-2.63,4.78-5.89,9.38-10.43,12.56s-10,5-15.49,6.24A100.94,100.94,0,0,1,163,146.09a104.36,104.36,0,0,1-17.3-3.91q-4.26-1.35-8.39-3.07c-2.71-1.14-5.35-2.47-8.12-3.48a26,26,0,0,0-8.33-1.5c-2.69-.07-5.47.14-8.12-.4a10.62,10.62,0,0,1-3.5-1.33,21.13,21.13,0,0,0-3.53-2.06,9.14,9.14,0,0,0-6.47.3c-4.25,1.65-8.16,5.46-13,5.23a9.88,9.88,0,0,1-9.1-8c-.87-4.06-.34-8.45-2.09-12.3a7.63,7.63,0,0,0-10.35-3.81,7.29,7.29,0,0,0-4,4.8c-.56,2.31-.08,4.7.33,7,.36,2,.91,4.48-.54,6.15s-4.45,1.7-6.52,1.06c-4.66-1.46-7.57-6.21-8.6-10.7-1.37-6-.24-12.22-.06-18.27.15-5.3-.38-10.75-3.12-15.42a1.51,1.51,0,0,0-2.58,0c-2.7,5.8-2.26,12.12-1.87,18.33a54.73,54.73,0,0,1,0,9.32c-.28,2.58-1,6.8-3.43,8.27s-4.83-1-6.08-2.74a17.39,17.39,0,0,1-2.6-8.28c-.61-5.82.42-11.63,1.87-17.26,2.94-11.41,8-22.91,7-34.92-.21-2.66-.45-6-2.17-8.2S27.49,48.42,25,49.52c-2.73,1.21-4.26,3.94-5.28,6.59a60.6,60.6,0,0,0-2.46,8.66c-1.45,6.48-2.44,13.35-5.87,19.17-1.09,1.86-4.1,6.84-6.85,5.23-2-1.17-1.7-4.86-1.37-6.73S.63,79.77.3,81.65Z"/><path class="cls-2" d="M224.5,38.12A15.5,15.5,0,1,1,240,22.62,15.51,15.51,0,0,1,224.5,38.12Zm0-28A12.5,12.5,0,1,0,237,22.62,12.52,12.52,0,0,0,224.5,10.12Z"/><path d="M58.86,57.43a7,7,0,0,1-3.42-.83,5.93,5.93,0,0,1-2.37-2.44,8.15,8.15,0,0,1-.87-3.93V46.05a6.53,6.53,0,0,1,7.09-7.19,6.66,6.66,0,0,1,4.95,1.74A6.36,6.36,0,0,1,66,45.29v.12H63.25v-.2a4.43,4.43,0,0,0-.44-2,3.28,3.28,0,0,0-1.3-1.39,4.34,4.34,0,0,0-2.22-.51,4.13,4.13,0,0,0-3.19,1.24A4.87,4.87,0,0,0,55,46v4.29a4.93,4.93,0,0,0,1.14,3.43A4.14,4.14,0,0,0,59.32,55a3.66,3.66,0,0,0,3-1.12,4.37,4.37,0,0,0,1-2.91v-.33h-4.8V48.24H66v8.83H63.43V55.26H63a4.33,4.33,0,0,1-.68,1,3.28,3.28,0,0,1-1.27.84A6.13,6.13,0,0,1,58.86,57.43Z"/><path d="M68.2,57.07l5.1-17.86h4.85l5.07,17.86H80.39l-1.17-4.21h-7l-1.18,4.21Zm4.72-6.76h5.61l-2.6-9.39h-.41Z"/><path d="M85.65,57.07V39.21h5.18l3.9,16h.41l3.9-16h5.18V57.07h-2.68V41.15h-.41L97.26,57.07H92.61L88.73,41.15h-.4V57.07Z"/><path d="M107.94,57.07V39.21H119.2v2.5h-8.5v5.13h7.78v2.5H110.7v5.23h8.62v2.5Z"/><path d="M128.05,57.07V54.62h2.39v-13h-2.39V39.21h7.14A7.65,7.65,0,0,1,140.66,41q1.91,1.81,1.9,5.46v3.35q0,3.64-1.9,5.44a7.64,7.64,0,0,1-5.47,1.8Zm5.18-2.5h2a4.58,4.58,0,0,0,3.44-1.17,4.87,4.87,0,0,0,1.12-3.5V46.38a4.8,4.8,0,0,0-1.12-3.49,4.61,4.61,0,0,0-3.44-1.15h-2Z"/><path d="M145.68,57.07V39.21h11.25v2.5h-8.5v5.13h7.78v2.5h-7.78v5.23h8.62v2.5Z"/><path d="M166,57.43a8.4,8.4,0,0,1-3.57-.72,5.5,5.5,0,0,1-2.44-2.1,6.16,6.16,0,0,1-.88-3.38v-.64h2.73v.64A3.46,3.46,0,0,0,163,54.06a4.55,4.55,0,0,0,3,.95,4.4,4.4,0,0,0,2.88-.81,2.56,2.56,0,0,0,1-2.08,2,2,0,0,0-.46-1.38,3.13,3.13,0,0,0-1.3-.85,17.79,17.79,0,0,0-2-.6l-1-.23a14.92,14.92,0,0,1-3-1,4.85,4.85,0,0,1-1.95-1.59,4.36,4.36,0,0,1-.69-2.55,4.63,4.63,0,0,1,.78-2.71,5.09,5.09,0,0,1,2.15-1.73,7.9,7.9,0,0,1,3.24-.61,8.38,8.38,0,0,1,3.33.63,5.27,5.27,0,0,1,2.31,1.89,5.53,5.53,0,0,1,.84,3.14v.92h-2.73v-.92a3.25,3.25,0,0,0-.47-1.86,2.68,2.68,0,0,0-1.31-1,5.38,5.38,0,0,0-2-.33,4.19,4.19,0,0,0-2.54.68,2.2,2.2,0,0,0-.9,1.87,2.17,2.17,0,0,0,.39,1.34,2.94,2.94,0,0,0,1.16.86,10.84,10.84,0,0,0,1.92.58l.94.23a15.73,15.73,0,0,1,3.06,1,5.32,5.32,0,0,1,2.1,1.62,4.27,4.27,0,0,1,.76,2.63,5,5,0,0,1-.8,2.81,5.34,5.34,0,0,1-2.29,1.87A8.32,8.32,0,0,1,166,57.43Z"/><path d="M175.47,57.07V39.21h2.76V57.07Z"/><path d="M188.15,57.43a7,7,0,0,1-3.42-.83,5.93,5.93,0,0,1-2.37-2.44,8.15,8.15,0,0,1-.87-3.93V46.05a6.54,6.54,0,0,1,7.1-7.19,6.7,6.7,0,0,1,4.95,1.74,6.4,6.4,0,0,1,1.73,4.69v.12h-2.73v-.2a4.43,4.43,0,0,0-.43-2,3.35,3.35,0,0,0-1.3-1.39,4.34,4.34,0,0,0-2.22-.51,4.11,4.11,0,0,0-3.19,1.24A4.82,4.82,0,0,0,184.25,46v4.29a4.89,4.89,0,0,0,1.15,3.43A4.11,4.11,0,0,0,188.61,55a3.69,3.69,0,0,0,3-1.12,4.37,4.37,0,0,0,.94-2.91v-.33h-4.8V48.24h7.53v8.83h-2.55V55.26h-.41a4.6,4.6,0,0,1-.67,1,3.32,3.32,0,0,1-1.28.84A6.09,6.09,0,0,1,188.15,57.43Z"/><path d="M198.82,57.07V39.21h5.3l4.85,16h.41v-16h2.73V57.07H206.8L202,41h-.4v16Z"/><circle class="cls-2" cx="59.52" cy="93.12" r="9.48"/><rect class="cls-3" x="58.32" y="92.47" width="68.53" height="1.31"/><polygon class="cls-2" points="169.06 68.32 140.42 68.32 126.09 93.12 140.42 117.93 169.06 117.93 183.38 93.12 169.06 68.32"/><polygon class="cls-2" points="198 68.32 183.67 93.12 198 117.93 212.32 117.93 212.32 68.32 198 68.32"/></svg>