<svg id="Layer_1" data-name="Layer 1" xmlns="http://www.w3.org/2000/svg" viewBox="0 0 250 150"><defs><style>.cls-1{fill:#fff;}.cls-2{fill:#e9f540;}</style></defs><path class="cls-1" d="M20.36,8.32C11.29,11.21,4.53,20,2.38,29.6s-.11,20,4.26,28.76C11.53,68.2,20,76.78,30.41,78.69,44.56,81.28,58.84,71.41,73,74.21c3.1.62,6.21,1.94,8.21,4.47C84,82.28,84,87.52,83,92.05a32.75,32.75,0,0,1-13.45,19.61c-7.34,4.89-16.34,6.37-23.91,10.87-4.83,2.87-9.39,8.23-8,13.85,1.38,5.45,7.47,7.78,12.77,8.88,21.51,4.47,46.48,6.53,63.32-10.69,9.31-9.52,17.94-18.67,28.64-26.57,9-6.67,19.11-13.66,30.12-12.56,9.2.91,17.23,7.62,22,15.93s7.35,19,15.62,23.43c7,3.73,16.21.94,21.35-5.31s6.59-15.18,5.18-23.29c-2.38-13.7-12.8-25.51-25.67-29.1-20.09-5.59-43,7.59-61.57-2.1a6.7,6.7,0,0,1-2.8-2.3c-1.91-3.17,1.14-7,4-9.32,13.15-10.64,29.33-19.74,45.71-16.69,6.89,1.28,13.26,4.64,19.93,6.89s14.2,3.31,20.49.08c5.37-2.76,9.05-8.37,10.65-14.39s1.32-12.43.3-18.59C247,17,246.12,13.31,244,10.3a19.17,19.17,0,0,0-9.6-6.81c-12.27-4.33-25.56-.13-38.3,2.26a135.91,135.91,0,0,1-50.58-.08c-6.57-1.26-13.08-3-19.73-3.59C112.36.89,99,4.49,85.69,6.87a227.26,227.26,0,0,1-39.21,3.56c-2.47,0-5,0-7.25-1.22a38.27,38.27,0,0,1-4.16-3.09C30.38,2.75,20.36,8.32,20.36,8.32Z"/><path d="M20,6.77A28.5,28.5,0,0,0,4,20.75C.09,28.13-.76,36.73.61,45,3.15,60.22,13.67,76.48,28.86,80c8.08,1.87,16.24-.33,24.1-2.3A69.55,69.55,0,0,1,65.32,75.4c3.9-.26,8.21,0,11.73,1.92,7.52,4.14,5.2,14.62,2,21-3.69,7.42-9.8,12.4-17.13,15.49s-15.91,5-21.71,10.92c-2.54,2.61-4.63,6.21-4.38,10.06a11.16,11.16,0,0,0,5,8.46,25.37,25.37,0,0,0,9.47,3.61q5.35,1.11,10.75,1.9a97.09,97.09,0,0,0,21.94.94,54.25,54.25,0,0,0,20.63-5.7c7.25-3.81,12.62-9.9,18.37-15.72a186,186,0,0,1,20.12-18.19c6.75-5.1,14-10.45,22.22-12.46a23.59,23.59,0,0,1,21.36,5.49A34.92,34.92,0,0,1,193,112c1.82,3.14,3.25,6.51,4.81,9.79,3,6.34,6.81,12.82,13.52,15.31s14.49.09,19.63-4.81c5.62-5.37,8-13.73,7.66-21.5a39.05,39.05,0,0,0-23.78-34c-7.16-2.93-15-3-22.61-2.35-7.85.72-15.63,2.3-23.52,2.61a43.9,43.9,0,0,1-11.26-.81A31.1,31.1,0,0,1,152,74.48c-1.47-.63-3.89-1.48-4.38-3.25s1-3.7,2.09-4.89a35,35,0,0,1,4.65-3.94,98.6,98.6,0,0,1,10.77-7.21c7.29-4.18,15.38-7.28,23.77-7.47,9-.2,16.84,3.77,25.11,6.8,7.73,2.82,16.82,4.49,24.32,0,6.89-4.07,10.53-12.06,11.44-20a51.64,51.64,0,0,0-.64-14.31c-.71-4.28-1.88-8.54-4.6-11.92C239.16,1.66,229.69-.13,221.81,0c-9.08.16-17.92,2.7-26.82,4.32a133.72,133.72,0,0,1-28.38,2.06,159.27,159.27,0,0,1-28.07-3.83A101.07,101.07,0,0,0,124.83.38a76.29,76.29,0,0,0-14.17.46c-9.46,1.1-18.74,3.39-28.12,5A223.49,223.49,0,0,1,53.81,8.67q-3.66.13-7.33.15a15.16,15.16,0,0,1-6-.8c-1.86-.8-3.18-2.47-4.9-3.51a8.34,8.34,0,0,0-4-1.08c-4.08-.18-8.43,1.53-12,3.5-1.76,1-.2,3.76,1.56,2.79a26.81,26.81,0,0,1,4-1.8c2.33-.84,5.14-1.72,7.62-1.09,1.53.38,2.66,1.62,3.89,2.58a11.65,11.65,0,0,0,5.46,2.38c4.3.66,8.87.23,13.19.05a229.58,229.58,0,0,0,28-2.94C92.63,7.36,101.8,5.06,111.15,4a75.36,75.36,0,0,1,13.68-.4,99.35,99.35,0,0,1,13.6,2.22A160.9,160.9,0,0,0,165.86,9.6,138.58,138.58,0,0,0,193.6,7.83c8.78-1.45,17.43-4,26.33-4.53,7.68-.41,17.6.75,22.65,7.64,2.57,3.51,3.35,8.19,3.89,12.46a41.73,41.73,0,0,1-.28,14c-1.67,7.77-6.68,14.67-14.42,16.31-8.39,1.79-16.74-2.18-24.41-5.2a54.37,54.37,0,0,0-12.44-3.62,39.46,39.46,0,0,0-12,.22c-8.07,1.33-15.71,4.92-22.65,9.32a113,113,0,0,0-10.3,7.44c-2.69,2.16-5.89,5.43-5.48,9.32.43,4.1,4.79,5.76,8,6.94a37.35,37.35,0,0,0,10.65,2.1c15.28.93,30.63-5.43,45.83-1.94,13.49,3.1,24.62,15.39,26.39,29.81.92,7.58-.74,16.07-6.14,21.55-4.77,4.82-12.58,7-18.66,3.61s-8.84-10.46-11.67-16.55c-3.19-6.86-7.06-13.07-13.09-17.56a26.15,26.15,0,0,0-21.15-4.81c-8.05,1.66-15.16,6.53-21.78,11.37a174.88,174.88,0,0,0-19.78,17.16c-3.17,3.14-6.28,6.35-9.4,9.54a47.39,47.39,0,0,1-8.71,7.25c-12.3,7.68-27.28,8-41.12,6.29-3.55-.44-7.08-1-10.6-1.73-3.27-.64-6.63-1.29-9.59-3-2.78-1.57-5-4.21-4.69-7.73.39-3.75,3.41-6.86,6.27-8.83,6.71-4.6,15-6.06,22.06-9.83A34,34,0,0,0,82.51,98.31c2.84-6.61,4.62-16.1-1.09-21.7s-15.11-5-22.25-3.62c-7.94,1.5-15.72,4.55-23.87,4.52-7.46,0-14.19-3.41-19.49-8.8C4.92,57.61-1,38.25,6.15,23.42c3-6.25,8.14-11.42,14.62-13.54C22.66,9.26,21.85,6.14,20,6.77Z"/><circle class="cls-2" cx="224" cy="28" r="14"/><path d="M224,43.5A15.5,15.5,0,1,1,239.5,28,15.51,15.51,0,0,1,224,43.5Zm0-28A12.5,12.5,0,1,0,236.5,28,12.52,12.52,0,0,0,224,15.5Z"/><path d="M13.79,35.45,18.9,17.59h4.84l5.08,17.86H26l-1.18-4.21h-7l-1.17,4.21Zm4.72-6.76h5.62L21.52,19.3h-.4Z"/><path d="M31.24,35.45V17.59h7.5a7.09,7.09,0,0,1,2.93.57,4.38,4.38,0,0,1,2.66,4.2v.28a4.22,4.22,0,0,1-.8,2.69,4.37,4.37,0,0,1-2,1.42v.41a2.23,2.23,0,0,1,1.55.65,2.36,2.36,0,0,1,.59,1.72v5.92H40.94V29.91a1.62,1.62,0,0,0-.36-1.1,1.46,1.46,0,0,0-1.15-.4H34v7ZM34,25.91h4.44a3.26,3.26,0,0,0,2.29-.76,2.62,2.62,0,0,0,.82-2v-.2a2.7,2.7,0,0,0-.8-2.06,3.28,3.28,0,0,0-2.31-.75H34Z"/><path d="M51.35,35.45V20.09H45.86v-2.5H59.59v2.5H54.1V35.45Z"/><path d="M62.09,35.45V17.59h2.75V35.45Z"/><path d="M74.64,35.8a8.4,8.4,0,0,1-3.57-.71A5.58,5.58,0,0,1,68.63,33a6.23,6.23,0,0,1-.88-3.38V29h2.73v.63a3.48,3.48,0,0,0,1.14,2.84,4.55,4.55,0,0,0,3,.94,4.44,4.44,0,0,0,2.88-.8,2.57,2.57,0,0,0,1-2.08A2,2,0,0,0,78,29.12a3,3,0,0,0-1.3-.85,14.43,14.43,0,0,0-2-.6l-1-.23a15.59,15.59,0,0,1-3-1,4.79,4.79,0,0,1-2-1.6,4.36,4.36,0,0,1-.69-2.55,4.62,4.62,0,0,1,.78-2.7,5.1,5.1,0,0,1,2.15-1.74,8.07,8.07,0,0,1,3.24-.61,8.21,8.21,0,0,1,3.33.64A5.13,5.13,0,0,1,80,19.76a5.5,5.5,0,0,1,.84,3.14v.91H78.08V22.9A3.3,3.3,0,0,0,77.61,21a2.72,2.72,0,0,0-1.31-1,5.38,5.38,0,0,0-2-.34,4.14,4.14,0,0,0-2.53.68,2.43,2.43,0,0,0-.52,3.22,2.89,2.89,0,0,0,1.17.85,10.64,10.64,0,0,0,1.91.59l.94.23a15.08,15.08,0,0,1,3.06,1,5.25,5.25,0,0,1,2.1,1.62,4.27,4.27,0,0,1,.76,2.63,5,5,0,0,1-.8,2.8,5.39,5.39,0,0,1-2.28,1.88A8.41,8.41,0,0,1,74.64,35.8Z"/><path d="M87.7,35.45V20.09H82.22v-2.5H95.94v2.5H90.46V35.45Z"/><path d="M98.44,35.45V17.59h2.76V35.45Z"/><path d="M111.55,35.8A7.09,7.09,0,0,1,106.38,34a7.06,7.06,0,0,1-1.92-5.34V24.43a7.09,7.09,0,0,1,1.92-5.35,7.13,7.13,0,0,1,5.17-1.85,6.65,6.65,0,0,1,5,1.79,6.67,6.67,0,0,1,1.74,4.87V24h-2.72v-.23a4.39,4.39,0,0,0-1-3,3.73,3.73,0,0,0-3-1.14,4.12,4.12,0,0,0-3.18,1.23,4.84,4.84,0,0,0-1.15,3.43v4.29a4.83,4.83,0,0,0,1.15,3.42,4.1,4.1,0,0,0,3.18,1.25,3.71,3.71,0,0,0,3-1.16,4.38,4.38,0,0,0,1-3v-.43h2.72v.36A6.69,6.69,0,0,1,116.52,34,6.64,6.64,0,0,1,111.55,35.8Z"/><path d="M129.26,35.45l-2.63-17.86h2.76l2.14,16h.41l2.75-16h4.83l2.75,16h.41l2.12-16h2.75l-2.63,17.86H140.1l-2.8-16.23h-.41l-2.78,16.23Z"/><path d="M156.81,35.8A7.25,7.25,0,0,1,151.58,34a7,7,0,0,1-1.94-5.34V24.43a7.06,7.06,0,0,1,1.94-5.35,8.35,8.35,0,0,1,10.48,0A7,7,0,0,1,164,24.43v4.18A7,7,0,0,1,162.06,34,7.29,7.29,0,0,1,156.81,35.8Zm0-2.47a4.24,4.24,0,0,0,3.27-1.24,4.79,4.79,0,0,0,1.15-3.38V24.32a4.82,4.82,0,0,0-1.15-3.38,4.92,4.92,0,0,0-6.51,0,4.74,4.74,0,0,0-1.17,3.38v4.39a4.71,4.71,0,0,0,1.17,3.38A4.26,4.26,0,0,0,156.81,33.33Z"/><path d="M167.27,35.45V17.59h7.5a7,7,0,0,1,2.92.57,4.37,4.37,0,0,1,2.67,4.2v.28a4.22,4.22,0,0,1-.8,2.69,4.34,4.34,0,0,1-2,1.42v.41a2.24,2.24,0,0,1,1.56.65,2.36,2.36,0,0,1,.59,1.72v5.92H177V29.91a1.62,1.62,0,0,0-.36-1.1,1.46,1.46,0,0,0-1.15-.4H170v7ZM170,25.91h4.44a3.26,3.26,0,0,0,2.29-.76,2.62,2.62,0,0,0,.82-2v-.2a2.7,2.7,0,0,0-.8-2.06,3.28,3.28,0,0,0-2.31-.75H170Z"/><path d="M183.4,35.45V17.59h2.75V25h.41l6.66-7.42h3.59l-8.06,8.8,8.35,9.06h-3.7l-6.84-7.58h-.41v7.58Z"/></svg>