<svg id="Layer_1" data-name="Layer 1" xmlns="http://www.w3.org/2000/svg" viewBox="0 0 250 150"><defs><style>.cls-1{fill:#fff;}</style></defs><rect class="cls-1" x="233.48" y="63.47" width="247.04" height="147.06"/><path d="M482,212H232V62H482Zm-247-2.94H479V64.94H235Z"/><rect class="cls-1" x="1.48" y="1.45" width="247.04" height="42.35"/><path d="M250,45.25H0V0H250ZM3,42.35H247V2.9H3Z"/><circle class="cls-1" cx="224.5" cy="22.63" r="14"/><path d="M224.5,38.12A15.5,15.5,0,1,1,240,22.62,15.51,15.51,0,0,1,224.5,38.12Zm0-28A12.5,12.5,0,1,0,237,22.62,12.52,12.52,0,0,0,224.5,10.12Z"/><path d="M10.57,33.46V15.61h2.75V33.46Z"/><path d="M17.05,33.46V15.61H19.8V31h8.6v2.5Z"/><path d="M30.92,33.46V15.61h2.76V31h8.6v2.5Z"/><path d="M51,33.82a8,8,0,0,1-3.64-.76A5.57,5.57,0,0,1,45,30.85a7,7,0,0,1-.82-3.51V15.61H47V27.42a3.91,3.91,0,0,0,1,2.91,4.12,4.12,0,0,0,3,1,4.08,4.08,0,0,0,3-1,3.87,3.87,0,0,0,1.05-2.91V15.61h2.75V27.34A7.06,7.06,0,0,1,57,30.85a5.46,5.46,0,0,1-2.35,2.21A8,8,0,0,1,51,33.82Z"/><path d="M67.48,33.82a8.58,8.58,0,0,1-3.57-.71A5.58,5.58,0,0,1,61.47,31a6.23,6.23,0,0,1-.88-3.38V27h2.73v.64a3.46,3.46,0,0,0,1.14,2.83,4.57,4.57,0,0,0,3,.95,4.43,4.43,0,0,0,2.89-.81,2.56,2.56,0,0,0,1-2.07,2,2,0,0,0-.45-1.38,3.25,3.25,0,0,0-1.31-.86,17.79,17.79,0,0,0-2-.6l-1-.23a14.94,14.94,0,0,1-3-1,4.87,4.87,0,0,1-2-1.6A4.36,4.36,0,0,1,61,20.3a4.6,4.6,0,0,1,.78-2.7,5.07,5.07,0,0,1,2.16-1.74,7.84,7.84,0,0,1,3.24-.61,8.13,8.13,0,0,1,3.32.64,5.18,5.18,0,0,1,2.31,1.88,5.45,5.45,0,0,1,.85,3.14v.92H70.93v-.92a3.29,3.29,0,0,0-.48-1.86A2.74,2.74,0,0,0,69.14,18a5.37,5.37,0,0,0-2-.33,4.17,4.17,0,0,0-2.54.68,2.19,2.19,0,0,0-.91,1.87,2.12,2.12,0,0,0,.4,1.34,2.78,2.78,0,0,0,1.16.86A11,11,0,0,0,67.2,23l1,.23a16.17,16.17,0,0,1,3.06,1,5.28,5.28,0,0,1,2.09,1.62,4.24,4.24,0,0,1,.76,2.62,4.88,4.88,0,0,1-.8,2.81A5.46,5.46,0,0,1,71,33.15,8.38,8.38,0,0,1,67.48,33.82Z"/><path d="M80.54,33.46V18.11H75.06v-2.5H88.79v2.5H83.3V33.46Z"/><path d="M91.29,33.46V15.61h7.5a7,7,0,0,1,2.92.57,4.38,4.38,0,0,1,2.66,4.2v.28a4.22,4.22,0,0,1-.8,2.69,4.34,4.34,0,0,1-1.95,1.41v.41a2.27,2.27,0,0,1,1.55.65,2.39,2.39,0,0,1,.59,1.73v5.91H101V27.93a1.6,1.6,0,0,0-.36-1.1,1.46,1.46,0,0,0-1.15-.41H94v7ZM94,23.92h4.44a3.28,3.28,0,0,0,2.3-.75,2.67,2.67,0,0,0,.81-2.05v-.21a2.68,2.68,0,0,0-.8-2.05,3.28,3.28,0,0,0-2.31-.75H94Z"/><path d="M106.08,33.46l5.1-17.85H116l5.08,17.85h-2.83l-1.18-4.21h-7l-1.17,4.21Zm4.72-6.76h5.61l-2.6-9.38h-.41Z"/><path d="M126,33.46V18.11h-5.49v-2.5h13.73v2.5h-5.49V33.46Z"/><path d="M136.75,33.46V15.61h2.75V33.46Z"/><path d="M149.94,33.82A7.22,7.22,0,0,1,144.71,32a7,7,0,0,1-1.94-5.34V22.44a7,7,0,0,1,1.94-5.34,8.33,8.33,0,0,1,10.47,0,7,7,0,0,1,1.95,5.34v4.19A7,7,0,0,1,155.18,32,7.28,7.28,0,0,1,149.94,33.82Zm0-2.47a4.24,4.24,0,0,0,3.26-1.24,4.76,4.76,0,0,0,1.15-3.38V22.34A4.76,4.76,0,0,0,153.2,19a4.88,4.88,0,0,0-6.5,0,4.69,4.69,0,0,0-1.18,3.38v4.39a4.69,4.69,0,0,0,1.18,3.38A4.26,4.26,0,0,0,149.94,31.35Z"/><path d="M160.4,33.46V15.61h5.3l4.85,16H171v-16h2.73V33.46h-5.31l-4.85-16h-.41v16Z"/><path d="M183.48,33.82a8.58,8.58,0,0,1-3.57-.71A5.56,5.56,0,0,1,177.48,31a6.14,6.14,0,0,1-.88-3.38V27h2.73v.64a3.45,3.45,0,0,0,1.13,2.83,4.59,4.59,0,0,0,3,.95,4.43,4.43,0,0,0,2.89-.81,2.57,2.57,0,0,0,1-2.07,2.05,2.05,0,0,0-.46-1.38,3.22,3.22,0,0,0-1.3-.86,18.67,18.67,0,0,0-2-.6l-.94-.23a15.28,15.28,0,0,1-3-1,4.87,4.87,0,0,1-1.95-1.6A4.36,4.36,0,0,1,177,20.3a4.6,4.6,0,0,1,.78-2.7,5.07,5.07,0,0,1,2.16-1.74,7.9,7.9,0,0,1,3.24-.61,8.21,8.21,0,0,1,3.33.64,5.23,5.23,0,0,1,2.31,1.88,5.53,5.53,0,0,1,.84,3.14v.92h-2.73v-.92a3.37,3.37,0,0,0-.47-1.86A2.81,2.81,0,0,0,185.14,18a5.33,5.33,0,0,0-2-.33,4.17,4.17,0,0,0-2.54.68,2.21,2.21,0,0,0-.91,1.87,2.18,2.18,0,0,0,.4,1.34,2.78,2.78,0,0,0,1.16.86,11,11,0,0,0,1.91.58l1,.23a16.17,16.17,0,0,1,3.06,1,5.28,5.28,0,0,1,2.09,1.62,4.24,4.24,0,0,1,.77,2.62,4.89,4.89,0,0,1-.81,2.81A5.4,5.4,0,0,1,187,33.15,8.38,8.38,0,0,1,183.48,33.82Z"/></svg>