<svg id="Layer_1" data-name="Layer 1" xmlns="http://www.w3.org/2000/svg" viewBox="0 0 405 340"><defs><style>.cls-1{fill:#b200fc;stroke:#000;stroke-miterlimit:10;stroke-width:2.83px;}.cls-2{fill:#e9f540;}</style></defs><path class="cls-1" d="M399.62,115.16c-.68,5.42-1.06,11.1-2.72,16.36A128.75,128.75,0,0,1,392,143.64a23.73,23.73,0,0,1-1.53,3.07c-.2.33-.42.63-.64.94-1.58,2.24-4.23,5.82-6,7.89a30.15,30.15,0,0,1-4.84,4.09,41.05,41.05,0,0,1-4.84,3.67l-8.9,3.85-.39.16-.6.16A31.22,31.22,0,0,1,353,168.85l-9.91-1.35-.38-.08a23.38,23.38,0,0,1-3-1.17,34,34,0,0,1-4.33,5.67c.53.47,1.06,1,1.57,1.45a64.87,64.87,0,0,1,6.79,8.16,55.94,55.94,0,0,1,6,8.76c1.83,3.7,3.34,7.6,4.8,11.45a21,21,0,0,1,1,3.1c2.66,13.3,1.13,27-7.2,38.13A43.15,43.15,0,0,1,331,256.54a42,42,0,0,1-5.11,1.84c-1.28.38-4.88.45-5.8,1.25-1.89,1.65-.92,9.76-1.22,12.63-1.73,16.39-5,34.41-17,46.71a39.65,39.65,0,0,1-63.68-9.46c-.87-1.64-10.3-20.58-8.55-21.74-11.37,7.52-24.18,13.94-37.81,13.92a42.94,42.94,0,0,1-41.9-33.86c-1.75-8.11-1.11-16.54.55-24.61.29-1.43,1.4-3.69.34-4.69-.83-.78-4.17-.28-5.21-.22-3.28.18-6.5.86-9.78,1.06a6.88,6.88,0,0,0-3.77,1,6.64,6.64,0,0,0-1.69,2.19c-7.08,12.6-12.13,26.35-20.26,38.31S89.72,303.17,75.3,304.18a32.92,32.92,0,0,1-12.7-1.59,41.64,41.64,0,0,1-11.53-6.17,38,38,0,0,1-10.72-11.48c-4-7-4.85-15.48-3.4-23.39,2.75-14.89,13.53-24.38,19.75-37.49A299.57,299.57,0,0,1,73,193.39c-4.25-.49-8.21-2.54-12-4.2-4.5-1.95-8.93-4-13.33-6.18-6-2.93-12.34-5.71-18-9.28-9.31-5.88-17.56-14-21.69-24.18-7.75-19.14,1-41.48,15.81-54.61-1.93-3.59-4.31-8.22-5-12.28a41.22,41.22,0,0,1-.39-15.3c1.47-9.11,5.94-18.43,13.8-23.6A27.82,27.82,0,0,1,44.83,37a243.26,243.26,0,0,1,38.61-5.67c20.45-1.4,41.08,1,61.11,5.19,15.88,3.32,31.51,7.75,47.52,10.33q-2.76-.33-5.52-.7l9.91,1.36c-1.47-.2-2.93-.41-4.39-.66,12.58,1.45,25.24,2.06,37.9,2.34,11.22.25,22.46.26,33.69.4a28.46,28.46,0,0,1,2.09-4l5.83-7.7a149.27,149.27,0,0,1,18.56-14.33,111.09,111.09,0,0,1,16.65-8.42c9-3.87,19.39-7.82,29.29-5.19s18.17,9.19,26,15.45c5.32,4.23,10.78,8.64,14.78,14.21,3.82,5.31,4.44,11.74,6.43,17.81,3.91,11.88,12,21.38,14.49,33.9a109.73,109.73,0,0,1,2.12,16.76A42.11,42.11,0,0,1,399.62,115.16Z"/><path class="cls-1" d="M196.46,47.46l-9.91-1.36q2.76.38,5.52.7C193.53,47.05,195,47.26,196.46,47.46Z"/><path class="cls-2" d="M328.09,51a15.5,15.5,0,1,1,15.5-15.5A15.51,15.51,0,0,1,328.09,51Zm0-28a12.5,12.5,0,1,0,12.5,12.5A12.51,12.51,0,0,0,328.09,23Z"/><path d="M35.76,86.5V68.65h2.75V86.5Z"/><path d="M42.24,86.5V68.65H45V84h8.6v2.5Z"/><path d="M56.12,86.5V68.65h2.75V84h8.6v2.5Z"/><path d="M76.22,86.86a8,8,0,0,1-3.63-.76,5.46,5.46,0,0,1-2.35-2.21,7,7,0,0,1-.83-3.51V68.65h2.78V80.46a3.87,3.87,0,0,0,1,2.91,4.08,4.08,0,0,0,3,1,4.12,4.12,0,0,0,3-1,3.91,3.91,0,0,0,1-2.91V68.65H83V80.38a7.06,7.06,0,0,1-.82,3.51,5.41,5.41,0,0,1-2.35,2.21A8,8,0,0,1,76.22,86.86Z"/><path d="M92.68,86.86a8.6,8.6,0,0,1-3.58-.71A5.56,5.56,0,0,1,86.67,84a6.14,6.14,0,0,1-.88-3.38V80h2.73v.64a3.47,3.47,0,0,0,1.13,2.83,4.6,4.6,0,0,0,3,1,4.42,4.42,0,0,0,2.88-.81,2.57,2.57,0,0,0,1-2.07,2.07,2.07,0,0,0-.46-1.38,3.22,3.22,0,0,0-1.3-.86,18,18,0,0,0-2-.6l-.94-.23a14.94,14.94,0,0,1-3-1,4.76,4.76,0,0,1-2-1.6,4.36,4.36,0,0,1-.69-2.55,4.62,4.62,0,0,1,.78-2.7,5.07,5.07,0,0,1,2.16-1.74,7.9,7.9,0,0,1,3.24-.61,8.21,8.21,0,0,1,3.33.64A5.18,5.18,0,0,1,98,70.81,5.53,5.53,0,0,1,98.85,74v.92H96.12V74a3.37,3.37,0,0,0-.47-1.86,2.81,2.81,0,0,0-1.32-1,5.33,5.33,0,0,0-2-.33,4.17,4.17,0,0,0-2.54.68,2.21,2.21,0,0,0-.91,1.87,2.16,2.16,0,0,0,.4,1.34,2.78,2.78,0,0,0,1.16.86,11,11,0,0,0,1.91.58l1,.23a15.94,15.94,0,0,1,3.06,1,5.28,5.28,0,0,1,2.09,1.62,4.24,4.24,0,0,1,.77,2.62,4.89,4.89,0,0,1-.81,2.81,5.27,5.27,0,0,1-2.28,1.88A8.36,8.36,0,0,1,92.68,86.86Z"/><path d="M105.74,86.5V71.15h-5.49v-2.5H114v2.5h-5.49V86.5Z"/><path d="M116.48,86.5V68.65H124a7,7,0,0,1,2.92.57,4.43,4.43,0,0,1,2,1.65,4.52,4.52,0,0,1,.71,2.55v.28a4.17,4.17,0,0,1-.81,2.69,4.33,4.33,0,0,1-1.95,1.42v.4a2.28,2.28,0,0,1,1.56.65,2.38,2.38,0,0,1,.58,1.73V86.5h-2.78V81a1.65,1.65,0,0,0-.35-1.1,1.48,1.48,0,0,0-1.15-.41h-5.44v7ZM119.23,77h4.44a3.28,3.28,0,0,0,2.3-.75,2.67,2.67,0,0,0,.81-2V74a2.66,2.66,0,0,0-.8-2,3.24,3.24,0,0,0-2.31-.75h-4.44Z"/><path d="M131.28,86.5l5.1-17.85h4.84L146.3,86.5h-2.83l-1.17-4.2h-7l-1.18,4.2ZM136,79.74h5.62L139,70.36h-.4Z"/><path d="M151.2,86.5V71.15h-5.49v-2.5h13.73v2.5H154V86.5Z"/><path d="M161.94,86.5V68.65h2.75V86.5Z"/><path d="M175.13,86.86A7.24,7.24,0,0,1,169.9,85,7,7,0,0,1,168,79.67V75.48a7,7,0,0,1,1.94-5.34,8.33,8.33,0,0,1,10.47,0,7,7,0,0,1,1.95,5.34v4.19A7,7,0,0,1,180.37,85,7.28,7.28,0,0,1,175.13,86.86Zm0-2.47a4.24,4.24,0,0,0,3.27-1.24,4.79,4.79,0,0,0,1.14-3.38V75.38A4.8,4.8,0,0,0,178.4,72a4.89,4.89,0,0,0-6.51,0,4.73,4.73,0,0,0-1.17,3.38v4.39a4.71,4.71,0,0,0,1.17,3.38A4.23,4.23,0,0,0,175.13,84.39Z"/><path d="M185.59,86.5V68.65h5.31l4.84,16h.41v-16h2.73V86.5h-5.31l-4.84-16h-.41v16Z"/><path d="M208.68,86.86a8.52,8.52,0,0,1-3.57-.71A5.58,5.58,0,0,1,202.67,84a6.14,6.14,0,0,1-.88-3.38V80h2.73v.64a3.47,3.47,0,0,0,1.13,2.83,4.6,4.6,0,0,0,3,1,4.42,4.42,0,0,0,2.88-.81,2.54,2.54,0,0,0,1-2.07,2,2,0,0,0-.46-1.38,3.22,3.22,0,0,0-1.3-.86,17.4,17.4,0,0,0-2-.6l-.94-.23a14.94,14.94,0,0,1-3-1,4.79,4.79,0,0,1-2-1.6,4.36,4.36,0,0,1-.69-2.55,4.62,4.62,0,0,1,.78-2.7,5,5,0,0,1,2.15-1.74,7.9,7.9,0,0,1,3.24-.61,8.21,8.21,0,0,1,3.33.64A5.18,5.18,0,0,1,214,70.81a5.53,5.53,0,0,1,.84,3.14v.92h-2.73V74a3.37,3.37,0,0,0-.47-1.86,2.79,2.79,0,0,0-1.31-1,5.42,5.42,0,0,0-2-.33,4.19,4.19,0,0,0-2.54.68,2.2,2.2,0,0,0-.9,1.87,2.15,2.15,0,0,0,.39,1.34,2.85,2.85,0,0,0,1.16.86,10.84,10.84,0,0,0,1.92.58l.94.23a15.71,15.71,0,0,1,3.06,1,5.21,5.21,0,0,1,2.09,1.62,4.24,4.24,0,0,1,.77,2.62,5,5,0,0,1-.8,2.81,5.36,5.36,0,0,1-2.29,1.88A8.33,8.33,0,0,1,208.68,86.86Z"/><rect class="cls-2" x="270.53" y="214.7" width="2.12" height="88.47"/><rect class="cls-2" x="270.53" y="214.7" width="2.12" height="88.47" transform="translate(-72.18 108.51) rotate(-20)"/><rect class="cls-2" x="270.53" y="214.7" width="2.12" height="88.47" transform="translate(-102.9 235.15) rotate(-40)"/><rect class="cls-2" x="270.53" y="214.7" width="2.12" height="88.47" transform="translate(-88.45 364.67) rotate(-60)"/><rect class="cls-2" x="270.53" y="214.7" width="2.12" height="88.47" transform="translate(-30.57 481.43) rotate(-80)"/><rect class="cls-2" x="227.35" y="257.87" width="88.47" height="2.12" transform="translate(-40.89 51.17) rotate(-10.01)"/><rect class="cls-2" x="227.35" y="257.87" width="88.47" height="2.12" transform="translate(-93.07 170.45) rotate(-29.99)"/><rect class="cls-2" x="227.35" y="257.87" width="88.47" height="2.12" transform="translate(-101.34 300.5) rotate(-49.99)"/><rect class="cls-2" x="227.35" y="257.87" width="88.47" height="2.12" transform="translate(-64.6 425.62) rotate(-70.01)"/><path class="cls-2" d="M81.7,330.82v-2.45h2.39v-13H81.7V313h7.14a7.66,7.66,0,0,1,5.47,1.81q1.91,1.82,1.9,5.46v3.35q0,3.65-1.9,5.44a7.66,7.66,0,0,1-5.47,1.8Zm5.18-2.5h2a4.58,4.58,0,0,0,3.44-1.17,4.87,4.87,0,0,0,1.12-3.5v-3.52a4.8,4.8,0,0,0-1.12-3.49,4.61,4.61,0,0,0-3.44-1.15h-2Z"/><path class="cls-2" d="M99.33,330.82V313h7.5a6.89,6.89,0,0,1,2.92.58,4.36,4.36,0,0,1,2.66,4.19V318a4.25,4.25,0,0,1-.8,2.7,4.34,4.34,0,0,1-2,1.41v.41a2.23,2.23,0,0,1,1.55.65,2.36,2.36,0,0,1,.59,1.72v5.92H109v-5.53a1.6,1.6,0,0,0-.36-1.1,1.46,1.46,0,0,0-1.15-.41h-5.43v7Zm2.75-9.54h4.44a3.28,3.28,0,0,0,2.3-.75,2.67,2.67,0,0,0,.81-2.06v-.2a2.68,2.68,0,0,0-.8-2,3.23,3.23,0,0,0-2.31-.76h-4.44Z"/><path class="cls-2" d="M114.12,330.82l5.1-17.86h4.85l5.08,17.86h-2.83l-1.18-4.21h-7L117,330.82Zm4.72-6.76h5.61l-2.6-9.39h-.41Z"/><path class="cls-2" d="M137.57,331.18a7,7,0,0,1-3.42-.83,5.82,5.82,0,0,1-2.37-2.44,8.15,8.15,0,0,1-.87-3.93V319.8a6.53,6.53,0,0,1,7.09-7.19,6.7,6.7,0,0,1,4.95,1.74,6.35,6.35,0,0,1,1.73,4.68v.13H142V319a4.43,4.43,0,0,0-.44-2,3.23,3.23,0,0,0-1.3-1.39,4.34,4.34,0,0,0-2.22-.51,4.13,4.13,0,0,0-3.19,1.24,4.87,4.87,0,0,0-1.15,3.43V324a5,5,0,0,0,1.15,3.43,4.14,4.14,0,0,0,3.22,1.26,3.67,3.67,0,0,0,3-1.12,4.37,4.37,0,0,0,1-2.91v-.33h-4.8V322h7.52v8.83h-2.55V329h-.41a4,4,0,0,1-.67,1,3.26,3.26,0,0,1-1.28.85A6,6,0,0,1,137.57,331.18Z"/><path class="cls-2" d="M154.74,330.82V313h5.17l3.91,16h.41l3.9-16h5.18v17.86h-2.68V314.9h-.41l-3.88,15.92H161.7l-3.88-15.92h-.41v15.92Z"/><path class="cls-2" d="M177,330.82V313h11.25v2.5h-8.49v5.13h7.78v2.5h-7.78v5.23h8.62v2.5Z"/></svg>