<svg id="Layer_1" data-name="Layer 1" xmlns="http://www.w3.org/2000/svg" viewBox="0 0 250 150"><defs><style>.cls-1{fill:#b200fc;}.cls-2{fill:#e9f540;}</style></defs><path class="cls-1" d="M86.1,6.45A85.5,85.5,0,0,0,30.17,6c-8.25,2.84-16.58,7.21-22,14.22-3.88,5-6.07,11.58-4.87,17.81,1.11,5.81,4.92,10.66,8.11,15.64A29.17,29.17,0,0,1,16,74.86c-.7,4.47-2.37,8.81-2.46,13.32-.18,9,6.67,17.7,16.08,20.46,5.94,1.74,12.68,1.33,18.06,4.2,6.48,3.45,9.12,10.53,12.8,16.47,7.31,11.79,19.27,18.35,33,19.11,7.67.42,15.35-.71,22.89-2.17,6.38-1.24,13-2.9,18.52-6.43,5.93-3.79,9.25-10,13.33-15.55,7.29-9.86,16.91-18.08,26.45-26.21C180.29,93.27,186,88.43,192.71,85c11-5.66,23.32-7.93,34.13-14.14,14.25-8.19,28.95-25.61,17.72-42.25-4.32-6.42-11.24-10.69-18.48-13.42-13-4.92-27.29-5.33-41.17-4.48-9.39.57-18.73,1.7-28.12,2.31s-17.73-1.52-27.07-1.68c-8.43-.15-16.94,1.7-25.24.33C99.07,10.75,86.1,6.45,86.1,6.45Z"/><path d="M86.5,5C65.64-2.46,40.8-1.82,20.89,8.31,11.8,12.94,3.34,20.7,1.75,31.25c-.82,5.47.63,10.57,3.33,15.32s6.36,9,8.23,14.22a29,29,0,0,1,.81,15.9C13,82,11.31,87.17,12.46,92.63c2,9.39,10.19,16.24,19.35,18.08,5.12,1,10.77,1,15.42,3.6,4.21,2.36,6.73,6.59,9,10.68a58.89,58.89,0,0,0,8.07,11.81,40.25,40.25,0,0,0,11,8.33c9.42,4.83,20,5.52,30.34,4.32a124.27,124.27,0,0,0,17.55-3.22c5.2-1.37,10.43-3.36,14.66-6.76,4-3.24,6.85-7.66,9.77-11.86a96.8,96.8,0,0,1,10.82-12.93c4.07-4.13,8.41-8,12.81-11.78s8.66-7.57,13.27-11a66.41,66.41,0,0,1,14.75-8.33c5.23-2.14,10.61-3.85,15.89-5.83,9.86-3.7,19.09-8.76,26.12-16.76,6.27-7.14,10.62-16.71,7.8-26.28-3-10.07-12-16.71-21.36-20.49-22.86-9.27-47.72-4-71.45-2.7-6,.33-11.89-.47-17.82-1.09a101.32,101.32,0,0,0-18.1-.22c-5.57.4-11.28.9-16.8-.25-3.68-.77-7.31-1.88-10.91-3-2.06-.63-4.13-1.28-6.18-2-1.82-.6-2.61,2.27-.79,2.87a162.58,162.58,0,0,0,16.74,4.87c5.2,1.14,10.52,1,15.79.59a111.29,111.29,0,0,1,18-.16c5.75.53,11.48,1.42,17.26,1.4,6,0,11.93-.77,17.85-1.32,11.76-1.07,23.6-2.08,35.4-.93,10.47,1,21.53,3.79,30.05,10.25a26.38,26.38,0,0,1,9.12,11.83A20.38,20.38,0,0,1,246,47.48c-2.88,9-10.5,16.27-18.34,21.14-9.32,5.78-20.11,8.29-30.14,12.5a68.39,68.39,0,0,0-14.45,8.22c-4.39,3.26-8.52,6.87-12.68,10.43-8.45,7.25-16.8,14.75-23.44,23.75-2.94,4-5.45,8.32-9,11.86-3.75,3.77-8.64,6-13.67,7.46a112.93,112.93,0,0,1-16.88,3.41,66.32,66.32,0,0,1-17.12.4A39.29,39.29,0,0,1,66.67,135a53.81,53.81,0,0,1-7.75-11.32c-2.22-4-4.64-7.93-8.33-10.69-4.22-3.15-9.42-3.78-14.48-4.52-4.84-.71-9.44-1.87-13.35-5a20.57,20.57,0,0,1-7.19-10.64c-1.4-5.22.33-10.25,1.42-15.35a32.64,32.64,0,0,0-.15-15.38c-1.4-5.14-4.32-9.37-7.19-13.78S4.23,39.13,4.48,33.65A23,23,0,0,1,10.37,19.9c6.8-7.8,17.06-12,26.89-14.42a83.61,83.61,0,0,1,48.45,2.4C87.52,8.53,88.29,5.65,86.5,5Z"/><path class="cls-2" d="M224,55.5A15.5,15.5,0,1,1,239.5,40,15.51,15.51,0,0,1,224,55.5Zm0-28A12.5,12.5,0,1,0,236.5,40,12.52,12.52,0,0,0,224,27.5Z"/><path d="M18.53,38.07V20.21h2.76V38.07Z"/><path d="M25,38.07V20.21h2.76V35.57h8.6v2.5Z"/><path d="M38.89,38.07V20.21h2.76V35.57h8.59v2.5Z"/><path d="M59,38.43a8,8,0,0,1-3.64-.77A5.49,5.49,0,0,1,53,35.46,7,7,0,0,1,52.18,32V20.21H55V32a3.86,3.86,0,0,0,1,2.9,4.88,4.88,0,0,0,6,0A3.86,3.86,0,0,0,63,32V20.21h2.75V32A7,7,0,0,1,65,35.46a5.36,5.36,0,0,1-2.34,2.2A8,8,0,0,1,59,38.43Z"/><path d="M75.45,38.43a8.4,8.4,0,0,1-3.57-.72,5.5,5.5,0,0,1-2.44-2.1,6.16,6.16,0,0,1-.88-3.38v-.64h2.73v.64a3.46,3.46,0,0,0,1.14,2.83,4.55,4.55,0,0,0,3,.95,4.4,4.4,0,0,0,2.88-.81,2.56,2.56,0,0,0,1-2.08,2,2,0,0,0-.46-1.38,3.13,3.13,0,0,0-1.3-.85,17.79,17.79,0,0,0-2-.6l-1-.23a14.92,14.92,0,0,1-3-1,4.85,4.85,0,0,1-2-1.59A4.36,4.36,0,0,1,69,24.91a4.63,4.63,0,0,1,.78-2.71,5.09,5.09,0,0,1,2.15-1.73,7.9,7.9,0,0,1,3.24-.61,8.38,8.38,0,0,1,3.33.63,5.27,5.27,0,0,1,2.31,1.89,5.53,5.53,0,0,1,.84,3.14v.92H78.89v-.92a3.25,3.25,0,0,0-.47-1.86,2.68,2.68,0,0,0-1.31-1.05,5.38,5.38,0,0,0-2-.33A4.19,4.19,0,0,0,72.6,23a2.2,2.2,0,0,0-.9,1.87,2.17,2.17,0,0,0,.39,1.34,2.94,2.94,0,0,0,1.16.86,10.84,10.84,0,0,0,1.92.58l.94.23a15.73,15.73,0,0,1,3.06,1,5.32,5.32,0,0,1,2.1,1.62A4.27,4.27,0,0,1,82,33.07a5,5,0,0,1-.8,2.81,5.34,5.34,0,0,1-2.29,1.87A8.32,8.32,0,0,1,75.45,38.43Z"/><path d="M88.51,38.07V22.71H83v-2.5H96.75v2.5H91.27V38.07Z"/><path d="M99.25,38.07V20.21h7.5a6.86,6.86,0,0,1,2.92.58,4.5,4.5,0,0,1,2,1.64,4.56,4.56,0,0,1,.7,2.55v.28a4.25,4.25,0,0,1-.8,2.7,4.32,4.32,0,0,1-2,1.41v.41a2.24,2.24,0,0,1,1.56.65,2.36,2.36,0,0,1,.59,1.72v5.92H109V32.54a1.6,1.6,0,0,0-.36-1.1,1.46,1.46,0,0,0-1.15-.41H102v7ZM102,28.53h4.44a3.26,3.26,0,0,0,2.29-.75,2.65,2.65,0,0,0,.82-2.06v-.2a2.65,2.65,0,0,0-.81-2.05,3.19,3.19,0,0,0-2.3-.76H102Z"/><path d="M114.05,38.07l5.1-17.86H124l5.08,17.86h-2.84l-1.17-4.21h-7l-1.17,4.21Zm4.72-6.76h5.61l-2.6-9.39h-.41Z"/><path d="M134,38.07V22.71h-5.48v-2.5h13.72v2.5h-5.48V38.07Z"/><path d="M144.71,38.07V20.21h2.76V38.07Z"/><path d="M157.9,38.43a7.29,7.29,0,0,1-5.23-1.85,7.06,7.06,0,0,1-1.94-5.35V27.05a7,7,0,0,1,1.94-5.34,8.35,8.35,0,0,1,10.48,0,7,7,0,0,1,1.95,5.34v4.18a7,7,0,0,1-1.95,5.35A7.35,7.35,0,0,1,157.9,38.43Zm0-2.48a4.27,4.27,0,0,0,3.27-1.23,4.81,4.81,0,0,0,1.15-3.38V27a4.79,4.79,0,0,0-1.15-3.38,4.89,4.89,0,0,0-6.51,0A4.71,4.71,0,0,0,153.49,27v4.39a4.73,4.73,0,0,0,1.17,3.38A4.29,4.29,0,0,0,157.9,36Z"/><path d="M168.36,38.07V20.21h5.31l4.85,16h.4v-16h2.73V38.07h-5.3L171.5,22h-.41V38.07Z"/><path d="M191.45,38.43a8.43,8.43,0,0,1-3.57-.72,5.5,5.5,0,0,1-2.44-2.1,6.25,6.25,0,0,1-.88-3.38v-.64h2.73v.64a3.46,3.46,0,0,0,1.14,2.83,4.55,4.55,0,0,0,3,.95,4.38,4.38,0,0,0,2.88-.81,2.56,2.56,0,0,0,1-2.08,2,2,0,0,0-.46-1.38,3.13,3.13,0,0,0-1.3-.85,17.79,17.79,0,0,0-2-.6l-.95-.23a14.92,14.92,0,0,1-3-1,4.85,4.85,0,0,1-2-1.59,4.36,4.36,0,0,1-.69-2.55,4.63,4.63,0,0,1,.78-2.71,5.15,5.15,0,0,1,2.15-1.73,7.9,7.9,0,0,1,3.24-.61,8.31,8.31,0,0,1,3.33.63,5.27,5.27,0,0,1,2.31,1.89,5.53,5.53,0,0,1,.84,3.14v.92h-2.73v-.92a3.25,3.25,0,0,0-.47-1.86,2.68,2.68,0,0,0-1.31-1.05,5.38,5.38,0,0,0-2-.33,4.16,4.16,0,0,0-2.53.68,2.19,2.19,0,0,0-.91,1.87,2.12,2.12,0,0,0,.4,1.34,2.87,2.87,0,0,0,1.16.86,11,11,0,0,0,1.91.58l.94.23a16.07,16.07,0,0,1,3.07,1,5.28,5.28,0,0,1,2.09,1.62,4.27,4.27,0,0,1,.76,2.63,5,5,0,0,1-.8,2.81A5.37,5.37,0,0,1,195,37.75,8.4,8.4,0,0,1,191.45,38.43Z"/><rect class="cls-2" x="102.13" y="47.63" width="2.12" height="88.47"/><rect class="cls-2" x="102.13" y="47.63" width="2.12" height="88.47" transform="translate(-25.2 40.83) rotate(-20)"/><rect class="cls-2" x="102.13" y="47.63" width="2.12" height="88.47" transform="translate(-34.91 87.82) rotate(-40)"/><rect class="cls-2" x="102.13" y="47.63" width="2.12" height="88.47" transform="translate(-27.97 135.3) rotate(-60)"/><rect class="cls-2" x="102.13" y="47.63" width="2.12" height="88.47" transform="translate(-5.2 177.53) rotate(-80)"/><rect class="cls-2" x="58.95" y="90.81" width="88.47" height="2.12" transform="translate(-14.4 19.34) rotate(-10.01)"/><rect class="cls-2" x="58.95" y="90.81" width="88.47" height="2.12" transform="translate(-32.11 63.89) rotate(-29.99)"/><rect class="cls-2" x="58.95" y="90.81" width="88.47" height="2.12" transform="translate(-33.52 111.85) rotate(-49.99)"/><rect class="cls-2" x="58.95" y="90.81" width="88.47" height="2.12" transform="translate(-18.42 157.43) rotate(-70.01)"/></svg>