<svg id="Layer_1" data-name="Layer 1" xmlns="http://www.w3.org/2000/svg" viewBox="0 0 339 153"><defs><style>.cls-1{fill:#abf900;}.cls-2{fill:#fff;}</style></defs><path class="cls-1" d="M43.71,95.26c9.12,1.41,17.41.56,19.73,11.67,2.19,10.45,2.72,18.87,14.31,23,7.12,2.56,14.87,2.39,22.34,3.57,11.46,1.8,22.09,6.69,32.94,10.56,15.81,5.64,34,6,50.61,7a226.2,226.2,0,0,0,58-4c7.62-1.53,15.29-3.47,23.06-3.1,3.7.18,7.68.83,10.92-1,4.07-2.26,5.38-7.5,5.61-12.17a49.64,49.64,0,0,0-6.77-27.26c-4.72-8.08-13.12-13.93-15.59-23.32-1.2-4.57-1.23-10.28-5.29-12.67-3.23-1.91-7.31-.55-11.05-.66a14.25,14.25,0,0,1-13-10.35,6.65,6.65,0,0,1,.56-5.53,7.09,7.09,0,0,1,3.67-2.35C247,44.27,260.48,53.38,274.13,56c20.81,4,41.21-5.47,58.25-16.61,1.71-1.11,3.47-2.34,4.37-4.18,2.78-5.66-3.41-15.91-6.58-20.5-3.73-5.4-9.11-10.39-16-10.49-11.95-.18-23.76,1.54-35.67,2.24s-23.82,0-35.64-.77c-31.84-2-63.78-2.26-95.66-1.17C116,5.6,84.92,7.28,53.89,3.34,41.53,1.78,28.22-.59,17.18,5.22,8,10.06,2.42,19.81,1.51,30.11.31,43.68,7.21,56.49,13.88,68.35,17.41,74.61,21,81,26.17,86A38.3,38.3,0,0,0,39.8,94.3,21.87,21.87,0,0,0,43.71,95.26Z"/><path d="M43.32,96.7c4.78.72,10.88.47,14.89,3.59,2.34,1.82,3.31,4.67,3.89,7.48s1.06,5.59,1.78,8.35c1.35,5.22,3.81,9.88,8.43,12.87,6.54,4.24,14.78,4.6,22.29,5.36a100,100,0,0,1,24.7,6.19c7.78,2.88,15.42,6.1,23.54,7.9a165.91,165.91,0,0,0,24.21,3.17c8.32.58,16.67,1.14,25,1.33a230.65,230.65,0,0,0,52.21-4.85,131.11,131.11,0,0,1,13.34-2.36c4.19-.42,8.27.08,12.45,0,3.42,0,6.76-1,9-3.7a16.35,16.35,0,0,0,3.36-8.43,50.4,50.4,0,0,0-8.31-33.27c-1.88-2.68-4.05-5.15-6.15-7.65a45.49,45.49,0,0,1-6-8.54c-1.5-2.93-2-6-2.68-9.23-.61-2.9-1.54-6-3.92-7.9-2.75-2.25-6.24-2-9.56-1.74-3.61.31-6.84,0-9.89-2.15-2.73-1.91-5.07-5.2-5.2-8.64-.17-4.35,5.36-5.17,8.7-5.43a34.25,34.25,0,0,1,11.25,1.29c7.61,2,14.81,5.39,22.54,7a58.33,58.33,0,0,0,23.43-.24A89.5,89.5,0,0,0,319,49c3.5-1.77,6.9-3.71,10.24-5.77,2.95-1.82,6.74-3.67,8.57-6.76,2.94-5-.11-11.63-2.5-16.15-2.82-5.35-6.4-10.69-11.39-14.21-6.47-4.57-14.63-3.44-22.1-2.95-8.87.59-17.72,1.69-26.61,2-18.09.68-36.2-1.34-54.25-2s-36.33-.85-54.49-.55S130.2,3.79,112.08,4.17s-36.23.16-54.23-1.85c-14.74-1.64-32-5.83-45,3.86C1.15,14.92-2.18,30.3,1.32,44c2,8,5.85,15.33,9.8,22.46,3.83,6.89,7.64,14,13.18,19.71,5,5.15,11.89,9.34,19,10.52,1.87.31,2.68-2.57.79-2.88C27.74,91.11,19.41,75.57,12.23,62.3S-1,33.47,6.1,19A27.5,27.5,0,0,1,20.69,5.25c7.23-2.8,15.2-2.5,22.78-1.71,8.22.86,16.37,2.1,24.62,2.73,8.69.66,17.4,1,26.12,1,17.66.14,35.32-.67,53-1.27q26.23-.88,52.5-.52c17.71.28,35.36,1.36,53,2.28a231.56,231.56,0,0,0,26.08.16c8.55-.51,17.05-1.54,25.6-2,4-.21,8.45-.79,12.36.09a17.85,17.85,0,0,1,8.56,5.12,43.14,43.14,0,0,1,9.44,15.1c.88,2.4,1.8,5.42.83,7.93a8,8,0,0,1-3.1,3.36c-1.63,1.14-3.33,2.18-5,3.21a114.77,114.77,0,0,1-21,10.42,66,66,0,0,1-23,4.28c-8-.08-15.32-2.4-22.78-5-6.82-2.38-14-4.92-21.34-4.36-3.17.24-7,.87-9.51,3s-2.53,5.82-1.51,8.79a15.86,15.86,0,0,0,14.15,10.52c3.35.12,7.69-1.45,10.67.69,2.45,1.76,2.94,5.22,3.47,8a31.33,31.33,0,0,0,2.94,9,47.2,47.2,0,0,0,5.47,7.76c2.14,2.58,4.41,5.06,6.35,7.8a43.81,43.81,0,0,1,5.17,9.81c2.66,7,4.21,15.32,2.75,22.78-.6,3.07-1.94,6.37-5,7.74-3.55,1.6-7.89.47-11.62.47-8.48,0-16.74,2.34-25,3.87a223,223,0,0,1-25.62,3.19c-16.58,1.09-33.34.16-49.88-1.28a128.89,128.89,0,0,1-23.49-3.91c-7.75-2.16-15.14-5.51-22.74-8.15a101.88,101.88,0,0,0-23.86-5.06c-7-.68-15.28-1.36-20.59-6.51-3.78-3.65-4.86-9-5.85-14-1.06-5.29-2.06-10.82-7.13-13.7-4.34-2.46-9.67-2.42-14.47-3.15C42.24,93.53,41.43,96.41,43.32,96.7Z"/><circle class="cls-2" cx="309" cy="30" r="14"/><path d="M309,45.5A15.5,15.5,0,1,1,324.5,30,15.51,15.51,0,0,1,309,45.5Zm0-28A12.5,12.5,0,1,0,321.5,30,12.52,12.52,0,0,0,309,17.5Z"/><path d="M23.07,37.37a7.14,7.14,0,0,1-5.18-1.85A7.1,7.1,0,0,1,16,30.17V26a7.1,7.1,0,0,1,1.92-5.35,7.14,7.14,0,0,1,5.18-1.85,6.64,6.64,0,0,1,5,1.79,6.69,6.69,0,0,1,1.75,4.87v.16H27.05v-.23a4.36,4.36,0,0,0-1-3,3.7,3.7,0,0,0-3-1.15,4.11,4.11,0,0,0-3.19,1.24,4.82,4.82,0,0,0-1.15,3.43v4.28a4.83,4.83,0,0,0,1.15,3.42,4.09,4.09,0,0,0,3.19,1.25,3.67,3.67,0,0,0,3-1.16,4.37,4.37,0,0,0,1-2.95v-.43h2.73v.36A6.68,6.68,0,0,1,28,35.58,6.64,6.64,0,0,1,23.07,37.37Z"/><path d="M39.55,37.37a7.26,7.26,0,0,1-5.23-1.85,7.07,7.07,0,0,1-1.94-5.35V26a7.07,7.07,0,0,1,1.94-5.35,7.26,7.26,0,0,1,5.23-1.85,7.32,7.32,0,0,1,5.24,1.85,7,7,0,0,1,2,5.35v4.18a7,7,0,0,1-2,5.35A7.32,7.32,0,0,1,39.55,37.37Zm0-2.48a4.23,4.23,0,0,0,3.26-1.23A4.79,4.79,0,0,0,44,30.27V25.89a4.74,4.74,0,0,0-1.15-3.38,4.2,4.2,0,0,0-3.26-1.24,4.23,4.23,0,0,0-3.24,1.24,4.71,4.71,0,0,0-1.18,3.38v4.38a4.76,4.76,0,0,0,1.18,3.39A4.26,4.26,0,0,0,39.55,34.89Z"/><path d="M50,37V19.15h5.18l3.9,16h.41l3.9-16h5.18V37H65.9V21.09h-.41L61.62,37H57L53.09,21.09h-.4V37Z"/><path d="M72.3,37V19.15h5.18l3.91,16h.4l3.91-16h5.18V37H88.2V21.09h-.41L83.91,37H79.27L75.39,21.09H75V37Z"/><path d="M94.6,37V19.15h2.76V37Z"/><path d="M107.15,37.37a8.43,8.43,0,0,1-3.57-.72,5.5,5.5,0,0,1-2.44-2.1,6.27,6.27,0,0,1-.88-3.38v-.64H103v.64A3.46,3.46,0,0,0,104.13,34a4.57,4.57,0,0,0,3,.94,4.43,4.43,0,0,0,2.89-.8,2.59,2.59,0,0,0,1-2.08,2.08,2.08,0,0,0-.45-1.38,3.2,3.2,0,0,0-1.3-.85,18.67,18.67,0,0,0-2-.6l-.94-.23a15.26,15.26,0,0,1-3-1,4.85,4.85,0,0,1-2-1.59,4.41,4.41,0,0,1-.69-2.55,4.63,4.63,0,0,1,.78-2.71,5,5,0,0,1,2.16-1.73,7.9,7.9,0,0,1,3.24-.62,8.38,8.38,0,0,1,3.33.64,5.38,5.38,0,0,1,2.31,1.89,5.5,5.5,0,0,1,.84,3.14v.92H110.6v-.92a3.25,3.25,0,0,0-.48-1.86,2.68,2.68,0,0,0-1.31-1.05,5.37,5.37,0,0,0-2-.33,4.17,4.17,0,0,0-2.54.67,2.2,2.2,0,0,0-.91,1.88,2.13,2.13,0,0,0,.4,1.34A2.76,2.76,0,0,0,105,26a10.9,10.9,0,0,0,1.91.59l.95.23a15.5,15.5,0,0,1,3.06,1A5.28,5.28,0,0,1,113,29.38a4.28,4.28,0,0,1,.77,2.63,4.91,4.91,0,0,1-.81,2.81,5.31,5.31,0,0,1-2.28,1.87A8.37,8.37,0,0,1,107.15,37.37Z"/><path d="M122.69,37.37a8.43,8.43,0,0,1-3.57-.72,5.5,5.5,0,0,1-2.44-2.1,6.27,6.27,0,0,1-.88-3.38v-.64h2.73v.64A3.46,3.46,0,0,0,119.67,34a4.55,4.55,0,0,0,3,.94,4.38,4.38,0,0,0,2.88-.8,2.57,2.57,0,0,0,1-2.08,2,2,0,0,0-.46-1.38,3.13,3.13,0,0,0-1.3-.85,17.79,17.79,0,0,0-2-.6l-1-.23a14.92,14.92,0,0,1-3-1,4.85,4.85,0,0,1-1.95-1.59,4.41,4.41,0,0,1-.69-2.55,4.63,4.63,0,0,1,.78-2.71,5.08,5.08,0,0,1,2.15-1.73,7.9,7.9,0,0,1,3.24-.62,8.34,8.34,0,0,1,3.33.64A5.27,5.27,0,0,1,128,21.32a5.5,5.5,0,0,1,.84,3.14v.92h-2.73v-.92a3.25,3.25,0,0,0-.47-1.86,2.68,2.68,0,0,0-1.31-1.05,5.38,5.38,0,0,0-2-.33,4.14,4.14,0,0,0-2.53.67,2.43,2.43,0,0,0-.52,3.22,2.87,2.87,0,0,0,1.17.85,10.64,10.64,0,0,0,1.91.59l.94.23a15.39,15.39,0,0,1,3.07,1,5.28,5.28,0,0,1,2.09,1.62,4.27,4.27,0,0,1,.76,2.63,5,5,0,0,1-.8,2.81,5.37,5.37,0,0,1-2.28,1.87A8.4,8.4,0,0,1,122.69,37.37Z"/><path d="M132.15,37V19.15h2.76V37Z"/><path d="M145.34,37.37a7.29,7.29,0,0,1-5.23-1.85,7.07,7.07,0,0,1-1.94-5.35V26a7.07,7.07,0,0,1,1.94-5.35,8.35,8.35,0,0,1,10.48,0A7,7,0,0,1,152.54,26v4.18a7,7,0,0,1-1.95,5.35A7.33,7.33,0,0,1,145.34,37.37Zm0-2.48a4.27,4.27,0,0,0,3.27-1.23,4.83,4.83,0,0,0,1.15-3.39V25.89a4.79,4.79,0,0,0-1.15-3.38,4.89,4.89,0,0,0-6.51,0,4.71,4.71,0,0,0-1.17,3.38v4.38a4.75,4.75,0,0,0,1.17,3.39A4.29,4.29,0,0,0,145.34,34.89Z"/><path d="M155.8,37V19.15h5.31l4.85,16h.41v-16h2.73V37h-5.31l-4.85-16h-.41V37Z"/><path d="M172.82,37V19.15h11.25v2.5h-8.5v5.13h7.79v2.5h-7.79v5.23h8.63V37Z"/><path d="M186.42,37V34.56h2.39v-13h-2.39V19.15h7.14A7.65,7.65,0,0,1,199,21q1.91,1.82,1.9,5.46v3.34c0,2.44-.63,4.25-1.9,5.45a7.64,7.64,0,0,1-5.47,1.8Zm5.18-2.5h2A4.58,4.58,0,0,0,197,33.34a4.89,4.89,0,0,0,1.12-3.5V26.32A4.8,4.8,0,0,0,197,22.83a4.61,4.61,0,0,0-3.44-1.15h-2Z"/><path d="M212,37l-2.63-17.86h2.76l2.14,16h.41l2.75-16h4.83l2.75,16h.41l2.12-16h2.75L227.64,37h-4.82L220,20.78h-.41L216.83,37Z"/><path d="M239.53,37.37a7.29,7.29,0,0,1-5.23-1.85,7.07,7.07,0,0,1-1.94-5.35V26a7.07,7.07,0,0,1,1.94-5.35,8.35,8.35,0,0,1,10.48,0A7,7,0,0,1,246.73,26v4.18a7,7,0,0,1-1.95,5.35A7.35,7.35,0,0,1,239.53,37.37Zm0-2.48a4.27,4.27,0,0,0,3.27-1.23A4.83,4.83,0,0,0,244,30.27V25.89a4.79,4.79,0,0,0-1.15-3.38,4.89,4.89,0,0,0-6.51,0,4.71,4.71,0,0,0-1.17,3.38v4.38a4.75,4.75,0,0,0,1.17,3.39A4.29,4.29,0,0,0,239.53,34.89Z"/><path d="M250,37V19.15h7.5a6.86,6.86,0,0,1,2.92.58,4.5,4.5,0,0,1,2,1.64,4.56,4.56,0,0,1,.7,2.55v.28a4.2,4.2,0,0,1-.8,2.69,4.27,4.27,0,0,1-2,1.42v.41a2.24,2.24,0,0,1,1.56.65,2.36,2.36,0,0,1,.59,1.72V37h-2.78V31.47a1.58,1.58,0,0,0-.36-1.09,1.46,1.46,0,0,0-1.15-.41h-5.43v7Zm2.76-9.54h4.44a3.26,3.26,0,0,0,2.29-.75,2.66,2.66,0,0,0,.82-2.06v-.2a2.72,2.72,0,0,0-.8-2.06,3.28,3.28,0,0,0-2.31-.75h-4.44Z"/><path d="M266.12,37V19.15h2.75v7.43h.41l6.66-7.43h3.59L271.47,28,279.82,37h-3.7l-6.84-7.58h-.41V37Z"/><circle cx="216.41" cy="60.39" r="4.18"/><circle cx="210.41" cy="89.51" r="4.18"/><polygon points="223.83 139.84 159.5 139.84 159.5 98.14 151.22 90.92 115.17 90.92 115.17 60.75 216.4 59.89 216.41 60.89 116.17 61.74 116.17 89.92 151.6 89.92 160.5 97.69 160.5 138.84 222.83 138.84 222.83 102.23 209.96 90.79 210.62 90.05 223.83 101.78 223.83 139.84"/><path d="M224.33,140.33H159v-42l-8-7H114.67V60.25l102.23-.87v2l-100.24.86V89.42h35.11l9.22,8v40.87h61.33V102.46L209.25,90.84l1.33-1.5,13.75,12.22Zm-64.33-1h0Zm50.66-48.58,10.68,9.48Zm-95-.33h35.74l8.59,7.5-8.59-7.5Zm100.24-30-7.42.06Z"/><polygon points="182.6 88.2 171.16 88.2 165.44 98.11 171.16 108.02 182.6 108.02 188.32 98.11 182.6 88.2"/><polygon points="183.76 111.6 172.31 111.6 166.59 121.51 172.31 131.42 183.76 131.42 189.48 121.51 183.76 111.6"/><polygon points="208.96 111.05 197.51 111.05 191.79 120.96 197.51 130.87 208.96 130.87 214.68 120.96 208.96 111.05"/></svg>