<svg id="Layer_1" data-name="Layer 1" xmlns="http://www.w3.org/2000/svg" viewBox="0 0 510 510"><defs><style>.cls-1{fill:#abf900;stroke:#000;stroke-miterlimit:10;stroke-width:2.83px;}</style></defs><path class="cls-1" d="M157.82,27.75c-1-1.75-2-3.5-3-5.23.67,1.15,1.34,2.28,2,3.39C157.16,26.55,157.49,27.17,157.82,27.75Z"/><path class="cls-1" d="M173.06,46l-.18,0-3.41-3.24c.58.55,1.17,1.08,1.76,1.6S172.44,45.5,173.06,46Z"/><path class="cls-1" d="M509.21,188.37a37.52,37.52,0,0,1-3.08,10.78l-3,5.23c-14.74,14.28-29.87,24.3-45.63,31-15.21,6.46-30.61,10.56-45.95,15.15L410,251a13.46,13.46,0,0,1,2.57.76c7.38,1.54,14.77,3.1,22.15,4.75,4.14.92,7.45,3.47,10.52,9.81,2.92,6,4.18,15,4.36,23.7.17,8.34-1.78,17.87-4.36,23.68-3,6.77-6.45,8.8-10.52,9.82q-14.93,3.74-29.87,6.51a444.3,444.3,0,0,1-82.74,7.33Q308,355.4,294.39,375.19q-11.07,26.81-23,51.72-13.92,29-28.93,55.16c-7,12.29-14.43,28.33-23.94,28.43-6.88.08-13.64-7.93-17.25-21.24-4.18-15.46-3.46-36.3,3-48.08,20.31-37.12,41.19-72.78,62.89-105.7q4-6.08,8-12c.73-1.78,1.46-3.58,2.17-5.37h-2.66q-5,4.27-10,8.57l-48.73,41.62c-7,5.94-14.9-5.25-17.55-19.4a74.48,74.48,0,0,1,1-30.64l-38.4.08c-26.68,12.85-53.55,23-81,25.45-9.06.81-17.66-22.28-14.34-42.4,2.64-16.05,7.1-29.66,14-37.67a33.28,33.28,0,0,1,19.49-11.56c5.79-1.3,11.66-.71,17.47-.73l20.63,0,21.11,0c11-5.43,22-11.22,32.94-17.07a67.13,67.13,0,0,1-1.39-10.4c0-.11,0-.21,0-.32l-16,0q-79.72.12-159.46.26c-8.33,0-14.51-15.37-14.88-33.51-.37-18.69,7.12-32.68,14.88-33.5q42.38-4.47,84.78-7.83C91.47,138.32,86.56,119.22,89,97.45,90.35,84.67,94.38,73.09,99.6,67a25.3,25.3,0,0,1,14.48-8.73l2.78-.66c-2.61-6-4.22-14.29-4.41-23.43C112.1,16.29,119.55.44,127.33.69,132.89.88,139.5-1,144.67,3.92c4.76,4.53,8.23,14.42,12.17,22-.69-1.11-1.36-2.24-2-3.39,1,1.73,2,3.48,3,5.23-.33-.58-.66-1.2-1-1.84a104.87,104.87,0,0,0,14.39,18.51c-.59-.52-1.18-1.05-1.76-1.6l3.41,3.24.18,0L252.15,29.6C288.88,22,325.62,13.55,362.49,10a307.23,307.23,0,0,1,55.42-.78c4.46.37,8.92.85,13.38,1.48,6.78,1,12.94,3.19,18,14.46,5.49,12.22,5.62,28.49,4.81,44.4q-.59,11.49-1.17,23l41.67.07c8.34,0,14.52,15.33,14.88,33.5.17,8.34-1.78,17.87-4.35,23.69l-.06.12A52.51,52.51,0,0,1,510,166.54,70.09,70.09,0,0,1,509.21,188.37Z"/><path d="M428.12,52.81a15.5,15.5,0,1,1,15.5-15.5A15.51,15.51,0,0,1,428.12,52.81Zm0-28a12.5,12.5,0,1,0,12.5,12.5A12.51,12.51,0,0,0,428.12,24.81Z"/><circle cx="475.91" cy="124.89" r="4.18"/><circle cx="469.91" cy="154.01" r="4.18"/><polygon points="483.33 204.34 419 204.34 419 162.64 410.72 155.42 374.67 155.42 374.67 125.25 475.9 124.39 475.91 125.39 375.67 126.24 375.67 154.42 411.1 154.42 420 162.19 420 203.34 482.33 203.34 482.33 166.73 469.46 155.29 470.12 154.55 483.33 166.28 483.33 204.34"/><path d="M483.83,204.83H418.5v-42l-8-7H374.17V124.75l102.23-.87v2l-100.24.86v27.18h35.11l9.22,8v40.87h61.33V167l-13.08-11.62,1.33-1.5,13.75,12.22Zm-64.33-1h0Zm50.66-48.58,10.68,9.48Zm-95-.33h35.74l8.59,7.5-8.59-7.5Zm100.24-30L468,125Z"/><polygon points="442.1 152.7 430.66 152.7 424.94 162.61 430.66 172.51 442.1 172.51 447.82 162.61 442.1 152.7"/><polygon points="443.26 176.1 431.81 176.1 426.09 186.01 431.81 195.92 443.26 195.92 448.98 186.01 443.26 176.1"/><polygon points="468.45 175.55 457.01 175.55 451.29 185.46 457.01 195.37 468.45 195.37 474.18 185.46 468.45 175.55"/><path d="M130.17,79.87a6.53,6.53,0,0,1-7.09-7.2V68.49a6.53,6.53,0,0,1,7.09-7.2A6.14,6.14,0,0,1,136.88,68v.16h-2.73v-.23a4.4,4.4,0,0,0-1-3,3.71,3.71,0,0,0-3-1.15A4.13,4.13,0,0,0,127,65a4.87,4.87,0,0,0-1.14,3.43v4.28A4.87,4.87,0,0,0,127,76.14a4.1,4.1,0,0,0,3.19,1.25,3.68,3.68,0,0,0,3-1.16,4.41,4.41,0,0,0,1-3v-.43h2.73v.36a6.14,6.14,0,0,1-6.71,6.66Z"/><path d="M146.65,79.87A7.28,7.28,0,0,1,141.42,78a7.07,7.07,0,0,1-1.94-5.35V68.49a7.07,7.07,0,0,1,1.94-5.35,8.35,8.35,0,0,1,10.48,0,7,7,0,0,1,1.95,5.35v4.18A7,7,0,0,1,151.9,78,7.35,7.35,0,0,1,146.65,79.87Zm0-2.48a4.27,4.27,0,0,0,3.27-1.23,4.83,4.83,0,0,0,1.15-3.39V68.39A4.79,4.79,0,0,0,149.92,65a4.89,4.89,0,0,0-6.51,0,4.71,4.71,0,0,0-1.17,3.38v4.38a4.75,4.75,0,0,0,1.17,3.39A4.26,4.26,0,0,0,146.65,77.39Z"/><path d="M157.11,79.51V61.65h5.18l3.9,16h.41l3.91-16h5.17V79.51H173V63.59h-.41l-3.88,15.92h-4.64L160.2,63.59h-.41V79.51Z"/><path d="M179.41,79.51V61.65h5.18l3.9,16h.41l3.9-16H198V79.51H195.3V63.59h-.4L191,79.51h-4.65L182.5,63.59h-.41V79.51Z"/><path d="M201.71,79.51V61.65h2.75V79.51Z"/><path d="M214.26,79.87a8.37,8.37,0,0,1-3.57-.72,5.5,5.5,0,0,1-2.44-2.1,6.19,6.19,0,0,1-.88-3.38V73h2.73v.64a3.49,3.49,0,0,0,1.13,2.83,4.59,4.59,0,0,0,3,.94,4.42,4.42,0,0,0,2.88-.8,2.57,2.57,0,0,0,1-2.08,2,2,0,0,0-.46-1.38,3.13,3.13,0,0,0-1.3-.85,17.4,17.4,0,0,0-2-.6l-.94-.23a14.92,14.92,0,0,1-3-1,4.85,4.85,0,0,1-1.95-1.59,4.41,4.41,0,0,1-.69-2.55,4.63,4.63,0,0,1,.78-2.71,5,5,0,0,1,2.15-1.73,7.9,7.9,0,0,1,3.24-.62,8.38,8.38,0,0,1,3.33.64,5.27,5.27,0,0,1,2.31,1.89,5.5,5.5,0,0,1,.84,3.14v.92H217.7V67a3.33,3.33,0,0,0-.47-1.86,2.68,2.68,0,0,0-1.31-1,5.42,5.42,0,0,0-2-.33,4.19,4.19,0,0,0-2.54.67,2.22,2.22,0,0,0-.9,1.88,2.19,2.19,0,0,0,.39,1.34,2.83,2.83,0,0,0,1.16.85,10.77,10.77,0,0,0,1.92.59l.94.23a15.08,15.08,0,0,1,3.06,1,5.21,5.21,0,0,1,2.09,1.62,4.28,4.28,0,0,1,.77,2.63,5,5,0,0,1-.8,2.81,5.34,5.34,0,0,1-2.29,1.87A8.32,8.32,0,0,1,214.26,79.87Z"/><path d="M229.8,79.87a8.44,8.44,0,0,1-3.58-.72,5.47,5.47,0,0,1-2.43-2.1,6.19,6.19,0,0,1-.88-3.38V73h2.73v.64a3.49,3.49,0,0,0,1.13,2.83,4.59,4.59,0,0,0,3,.94,4.42,4.42,0,0,0,2.88-.8,2.6,2.6,0,0,0,1-2.08,2.09,2.09,0,0,0-.46-1.38,3.2,3.2,0,0,0-1.3-.85,18,18,0,0,0-2-.6l-.94-.23a14.92,14.92,0,0,1-3-1,4.82,4.82,0,0,1-2-1.59,4.41,4.41,0,0,1-.69-2.55,4.63,4.63,0,0,1,.78-2.71,5,5,0,0,1,2.16-1.73,7.9,7.9,0,0,1,3.24-.62,8.38,8.38,0,0,1,3.33.64,5.27,5.27,0,0,1,2.31,1.89A5.5,5.5,0,0,1,236,67v.92h-2.73V67a3.33,3.33,0,0,0-.47-1.86,2.75,2.75,0,0,0-1.32-1,5.33,5.33,0,0,0-2-.33,4.17,4.17,0,0,0-2.54.67,2.23,2.23,0,0,0-.91,1.88,2.2,2.2,0,0,0,.4,1.34,2.76,2.76,0,0,0,1.16.85,10.9,10.9,0,0,0,1.91.59l1,.23a15.29,15.29,0,0,1,3.06,1,5.28,5.28,0,0,1,2.09,1.62,4.28,4.28,0,0,1,.77,2.63,4.91,4.91,0,0,1-.81,2.81,5.25,5.25,0,0,1-2.28,1.87A8.36,8.36,0,0,1,229.8,79.87Z"/><path d="M239.26,79.51V61.65H242V79.51Z"/><path d="M252.45,79.87A7.26,7.26,0,0,1,247.22,78a7.07,7.07,0,0,1-1.94-5.35V68.49a7.07,7.07,0,0,1,1.94-5.35,8.33,8.33,0,0,1,10.47,0,7,7,0,0,1,1.95,5.35v4.18A7,7,0,0,1,257.69,78,7.32,7.32,0,0,1,252.45,79.87Zm0-2.48a4.23,4.23,0,0,0,3.26-1.23,4.79,4.79,0,0,0,1.15-3.39V68.39A4.74,4.74,0,0,0,255.71,65a4.88,4.88,0,0,0-6.5,0A4.71,4.71,0,0,0,248,68.39v4.38a4.76,4.76,0,0,0,1.18,3.39A4.26,4.26,0,0,0,252.45,77.39Z"/><path d="M262.91,79.51V61.65h5.31l4.84,16h.41v-16h2.73V79.51h-5.31l-4.84-16.05h-.41V79.51Z"/><path d="M279.92,79.51V61.65h11.26v2.5h-8.5v5.13h7.78v2.5h-7.78V77h8.62v2.5Z"/><path d="M293.52,79.51V77.06h2.4v-13h-2.4V61.65h7.15a7.66,7.66,0,0,1,5.47,1.81,7.24,7.24,0,0,1,1.9,5.46v3.34a7.19,7.19,0,0,1-1.9,5.45,7.66,7.66,0,0,1-5.47,1.8ZM298.7,77h2a4.55,4.55,0,0,0,3.44-1.17,4.89,4.89,0,0,0,1.13-3.5V68.82a4.8,4.8,0,0,0-1.13-3.49,4.58,4.58,0,0,0-3.44-1.15h-2Z"/><path d="M319.09,79.51l-2.63-17.86h2.75l2.15,16h.4l2.76-16h4.82l2.76,16h.4l2.12-16h2.76l-2.63,17.86h-4.82l-2.81-16.23h-.41l-2.78,16.23Z"/><path d="M346.64,79.87A7.26,7.26,0,0,1,341.41,78a7,7,0,0,1-1.94-5.35V68.49a7,7,0,0,1,1.94-5.35,8.33,8.33,0,0,1,10.47,0,7,7,0,0,1,1.95,5.35v4.18A7,7,0,0,1,351.88,78,7.32,7.32,0,0,1,346.64,79.87Zm0-2.48a4.23,4.23,0,0,0,3.26-1.23,4.79,4.79,0,0,0,1.15-3.39V68.39A4.74,4.74,0,0,0,349.9,65a4.88,4.88,0,0,0-6.5,0,4.71,4.71,0,0,0-1.18,3.38v4.38a4.76,4.76,0,0,0,1.18,3.39A4.26,4.26,0,0,0,346.64,77.39Z"/><path d="M357.1,79.51V61.65h7.5a6.89,6.89,0,0,1,2.92.58,4.47,4.47,0,0,1,2,1.64,4.56,4.56,0,0,1,.71,2.55v.28a4.15,4.15,0,0,1-.81,2.69,4.24,4.24,0,0,1-1.95,1.42v.41a2.25,2.25,0,0,1,1.56.65,2.36,2.36,0,0,1,.58,1.72v5.92h-2.78V74a1.58,1.58,0,0,0-.36-1.09,1.44,1.44,0,0,0-1.14-.41h-5.44v7ZM359.85,70h4.44a3.28,3.28,0,0,0,2.3-.75,2.69,2.69,0,0,0,.81-2.06V67a2.68,2.68,0,0,0-.8-2.06,3.28,3.28,0,0,0-2.31-.75h-4.44Z"/><path d="M373.22,79.51V61.65H376v7.43h.4L383,61.65h3.6l-8.06,8.8,8.34,9.06h-3.7l-6.84-7.58H376v7.58Z"/></svg>