<svg id="Layer_1" data-name="Layer 1" xmlns="http://www.w3.org/2000/svg" viewBox="0 0 250 150"><defs><style>.cls-1{fill:#abf900;}.cls-2{fill:#fff;}.cls-3,.cls-4{fill:#e9f540;}.cls-4{stroke:#e9f540;stroke-miterlimit:10;}</style></defs><path class="cls-1" d="M95.57,5c-1.93-.84-3.7-2-5.69-2.71a22.54,22.54,0,0,0-8.07-.66l-55,2.1c-4.08.15-8.25.33-12,1.9C8.25,8.32,4,15,2.64,21.93S2.31,36,3.75,42.88c1.48,7.12,4,14.94,10.47,18.35,3.09,1.62,6.67,2,10.06,2.84s6.9,2.47,8.46,5.57c1.74,3.45.51,7.63-1.26,11.06s-4.13,6.72-4.69,10.53c-.89,6,3.16,12,8.63,14.8a7.05,7.05,0,0,1,3.1,2.19c1.13,1.84,0,4.15-.84,6.15a19,19,0,0,0,1,16.36,9.82,9.82,0,0,0,5.12,4.74c2.27.76,5.17,0,6.19-2.18s0-4.49-.2-6.78,1.61-5.2,3.78-4.39c1.33.49,1.81,2.09,1.91,3.48.21,2.81-.41,5.61-.6,8.43s.16,5.85,2,8,5.53,2.92,7.55.92,1.27-5.71.24-8.56L69.53,141c1.62,2.2,3.41,4.53,6,5.36s6.15-.81,6.09-3.52c0-1.67-1.35-3.13-1.27-4.79l6.35,6c1.94,1.83,4.1,3.76,6.77,4,2,.21,4.43-1.1,4.93-3.12.16-.65-.12-1-.09-1.56,0-.86,1-1.5,1.75-1.79a6.8,6.8,0,0,1,5.63.59c2.57,1.47,4.69,3.9,7.61,4.41,1.67.29,4-1,3.25-2.52,5.15,1.69,10.88-1.37,16.14-.06,2.66.66,5,2.41,7.76,2.59s5.86-2.65,4.38-4.94a38,38,0,0,0,10.37,4.74,6.16,6.16,0,0,0,3.12.28c3.41-.85,3.14-6,1-8.73s-5.4-5.05-5.84-8.5c-.55-4.24,4-7.86,8.31-7.78s8.16,2.81,11.15,5.91c4.41,4.57,7.79,10.28,13.18,13.68s14,3.18,16.76-2.52c1-2.14,1.68-5.23,4.08-5.37,1.33-.08,2.43.92,3.53,1.67a11.32,11.32,0,0,0,13.28-.72,11,11,0,0,0,2.64-12.89c-1.2-2.41-3.32-4.39-3.94-7-1.24-5.21,4.26-9.9,9.64-10.55,1.91-.23,4-.17,5.59-1.21,3.46-2.22,2.45-7.4,1-11.24l-7-19c-1.23-3.35-2.47-7.06-1.19-10.39,1.39-3.64,5.28-5.59,8.28-8.13,4.88-4.13,7.64-10.3,8.8-16.55s.89-12.67.61-19c-.12-2.67-.3-5.49-1.85-7.68a12.6,12.6,0,0,0-3.68-3.16c-5.66-3.59-12.26-6.14-19-5.73S210.32,6,207.93,12.23c-1.19,3.08-1.26,6.45-1.77,9.7a37,37,0,0,1-23.69,28.44c-9.2,3.29-19.47,2.85-28.52,6.5-4,1.63-7.76,4.05-11.92,5.36s-9.14,1.29-12.42-1.55c-2.55-2.21-3.24-5.38-4.31-8.39-2.22-6.24-5.85-11.87-5.54-18.74a19,19,0,0,1,2.54-8.77c1.48-2.51,4.43-4.47,4.68-7.57A8.58,8.58,0,0,0,122.27,9a21.57,21.57,0,0,0-2.79-.9,18.86,18.86,0,0,0-3.5-.87,59.65,59.65,0,0,0-7.79-.44C103.93,6.74,99.53,6.67,95.57,5Z"/><path d="M96.32,3.64C93.87,2.55,91.62,1,89,.42a33.73,33.73,0,0,0-8.4-.31L62,.82c-12.18.46-24.36.86-36.54,1.39-5.19.23-10.52.86-14.87,4A24,24,0,0,0,2.49,17.12C.49,22.25.21,27.93.72,33.37a77.8,77.8,0,0,0,3,15.57C5,53.12,7,57.34,10.28,60.29c4.06,3.63,9.14,4,14.13,5.38a12.75,12.75,0,0,1,5.84,3,7.22,7.22,0,0,1,1.58,6.87c-1.17,5.2-5.19,9.18-6.33,14.4a15.18,15.18,0,0,0,3.59,12.9,17.91,17.91,0,0,0,5.58,4.44c.83.43,2,.81,2.56,1.65.65,1,0,2.44-.36,3.44a26,26,0,0,0-2,7.56,20.54,20.54,0,0,0,.86,7.55c1.35,4.35,4.46,9.36,9.4,9.72a6.69,6.69,0,0,0,5.44-2.08c1.82-2.1,1.37-4.81.94-7.33a5.2,5.2,0,0,1,.12-3.1c.27-.6.88-1.55,1.62-1.11s.79,1.9.82,2.67a31.59,31.59,0,0,1-.3,4.45c-.55,4.69-.92,10.58,3.5,13.59,3.72,2.54,9.2,1.15,9.92-3.74a13.83,13.83,0,0,0-1-6.6l-2.73,1.16c2,2.69,3.91,5.44,6,8.07,1.66,2.13,3.79,4.23,6.53,4.7a6.59,6.59,0,0,0,6.32-2.36,4.59,4.59,0,0,0,.86-3.37c-.19-1.45-1.2-2.73-1.21-4.2l-2.55,1.07a117.74,117.74,0,0,0,8.94,8.23c2.6,2,6,3.11,9,1.29a5.41,5.41,0,0,0,2.62-3.48c.11-.6-.22-1.38.11-1.82s1.76-.63,2.36-.6c3.4.15,5.77,3.44,8.75,4.73a5.7,5.7,0,0,0,5.09.08,3.25,3.25,0,0,0,1.81-3.89l-1.84,1.87c3.19,1,6.42.44,9.64,0a24.72,24.72,0,0,1,4.7-.32,13.78,13.78,0,0,1,4.73,1.34c2.75,1.19,5.62,2.3,8.47.78,2.31-1.23,3.83-3.95,2.43-6.43l-2,2.07a40.37,40.37,0,0,0,6.16,3.27,21.45,21.45,0,0,0,6.74,2c3.74.23,5.75-3.06,5.36-6.54-.44-3.94-3.27-6.14-5.62-9-1.07-1.3-2-2.93-1.73-4.69a5.93,5.93,0,0,1,3.11-3.9c3.76-2.14,8.1-.34,11.23,2.13,3.42,2.7,6,6.35,8.79,9.64,2.57,3,5.51,6,9.16,7.64a16.29,16.29,0,0,0,9.95,1.09,10.06,10.06,0,0,0,7.2-5.71c.49-1.11,1-3.45,2.23-4,.79-.34,1.64.36,2.26.79a14.67,14.67,0,0,0,2.73,1.6,12.41,12.41,0,0,0,17.19-9.55,12.16,12.16,0,0,0-.5-5.65,24.23,24.23,0,0,0-3-5.24c-1-1.58-1.84-3.29-1.36-5.22a7.76,7.76,0,0,1,3-4.1,11.49,11.49,0,0,1,5.25-2.21c2.14-.3,4.4-.19,6.3-1.41,3.17-2,3.43-6,2.75-9.39a37.92,37.92,0,0,0-1.87-5.88l-2.74-7.42-2.73-7.42a38.83,38.83,0,0,1-2.22-7.06,7.61,7.61,0,0,1,1.42-6.16,22.52,22.52,0,0,1,4.31-3.72,27.73,27.73,0,0,0,8.27-9.22c4.58-8.54,4.56-18.45,4.15-27.91-.19-4.42-.37-9-4-12a36.36,36.36,0,0,0-12.18-6.3c-8-2.46-17.25-1.56-23.42,4.62-3.06,3.06-4.38,6.91-4.94,11.16s-1.11,8.2-2.77,12.11a36.13,36.13,0,0,1-15.12,17.08c-8,4.62-17.35,4.87-26.2,6.73a54.54,54.54,0,0,0-13.29,4.88c-3.92,2-8.1,3.93-12.59,3.42a8.54,8.54,0,0,1-5.07-2.28,13.09,13.09,0,0,1-2.82-5.32C126,49.7,124,45.75,122.6,41.58a19.78,19.78,0,0,1-.34-13.21,16.36,16.36,0,0,1,3.22-5.26,11.68,11.68,0,0,0,2.84-4.8,10,10,0,0,0-4.65-10.24,11.84,11.84,0,0,0-3-1.17c-1.14-.32-2.24-.73-3.4-1a43.32,43.32,0,0,0-7.63-.62c-4.63-.09-9.32,0-13.69-1.83-1.77-.74-2.54,2.19-.79,2.92,4.36,1.83,9.11,1.85,13.75,1.92a42.54,42.54,0,0,1,7.56.54c1.1.21,2.14.58,3.21.89A8.78,8.78,0,0,1,122.63,11a7.2,7.2,0,0,1,2.84,4.77c.26,2-.65,3.47-1.87,4.92a22.33,22.33,0,0,0-3.31,4.69,20.78,20.78,0,0,0-1.87,6.43,25.65,25.65,0,0,0,2.1,12.72c.82,2.08,1.76,4.11,2.59,6.19.76,1.89,1.32,3.86,2.07,5.77,1.5,3.85,4.17,6.79,8.26,7.73s8.17,0,11.94-1.64c4.27-1.83,8.23-4.24,12.73-5.53a116.38,116.38,0,0,1,13.74-2.62A56.65,56.65,0,0,0,184.92,51a37.9,37.9,0,0,0,9.66-6,38.44,38.44,0,0,0,12.21-19c1.16-4.19,1-8.68,2.35-12.81a14.65,14.65,0,0,1,7.6-8.15c8.06-4,17.44-1.17,24.7,3.29,1.79,1.1,3.64,2.3,4.48,4.35a18.66,18.66,0,0,1,.9,6.26,94.13,94.13,0,0,1-.2,15.39,33,33,0,0,1-3.81,12.26,22.92,22.92,0,0,1-3.68,4.91,42.82,42.82,0,0,1-4.58,3.7c-3.29,2.5-6.05,5.48-6,9.92A21,21,0,0,0,230,71.92c.88,2.46,1.8,4.9,2.7,7.34,1.69,4.57,3.58,9.12,5,13.77.85,2.7,1.89,7.33-1.52,8.66-2,.77-4.22.47-6.25,1a14.35,14.35,0,0,0-5,2.54c-2.86,2.25-4.82,5.78-3.93,9.52s4.54,6.28,4.91,10.31a9.34,9.34,0,0,1-4.67,9.07,10,10,0,0,1-10.53-.83c-1.6-1.13-3.43-2.05-5.36-1.14a6.49,6.49,0,0,0-2.86,3.57,11.65,11.65,0,0,1-2.21,4,7.75,7.75,0,0,1-3.88,2,13,13,0,0,1-9-1.47c-7.38-4.18-10.84-12.92-17.91-17.54-3.35-2.19-7.62-3.39-11.46-1.86-3.21,1.28-6.11,4.22-6.09,7.93,0,4,3.26,6.63,5.64,9.38a6.93,6.93,0,0,1,1.82,4.15c.07,1.11-.16,2.49-1.36,2.86a6,6,0,0,1-3.3-.49c-1.05-.33-2.09-.7-3.11-1.12a36.94,36.94,0,0,1-6-3.22c-1.29-.83-2.76.8-2,2.08,1,1.76-2.34,2.79-3.51,2.61-2.65-.39-4.92-2.12-7.55-2.62-5.18-1-10.46,1.73-15.54.19a1.52,1.52,0,0,0-1.84,1.86c.09.33.12.36.09.08a.82.82,0,0,1-.26.23,3.24,3.24,0,0,1-.92.32,4.54,4.54,0,0,1-2.45-.74c-1.59-.87-2.94-2.11-4.47-3.09-2.71-1.74-7.7-2.66-9.79.61-.58.9-.32,1.54-.37,2.51a2.07,2.07,0,0,1-1,1.55,4.31,4.31,0,0,1-4.65-.19,25.66,25.66,0,0,1-4.55-3.79l-5.28-5A1.51,1.51,0,0,0,78.89,138a8.67,8.67,0,0,0,.8,3.16,2.78,2.78,0,0,1,.23,2.5c-.88,1.45-3.08,1.61-4.47,1-1.92-.84-3.3-2.66-4.52-4.31Q68.46,137,66,133.63c-.92-1.24-3.36-.59-2.73,1.17s1.61,4.35.73,6.27-3.11,1.81-4.66,1c-4.4-2.31-2.77-9.06-2.41-13,.21-2.18.39-4.84-.85-6.77A3.73,3.73,0,0,0,51,121a6.15,6.15,0,0,0-2.62,4.85c-.12,2.15,1.54,5.23.12,7.14-1.15,1.55-3.55,1.45-5.06.61a10.61,10.61,0,0,1-4.14-5.14,17.9,17.9,0,0,1,0-14.12c.9-2.19,1.85-4.68.52-6.92-1.11-1.87-3.37-2.47-5.09-3.58-3.54-2.27-6.42-6.25-6.54-10.62C28,88.13,31.77,84,33.65,79.57c1.82-4.32,2.2-9.42-1.29-13-3.29-3.36-8.07-4-12.4-5a17.45,17.45,0,0,1-6.79-2.78A15.26,15.26,0,0,1,9.33,54.4c-2.23-3.69-3.33-8-4.2-12.15-1.14-5.51-2-11.14-1.5-16.77A25,25,0,0,1,8.29,12.66,17.6,17.6,0,0,1,19.53,5.8a55.26,55.26,0,0,1,8-.64l8.67-.33,17.34-.66L71.16,3.5l8.67-.33A35.64,35.64,0,0,1,88,3.3c2.49.5,4.57,1.93,6.86,3C96.56,7,98.07,4.43,96.32,3.64Z"/><circle class="cls-2" cx="228" cy="27" r="14"/><path d="M228,42.5A15.5,15.5,0,1,1,243.5,27,15.51,15.51,0,0,1,228,42.5Zm0-28A12.5,12.5,0,1,0,240.5,27,12.52,12.52,0,0,0,228,14.5Z"/><path d="M7.73,38.07V20.21h7.09a6.43,6.43,0,0,1,2.92.65,5,5,0,0,1,2,1.84,5.39,5.39,0,0,1,.73,2.85v.33a5.25,5.25,0,0,1-.76,2.85,4.94,4.94,0,0,1-2,1.84,6.29,6.29,0,0,1-2.88.64H10.48v6.86Zm2.75-9.36h4.06a3.38,3.38,0,0,0,2.32-.77,2.63,2.63,0,0,0,.87-2.09V25.6a2.68,2.68,0,0,0-.87-2.12,3.38,3.38,0,0,0-2.32-.77H10.48Z"/><path d="M29.82,38.43a7.28,7.28,0,0,1-5.23-1.85,7.06,7.06,0,0,1-1.94-5.35V27.05a7,7,0,0,1,1.94-5.34,7.24,7.24,0,0,1,5.23-1.85,7.26,7.26,0,0,1,5.24,1.85,7,7,0,0,1,2,5.34v4.18a7,7,0,0,1-2,5.35A7.3,7.3,0,0,1,29.82,38.43Zm0-2.48a4.27,4.27,0,0,0,3.27-1.23,4.81,4.81,0,0,0,1.15-3.38V27a4.79,4.79,0,0,0-1.15-3.38,4.24,4.24,0,0,0-3.27-1.24,4.23,4.23,0,0,0-3.24,1.24A4.71,4.71,0,0,0,25.41,27v4.39a4.73,4.73,0,0,0,1.17,3.38A4.26,4.26,0,0,0,29.82,36Z"/><path d="M46.35,38.43a8.43,8.43,0,0,1-3.57-.72,5.5,5.5,0,0,1-2.44-2.1,6.25,6.25,0,0,1-.87-3.38v-.64h2.72v.64a3.46,3.46,0,0,0,1.14,2.83,4.57,4.57,0,0,0,3,.95,4.43,4.43,0,0,0,2.89-.81,2.59,2.59,0,0,0,1-2.08,2.09,2.09,0,0,0-.46-1.38,3.2,3.2,0,0,0-1.3-.85,18.67,18.67,0,0,0-2-.6l-.94-.23a15.26,15.26,0,0,1-3-1,4.85,4.85,0,0,1-1.95-1.59,4.36,4.36,0,0,1-.69-2.55,4.63,4.63,0,0,1,.78-2.71,5.12,5.12,0,0,1,2.16-1.73,7.9,7.9,0,0,1,3.24-.61,8.38,8.38,0,0,1,3.33.63,5.38,5.38,0,0,1,2.31,1.89,5.53,5.53,0,0,1,.84,3.14v.92H49.8v-.92a3.33,3.33,0,0,0-.47-1.86A2.75,2.75,0,0,0,48,22.61a5.33,5.33,0,0,0-2-.33,4.17,4.17,0,0,0-2.54.68,2.19,2.19,0,0,0-.91,1.87,2.12,2.12,0,0,0,.4,1.34,2.87,2.87,0,0,0,1.16.86,11,11,0,0,0,1.91.58l1,.23a16.19,16.19,0,0,1,3.06,1,5.28,5.28,0,0,1,2.09,1.62,4.28,4.28,0,0,1,.77,2.63,4.91,4.91,0,0,1-.81,2.81,5.31,5.31,0,0,1-2.28,1.87A8.37,8.37,0,0,1,46.35,38.43Z"/><path d="M59.42,38.07V22.71H53.93v-2.5H67.66v2.5H62.17V38.07Z"/><path d="M70.16,38.07V20.21H81.41v2.5h-8.5v5.13h7.78v2.5H72.91v5.23h8.62v2.5Z"/><path d="M84.42,38.07V20.21h7.5a6.89,6.89,0,0,1,2.92.58,4.47,4.47,0,0,1,2,1.64A4.56,4.56,0,0,1,97.51,25v.28A4.2,4.2,0,0,1,96.7,28a4.29,4.29,0,0,1-2,1.41v.41a2.25,2.25,0,0,1,1.56.65,2.36,2.36,0,0,1,.58,1.72v5.92H94.11V32.54a1.6,1.6,0,0,0-.36-1.1A1.44,1.44,0,0,0,92.61,31H87.17v7Zm2.75-9.54h4.44a3.28,3.28,0,0,0,2.3-.75,2.67,2.67,0,0,0,.81-2.06v-.2a2.65,2.65,0,0,0-.8-2.05,3.22,3.22,0,0,0-2.31-.76H87.17Z"/><path d="M106.38,38.07V35.62h2.4v-13h-2.4V20.21h7.15A7.66,7.66,0,0,1,119,22a7.24,7.24,0,0,1,1.9,5.46v3.35a7.18,7.18,0,0,1-1.9,5.44,7.66,7.66,0,0,1-5.47,1.8Zm5.18-2.5h2A4.55,4.55,0,0,0,117,34.4a4.88,4.88,0,0,0,1.13-3.5V27.38A4.8,4.8,0,0,0,117,23.89a4.58,4.58,0,0,0-3.44-1.15h-2Z"/><path d="M124,38.07V20.21h11.25v2.5h-8.49v5.13h7.78v2.5h-7.78v5.23h8.62v2.5Z"/><path d="M144.34,38.43a8.43,8.43,0,0,1-3.57-.72,5.42,5.42,0,0,1-2.43-2.1,6.16,6.16,0,0,1-.88-3.38v-.64h2.72v.64a3.46,3.46,0,0,0,1.14,2.83,4.59,4.59,0,0,0,3,.95,4.43,4.43,0,0,0,2.89-.81,2.59,2.59,0,0,0,1-2.08,2.09,2.09,0,0,0-.46-1.38,3.2,3.2,0,0,0-1.3-.85,18.67,18.67,0,0,0-2-.6l-.94-.23a15.26,15.26,0,0,1-3-1,4.85,4.85,0,0,1-1.95-1.59,4.36,4.36,0,0,1-.69-2.55,4.63,4.63,0,0,1,.78-2.71,5.12,5.12,0,0,1,2.16-1.73,7.9,7.9,0,0,1,3.24-.61,8.38,8.38,0,0,1,3.33.63,5.38,5.38,0,0,1,2.31,1.89,5.53,5.53,0,0,1,.84,3.14v.92h-2.73v-.92a3.33,3.33,0,0,0-.47-1.86A2.75,2.75,0,0,0,146,22.61a5.33,5.33,0,0,0-2-.33,4.17,4.17,0,0,0-2.54.68,2.19,2.19,0,0,0-.91,1.87,2.12,2.12,0,0,0,.4,1.34,2.87,2.87,0,0,0,1.16.86,11,11,0,0,0,1.91.58l.95.23a16.19,16.19,0,0,1,3.06,1,5.28,5.28,0,0,1,2.09,1.62,4.28,4.28,0,0,1,.77,2.63,4.91,4.91,0,0,1-.81,2.81,5.31,5.31,0,0,1-2.28,1.87A8.37,8.37,0,0,1,144.34,38.43Z"/><path d="M153.81,38.07V20.21h2.75V38.07Z"/><path d="M166.49,38.43a7,7,0,0,1-3.42-.83,5.87,5.87,0,0,1-2.37-2.44,8.15,8.15,0,0,1-.87-3.93V27.05a7.1,7.1,0,0,1,1.91-5.34,7.11,7.11,0,0,1,5.18-1.85,6.7,6.7,0,0,1,5,1.74,6.36,6.36,0,0,1,1.74,4.69v.12h-2.73v-.2a4.43,4.43,0,0,0-.44-2,3.28,3.28,0,0,0-1.3-1.39,4.34,4.34,0,0,0-2.22-.51,4.13,4.13,0,0,0-3.19,1.24A4.87,4.87,0,0,0,162.58,27v4.29a4.94,4.94,0,0,0,1.15,3.43A4.14,4.14,0,0,0,167,36a3.67,3.67,0,0,0,3-1.12,4.37,4.37,0,0,0,.95-2.91v-.33h-4.8V29.24h7.53v8.83h-2.56V36.26h-.4a4.67,4.67,0,0,1-.68,1,3.24,3.24,0,0,1-1.28.84A6,6,0,0,1,166.49,38.43Z"/><path d="M177.15,38.07V20.21h5.31l4.84,16h.41v-16h2.73V38.07h-5.3l-4.85-16h-.41V38.07Z"/><rect class="cls-3" x="53" y="55.8" width="50" height="50.2"/><circle class="cls-3" cx="189.94" cy="89.02" r="25.21"/><polygon class="cls-4" points="190.44 128.95 78.47 128.95 78.47 98.58 79.47 98.58 79.47 127.95 189.44 127.95 189.44 114.23 190.44 114.23 190.44 128.95"/></svg>