<svg id="Layer_1" data-name="Layer 1" xmlns="http://www.w3.org/2000/svg" viewBox="0 0 531 520"><defs><style>.cls-1{fill:#abf900;stroke:#000;stroke-miterlimit:10;stroke-width:2.83px;}.cls-2{fill:#f70093;}</style></defs><path class="cls-1" d="M519.21,188.37a37.52,37.52,0,0,1-3.08,10.78c-1,1.75-2,3.48-3,5.23-14.73,14.28-29.86,24.3-45.62,31-15.21,6.46-30.61,10.56-45.95,15.15L420,251a13.46,13.46,0,0,1,2.57.76c7.38,1.54,14.77,3.1,22.15,4.75,4.14.92,7.45,3.47,10.52,9.81,2.92,6,4.18,15,4.36,23.7.17,8.34-1.78,17.87-4.36,23.68-3,6.77-6.45,8.8-10.52,9.82q-14.93,3.74-29.87,6.51a444.3,444.3,0,0,1-82.74,7.33Q318,355.4,304.39,375.19q-11.07,26.81-23,51.72-13.92,29-28.93,55.16c-7,12.29-14.43,28.33-23.94,28.43-6.88.08-13.64-7.93-17.25-21.24-4.18-15.46-3.46-36.3,3-48.08,20.31-37.12,41.19-72.78,62.88-105.7q4-6.08,8.05-12c.73-1.78,1.46-3.58,2.17-5.37h-2.66q-5,4.27-10,8.57l-48.73,41.62c-7,5.94-14.9-5.25-17.55-19.4a74.48,74.48,0,0,1,1-30.64l-38.4.08c-26.68,12.85-53.55,23-81,25.45-9.06.81-17.66-22.28-14.34-42.4,2.64-16.05,7.1-29.66,14-37.67a33.28,33.28,0,0,1,19.49-11.56,35.52,35.52,0,0,1,6.62-.8,145.24,145.24,0,0,1-13.58-26.64c-.13-.34-.27-.68-.39-1l-77.37.14c-8.33,0-14.51-15.37-14.88-33.51-.37-18.69,7.12-32.68,14.88-33.5q42.38-4.47,84.78-7.83c-7.7-10.67-12.61-29.77-10.22-51.54,1.4-12.78,5.43-24.36,10.65-30.43a25.3,25.3,0,0,1,14.48-8.73l2.78-.66c-2.61-6-4.22-14.29-4.41-23.43C122.1,16.29,129.55.44,137.33.69,142.89.88,149.5-1,154.67,3.92c4.76,4.53,8.23,14.42,12.17,22a104.87,104.87,0,0,0,14.39,18.51c.6.56,1.21,1.08,1.83,1.61L262.15,29.6C298.88,22,335.62,13.55,372.49,10a307.23,307.23,0,0,1,55.42-.78c4.46.37,8.92.85,13.38,1.48,6.78,1,12.94,3.19,18,14.46,5.49,12.22,5.62,28.49,4.81,44.4q-.59,11.49-1.17,23l41.67.07c8.34,0,14.52,15.33,14.88,33.5.17,8.34-1.78,17.87-4.35,23.69a1.34,1.34,0,0,0-.06.12A52.51,52.51,0,0,1,520,166.54,70.09,70.09,0,0,1,519.21,188.37Z"/><path class="cls-2" d="M438.12,52.81a15.5,15.5,0,1,1,15.5-15.5A15.51,15.51,0,0,1,438.12,52.81Zm0-28a12.5,12.5,0,1,0,12.5,12.5A12.51,12.51,0,0,0,438.12,24.81Z"/><circle cx="432.91" cy="359.89" r="4.18"/><circle cx="426.91" cy="389.01" r="4.18"/><polygon points="440.33 439.33 376 439.33 376 397.64 367.72 390.42 331.67 390.42 331.67 360.25 432.9 359.39 432.91 360.39 332.67 361.24 332.67 389.42 368.1 389.42 377 397.19 377 438.33 439.33 438.33 439.33 401.73 426.46 390.29 427.12 389.55 440.33 401.28 440.33 439.33"/><path d="M440.83,439.83H375.5v-42l-8-6.95H331.17V359.75l102.23-.87v2l-100.24.86v27.18h35.11l9.22,8v40.87h61.33V402l-13.08-11.62,1.33-1.5,13.75,12.22Zm-64.33-1h0Zm50.66-48.58,10.68,9.48Zm-95-.33h35.74l8.59,7.5-8.59-7.5Zm100.24-30L425,360Z"/><polygon points="399.1 387.7 387.66 387.7 381.94 397.61 387.66 407.51 399.1 407.51 404.82 397.61 399.1 387.7"/><polygon points="400.26 411.1 388.81 411.1 383.09 421.01 388.81 430.92 400.26 430.92 405.98 421.01 400.26 411.1"/><polygon points="425.45 410.55 414.01 410.55 408.29 420.46 414.01 430.37 425.45 430.37 431.18 420.46 425.45 410.55"/><path d="M140.17,79.87a6.53,6.53,0,0,1-7.09-7.2V68.49a6.53,6.53,0,0,1,7.09-7.2A6.14,6.14,0,0,1,146.88,68v.16h-2.73v-.23a4.4,4.4,0,0,0-1-3,3.71,3.71,0,0,0-3-1.15A4.13,4.13,0,0,0,137,65a4.87,4.87,0,0,0-1.14,3.43v4.28A4.87,4.87,0,0,0,137,76.14a4.1,4.1,0,0,0,3.19,1.25,3.68,3.68,0,0,0,3-1.16,4.41,4.41,0,0,0,1-3v-.43h2.73v.36a6.14,6.14,0,0,1-6.71,6.66Z"/><path d="M156.65,79.87A7.28,7.28,0,0,1,151.42,78a7.07,7.07,0,0,1-1.94-5.35V68.49a7.07,7.07,0,0,1,1.94-5.35,8.35,8.35,0,0,1,10.48,0,7,7,0,0,1,1.95,5.35v4.18A7,7,0,0,1,161.9,78,7.35,7.35,0,0,1,156.65,79.87Zm0-2.48a4.27,4.27,0,0,0,3.27-1.23,4.83,4.83,0,0,0,1.15-3.39V68.39A4.79,4.79,0,0,0,159.92,65a4.89,4.89,0,0,0-6.51,0,4.71,4.71,0,0,0-1.17,3.38v4.38a4.75,4.75,0,0,0,1.17,3.39A4.26,4.26,0,0,0,156.65,77.39Z"/><path d="M167.11,79.51V61.65h5.18l3.9,16h.41l3.91-16h5.17V79.51H183V63.59h-.41l-3.88,15.92h-4.64L170.2,63.59h-.41V79.51Z"/><path d="M189.41,79.51V61.65h5.18l3.9,16h.41l3.9-16H208V79.51H205.3V63.59h-.4L201,79.51h-4.65L192.5,63.59h-.41V79.51Z"/><path d="M211.71,79.51V61.65h2.75V79.51Z"/><path d="M224.26,79.87a8.37,8.37,0,0,1-3.57-.72,5.5,5.5,0,0,1-2.44-2.1,6.19,6.19,0,0,1-.88-3.38V73h2.73v.64a3.49,3.49,0,0,0,1.13,2.83,4.59,4.59,0,0,0,3,.94,4.42,4.42,0,0,0,2.88-.8,2.57,2.57,0,0,0,1-2.08,2,2,0,0,0-.46-1.38,3.13,3.13,0,0,0-1.3-.85,17.4,17.4,0,0,0-2-.6l-.94-.23a14.92,14.92,0,0,1-3-1,4.85,4.85,0,0,1-1.95-1.59,4.41,4.41,0,0,1-.69-2.55,4.63,4.63,0,0,1,.78-2.71,5,5,0,0,1,2.15-1.73,7.9,7.9,0,0,1,3.24-.62,8.38,8.38,0,0,1,3.33.64,5.27,5.27,0,0,1,2.31,1.89,5.5,5.5,0,0,1,.84,3.14v.92H227.7V67a3.33,3.33,0,0,0-.47-1.86,2.68,2.68,0,0,0-1.31-1,5.42,5.42,0,0,0-2-.33,4.19,4.19,0,0,0-2.54.67,2.22,2.22,0,0,0-.9,1.88,2.19,2.19,0,0,0,.39,1.34,2.83,2.83,0,0,0,1.16.85,10.77,10.77,0,0,0,1.92.59l.94.23a15.08,15.08,0,0,1,3.06,1,5.21,5.21,0,0,1,2.09,1.62,4.28,4.28,0,0,1,.77,2.63,5,5,0,0,1-.8,2.81,5.34,5.34,0,0,1-2.29,1.87A8.32,8.32,0,0,1,224.26,79.87Z"/><path d="M239.8,79.87a8.44,8.44,0,0,1-3.58-.72,5.47,5.47,0,0,1-2.43-2.1,6.19,6.19,0,0,1-.88-3.38V73h2.73v.64a3.49,3.49,0,0,0,1.13,2.83,4.59,4.59,0,0,0,3,.94,4.42,4.42,0,0,0,2.88-.8,2.6,2.6,0,0,0,1-2.08,2.09,2.09,0,0,0-.46-1.38,3.2,3.2,0,0,0-1.3-.85,18,18,0,0,0-2-.6l-.94-.23a14.92,14.92,0,0,1-3-1,4.82,4.82,0,0,1-2-1.59,4.41,4.41,0,0,1-.69-2.55,4.63,4.63,0,0,1,.78-2.71,5,5,0,0,1,2.16-1.73,7.9,7.9,0,0,1,3.24-.62,8.38,8.38,0,0,1,3.33.64,5.27,5.27,0,0,1,2.31,1.89A5.5,5.5,0,0,1,246,67v.92h-2.73V67a3.33,3.33,0,0,0-.47-1.86,2.75,2.75,0,0,0-1.32-1,5.33,5.33,0,0,0-2-.33,4.17,4.17,0,0,0-2.54.67,2.23,2.23,0,0,0-.91,1.88,2.2,2.2,0,0,0,.4,1.34,2.76,2.76,0,0,0,1.16.85,10.9,10.9,0,0,0,1.91.59l1,.23a15.29,15.29,0,0,1,3.06,1,5.28,5.28,0,0,1,2.09,1.62,4.28,4.28,0,0,1,.77,2.63,4.91,4.91,0,0,1-.81,2.81,5.25,5.25,0,0,1-2.28,1.87A8.36,8.36,0,0,1,239.8,79.87Z"/><path d="M249.26,79.51V61.65H252V79.51Z"/><path d="M262.45,79.87A7.26,7.26,0,0,1,257.22,78a7.07,7.07,0,0,1-1.94-5.35V68.49a7.07,7.07,0,0,1,1.94-5.35,8.33,8.33,0,0,1,10.47,0,7,7,0,0,1,1.95,5.35v4.18A7,7,0,0,1,267.69,78,7.32,7.32,0,0,1,262.45,79.87Zm0-2.48a4.23,4.23,0,0,0,3.26-1.23,4.79,4.79,0,0,0,1.15-3.39V68.39A4.74,4.74,0,0,0,265.71,65a4.88,4.88,0,0,0-6.5,0A4.71,4.71,0,0,0,258,68.39v4.38a4.76,4.76,0,0,0,1.18,3.39A4.26,4.26,0,0,0,262.45,77.39Z"/><path d="M272.91,79.51V61.65h5.31l4.84,16h.41v-16h2.73V79.51h-5.31l-4.84-16.05h-.41V79.51Z"/><path d="M289.92,79.51V61.65h11.26v2.5h-8.5v5.13h7.78v2.5h-7.78V77h8.62v2.5Z"/><path d="M303.52,79.51V77.06h2.4v-13h-2.4V61.65h7.15a7.66,7.66,0,0,1,5.47,1.81,7.24,7.24,0,0,1,1.9,5.46v3.34a7.19,7.19,0,0,1-1.9,5.45,7.66,7.66,0,0,1-5.47,1.8ZM308.7,77h2a4.55,4.55,0,0,0,3.44-1.17,4.89,4.89,0,0,0,1.13-3.5V68.82a4.8,4.8,0,0,0-1.13-3.49,4.58,4.58,0,0,0-3.44-1.15h-2Z"/><path d="M329.09,79.51l-2.63-17.86h2.75l2.15,16h.4l2.76-16h4.82l2.76,16h.4l2.12-16h2.76l-2.63,17.86h-4.82l-2.81-16.23h-.41l-2.78,16.23Z"/><path d="M356.64,79.87A7.26,7.26,0,0,1,351.41,78a7,7,0,0,1-1.94-5.35V68.49a7,7,0,0,1,1.94-5.35,8.33,8.33,0,0,1,10.47,0,7,7,0,0,1,1.95,5.35v4.18A7,7,0,0,1,361.88,78,7.32,7.32,0,0,1,356.64,79.87Zm0-2.48a4.23,4.23,0,0,0,3.26-1.23,4.79,4.79,0,0,0,1.15-3.39V68.39A4.74,4.74,0,0,0,359.9,65a4.88,4.88,0,0,0-6.5,0,4.71,4.71,0,0,0-1.18,3.38v4.38a4.76,4.76,0,0,0,1.18,3.39A4.26,4.26,0,0,0,356.64,77.39Z"/><path d="M367.1,79.51V61.65h7.5a6.89,6.89,0,0,1,2.92.58,4.47,4.47,0,0,1,2,1.64,4.56,4.56,0,0,1,.71,2.55v.28a4.15,4.15,0,0,1-.81,2.69,4.24,4.24,0,0,1-1.95,1.42v.41a2.25,2.25,0,0,1,1.56.65,2.36,2.36,0,0,1,.58,1.72v5.92h-2.78V74a1.58,1.58,0,0,0-.36-1.09,1.44,1.44,0,0,0-1.14-.41h-5.44v7ZM369.85,70h4.44a3.28,3.28,0,0,0,2.3-.75,2.69,2.69,0,0,0,.81-2.06V67a2.68,2.68,0,0,0-.8-2.06,3.28,3.28,0,0,0-2.31-.75h-4.44Z"/><path d="M383.22,79.51V61.65H386v7.43h.4L393,61.65h3.6l-8.06,8.8,8.34,9.06h-3.7l-6.84-7.58H386v7.58Z"/><path d="M248.75,457.15,246.59,456l1.13-2.11-11.43-6.12-1.13,2.12L233,448.72l3.37-6.3a7.67,7.67,0,0,1,4.18-4,7.26,7.26,0,0,1,5.71.9l3,1.58c2.14,1.15,3.45,2.56,3.9,4.25a7.66,7.66,0,0,1-1,5.67Zm.24-5.75.94-1.75a4.59,4.59,0,0,0,.59-3.59,4.89,4.89,0,0,0-2.56-2.64l-3.1-1.66a4.8,4.8,0,0,0-3.61-.66,4.63,4.63,0,0,0-2.64,2.49l-.94,1.76Z"/><path d="M257.07,441.61l-15.75-8.43,3.54-6.61a6.87,6.87,0,0,1,1.89-2.31,4.44,4.44,0,0,1,2.37-.95,4.55,4.55,0,0,1,2.58.58l.25.13a4.21,4.21,0,0,1,2,2,4.42,4.42,0,0,1,.32,2.39l.36.19a2.28,2.28,0,0,1,1.31-1.06,2.36,2.36,0,0,1,1.8.29l5.21,2.8-1.31,2.45-4.88-2.61a1.6,1.6,0,0,0-1.14-.21,1.5,1.5,0,0,0-.9.82l-2.56,4.79,6.21,3.33ZM250,434.67l2.1-3.91a3.32,3.32,0,0,0,.42-2.38,2.66,2.66,0,0,0-1.43-1.69l-.18-.09a2.65,2.65,0,0,0-2.19-.26,3.21,3.21,0,0,0-1.75,1.68l-2.09,3.91Z"/><path d="M264.05,428.56l-13.34-12.92,2.29-4.28,18.14,3.95-1.34,2.5-4.26-.95-3.3,6.16,3.16,3Zm-3.73-7.35,2.64-4.95-9.5-2.14-.19.36Z"/><path d="M275.43,408.06a7.05,7.05,0,0,1-2.35,2.62,5.81,5.81,0,0,1-3.26.94,8.15,8.15,0,0,1-3.88-1.09l-3.69-2a6.53,6.53,0,0,1-3-9.65,6.66,6.66,0,0,1,3.87-3.54,6.37,6.37,0,0,1,4.95.68l.11.06-1.29,2.41-.18-.1a4.56,4.56,0,0,0-1.94-.55,3.25,3.25,0,0,0-1.84.49,4.29,4.29,0,0,0-1.5,1.72,4.13,4.13,0,0,0-.41,3.4,4.83,4.83,0,0,0,2.48,2.63l3.78,2a4.94,4.94,0,0,0,3.56.61,4.11,4.11,0,0,0,2.63-2.24,3.63,3.63,0,0,0,.42-3.16,4.37,4.37,0,0,0-2.11-2.21l-.3-.15-2.26,4.22-2.09-1.11,3.55-6.64,7.78,4.17-1.2,2.24-1.6-.85-.19.36a4.45,4.45,0,0,1,.56,1.07,3.34,3.34,0,0,1,.14,1.52A6.23,6.23,0,0,1,275.43,408.06Z"/><path d="M283.21,392.75l-15.74-8.42,2.44-4.57,16,4.12.19-.36-12.28-11,2.44-4.57L292,376.38l-1.26,2.36-14-7.51-.19.36,12.2,10.93-2.19,4.09-15.86-4.09-.2.36,14,7.51Z"/><path d="M293.74,373.09,278,364.67l5.31-9.92,2.21,1.18-4,7.49,4.52,2.42,3.67-6.86,2.2,1.18L288.22,367l4.61,2.47,4.07-7.61,2.21,1.18Z"/></svg>