<svg id="Layer_1" data-name="Layer 1" xmlns="http://www.w3.org/2000/svg" viewBox="0 0 399.33 325.43"><defs><style>.cls-1{fill:#b200fc;stroke:#000;stroke-miterlimit:10;stroke-width:2.83px;}.cls-2{fill:#e9f540;}</style></defs><path class="cls-1" d="M396.88,107.66c-.68,5.42-1.06,11.1-2.72,16.36a128.75,128.75,0,0,1-4.87,12.12,23.73,23.73,0,0,1-1.53,3.07c-.2.33-.42.63-.64.94-1.58,2.24-4.23,5.82-6,7.89a30.15,30.15,0,0,1-4.84,4.09,41.05,41.05,0,0,1-4.84,3.67l-8.9,3.85-.39.16-.6.16a31.22,31.22,0,0,1-11.34,1.38L340.32,160l-.38-.08a41.67,41.67,0,0,1-4.81-2c-5.48-2.37-4.53-1.74-9.22-5.44a39.76,39.76,0,0,1-4.64-3.77,38.61,38.61,0,0,1-2.43-3.12q-1.5,3.3-3,6.6a57,57,0,0,1,6.52,4.15,115.92,115.92,0,0,1,11.88,9.57A64.87,64.87,0,0,1,341,174a55.94,55.94,0,0,1,6,8.76c1.83,3.7,3.34,7.6,4.8,11.45a21,21,0,0,1,1,3.1c2.66,13.3,1.12,27-7.2,38.13a43.2,43.2,0,0,1-17.33,13.58,43.65,43.65,0,0,1-5.1,1.84c-1.29.37-4.89.44-5.81,1.25-1.88,1.64-.91,9.76-1.21,12.62-1.74,16.39-5,34.41-17,46.72A39.66,39.66,0,0,1,235.4,302c-.86-1.64-10.3-20.57-8.54-21.73-11.37,7.51-24.18,13.94-37.81,13.91a42.94,42.94,0,0,1-41.9-33.85c-1.76-8.11-1.11-16.55.55-24.62.29-1.42,1.39-3.68.34-4.68-.83-.79-4.17-.28-5.21-.22-3.28.17-6.51.86-9.78,1.06a7,7,0,0,0-3.78,1,6.75,6.75,0,0,0-1.68,2.2c-7.09,12.6-12.13,26.35-20.26,38.3S87,295.68,72.55,296.69a33.09,33.09,0,0,1-12.69-1.59,42.1,42.1,0,0,1-11.54-6.17,38,38,0,0,1-10.71-11.49c-4-7-4.86-15.48-3.4-23.39C37,239.17,47.74,229.68,54,216.57a302.69,302.69,0,0,1,16.26-30.68c-4.24-.48-8.2-2.54-12-4.19-4.49-1.95-8.92-4-13.32-6.19-6-2.92-12.35-5.7-18-9.28-9.31-5.87-17.56-14-21.69-24.18-7.75-19.13,1-41.48,15.81-54.6-1.94-3.59-4.31-8.23-5-12.29a41.17,41.17,0,0,1-.38-15.29c1.46-9.12,5.94-18.43,13.8-23.61a27.82,27.82,0,0,1,12.68-6.81A243.26,243.26,0,0,1,80.7,23.78c20.45-1.4,41.08,1,61.11,5.19,15.88,3.32,31.51,7.75,47.52,10.33q-2.76-.33-5.52-.7L193.72,40c-1.47-.2-2.93-.41-4.39-.66,12.58,1.45,25.24,2.06,37.9,2.34,11.22.25,22.46.26,33.69.4a28.46,28.46,0,0,1,2.09-4l5.83-7.7A149.27,149.27,0,0,1,287.4,16a111.09,111.09,0,0,1,16.65-8.42c9-3.87,19.38-7.82,29.29-5.19s18.17,9.19,26,15.45c5.32,4.24,10.77,8.65,14.77,14.21,3.83,5.31,4.45,11.75,6.44,17.81,3.91,11.89,12,21.39,14.49,33.9a109.73,109.73,0,0,1,2.12,16.76A42.11,42.11,0,0,1,396.88,107.66Z"/><path class="cls-1" d="M193.72,40l-9.91-1.36q2.76.38,5.52.7C190.79,39.55,192.25,39.76,193.72,40Z"/><path class="cls-2" d="M325.34,43.48A15.5,15.5,0,1,1,340.84,28,15.53,15.53,0,0,1,325.34,43.48Zm0-28A12.5,12.5,0,1,0,337.84,28,12.51,12.51,0,0,0,325.34,15.48Z"/><path d="M33,79V61.15h2.75V79Z"/><path d="M39.5,79V61.15h2.75V76.51h8.6V79Z"/><path d="M53.37,79V61.15h2.76V76.51h8.6V79Z"/><path d="M73.48,79.37a8,8,0,0,1-3.64-.77,5.55,5.55,0,0,1-2.35-2.2,7,7,0,0,1-.82-3.51V61.15h2.78V73a3.91,3.91,0,0,0,1,2.91,4.12,4.12,0,0,0,3,1,4.08,4.08,0,0,0,3-1A3.87,3.87,0,0,0,77.51,73V61.15h2.75V72.89a7.11,7.11,0,0,1-.81,3.51,5.44,5.44,0,0,1-2.35,2.2A8,8,0,0,1,73.48,79.37Z"/><path d="M89.93,79.37a8.43,8.43,0,0,1-3.57-.72,5.5,5.5,0,0,1-2.44-2.1A6.27,6.27,0,0,1,83,73.17v-.64h2.73v.64A3.46,3.46,0,0,0,86.91,76a4.57,4.57,0,0,0,3,.94,4.38,4.38,0,0,0,2.88-.8,2.57,2.57,0,0,0,1-2.08,2,2,0,0,0-.46-1.38,3.13,3.13,0,0,0-1.3-.85,17.79,17.79,0,0,0-2-.6l-1-.23a14.92,14.92,0,0,1-3-1,4.85,4.85,0,0,1-2-1.59,4.41,4.41,0,0,1-.69-2.55,4.63,4.63,0,0,1,.78-2.71,5,5,0,0,1,2.16-1.73,7.84,7.84,0,0,1,3.24-.62,8.29,8.29,0,0,1,3.32.64,5.27,5.27,0,0,1,2.31,1.89,5.51,5.51,0,0,1,.85,3.14v.92H93.38v-.92a3.25,3.25,0,0,0-.48-1.86,2.68,2.68,0,0,0-1.31-1,5.37,5.37,0,0,0-2-.33,4.17,4.17,0,0,0-2.54.67,2.2,2.2,0,0,0-.91,1.88,2.13,2.13,0,0,0,.4,1.34,2.76,2.76,0,0,0,1.16.85,10.9,10.9,0,0,0,1.91.59l.95.23a15.5,15.5,0,0,1,3.06,1,5.28,5.28,0,0,1,2.09,1.62A4.27,4.27,0,0,1,96.51,74a4.9,4.9,0,0,1-.8,2.81,5.37,5.37,0,0,1-2.28,1.87A8.4,8.4,0,0,1,89.93,79.37Z"/><path d="M103,79V63.65H97.51v-2.5h13.72v2.5h-5.48V79Z"/><path d="M113.73,79V61.15h7.51a6.92,6.92,0,0,1,2.92.58,4.36,4.36,0,0,1,2.66,4.19v.28a4.2,4.2,0,0,1-.8,2.69,4.29,4.29,0,0,1-2,1.42v.41a2.23,2.23,0,0,1,1.55.65,2.36,2.36,0,0,1,.59,1.72V79h-2.78V73.47a1.58,1.58,0,0,0-.36-1.09,1.46,1.46,0,0,0-1.15-.41h-5.43v7Zm2.76-9.54h4.44a3.28,3.28,0,0,0,2.3-.75,2.69,2.69,0,0,0,.81-2.06v-.2a2.72,2.72,0,0,0-.8-2.06,3.28,3.28,0,0,0-2.31-.75h-4.44Z"/><path d="M128.53,79l5.1-17.86h4.85L143.56,79h-2.83l-1.18-4.21h-7L131.39,79Zm4.72-6.76h5.61l-2.6-9.39h-.41Z"/><path d="M148.46,79V63.65H143v-2.5H156.7v2.5h-5.49V79Z"/><path d="M159.2,79V61.15H162V79Z"/><path d="M172.39,79.37a7.26,7.26,0,0,1-5.23-1.85,7,7,0,0,1-1.94-5.35V68a7,7,0,0,1,1.94-5.35,8.33,8.33,0,0,1,10.47,0,7,7,0,0,1,2,5.35v4.18a7,7,0,0,1-2,5.35A7.32,7.32,0,0,1,172.39,79.37Zm0-2.48a4.23,4.23,0,0,0,3.26-1.23,4.79,4.79,0,0,0,1.15-3.39V67.89a4.74,4.74,0,0,0-1.15-3.38,4.88,4.88,0,0,0-6.5,0A4.67,4.67,0,0,0,168,67.89v4.38a4.71,4.71,0,0,0,1.18,3.39A4.26,4.26,0,0,0,172.39,76.89Z"/><path d="M182.85,79V61.15h5.3l4.85,16h.41v-16h2.73V79h-5.31L186,63h-.41V79Z"/><path d="M205.93,79.37a8.43,8.43,0,0,1-3.57-.72,5.42,5.42,0,0,1-2.43-2.1,6.19,6.19,0,0,1-.88-3.38v-.64h2.72v.64A3.46,3.46,0,0,0,202.91,76a4.58,4.58,0,0,0,3,.94,4.43,4.43,0,0,0,2.89-.8,2.6,2.6,0,0,0,1-2.08,2.09,2.09,0,0,0-.46-1.38,3.2,3.2,0,0,0-1.3-.85,18.67,18.67,0,0,0-2-.6l-.94-.23a15.26,15.26,0,0,1-3-1,4.85,4.85,0,0,1-2-1.59,4.41,4.41,0,0,1-.69-2.55,4.63,4.63,0,0,1,.78-2.71,5,5,0,0,1,2.16-1.73,7.9,7.9,0,0,1,3.24-.62,8.38,8.38,0,0,1,3.33.64,5.32,5.32,0,0,1,2.31,1.89,5.5,5.5,0,0,1,.84,3.14v.92h-2.73v-.92a3.33,3.33,0,0,0-.47-1.86,2.75,2.75,0,0,0-1.32-1,5.33,5.33,0,0,0-2-.33,4.17,4.17,0,0,0-2.54.67,2.2,2.2,0,0,0-.91,1.88,2.13,2.13,0,0,0,.4,1.34,2.76,2.76,0,0,0,1.16.85,10.9,10.9,0,0,0,1.91.59l.95.23a15.5,15.5,0,0,1,3.06,1,5.28,5.28,0,0,1,2.09,1.62,4.28,4.28,0,0,1,.77,2.63,4.91,4.91,0,0,1-.81,2.81,5.31,5.31,0,0,1-2.28,1.87A8.37,8.37,0,0,1,205.93,79.37Z"/><rect class="cls-2" x="341.78" y="55.2" width="2.12" height="88.47"/><rect class="cls-2" x="341.78" y="55.2" width="2.12" height="88.47" transform="translate(-13.33 123.26) rotate(-20)"/><rect class="cls-2" x="341.78" y="55.2" width="2.12" height="88.47" transform="translate(16.29 243.64) rotate(-40)"/><rect class="cls-2" x="341.78" y="55.2" width="2.12" height="88.47" transform="translate(85.31 346.63) rotate(-60)"/><rect class="cls-2" x="341.78" y="55.2" width="2.12" height="88.47" transform="translate(185.38 419.8) rotate(-80)"/><rect class="cls-2" x="298.61" y="98.38" width="88.47" height="2.12" transform="translate(-12.07 61.13) rotate(-10.01)"/><rect class="cls-2" x="298.61" y="98.38" width="88.47" height="2.12" transform="translate(-3.79 184.71) rotate(-29.99)"/><rect class="cls-2" x="298.61" y="98.38" width="88.47" height="2.12" transform="translate(46.27 298.12) rotate(-49.99)"/><rect class="cls-2" x="298.61" y="98.38" width="88.47" height="2.12" transform="translate(132.18 387.62) rotate(-70.01)"/></svg>